0
SECTION
2
HEADER
9
$INSUNITS
70
4
9
$ACADVER
1
AC1014
9
$HANDSEED
5
FFFF
0
ENDSEC
0
SECTION
2
TABLES
0
TABLE
2
VPORT
5
8
100
AcDbSymbolTable
0
ENDTAB
0
TABLE
2
LTYPE
5
5
100
AcDbSymbolTable
0
LTYPE
5
14
100
AcDbSymbolTableRecord
100
AcDbLinetypeTableRecord
2
BYBLOCK
70
0
0
LTYPE
5
15
100
AcDbSymbolTableRecord
100
AcDbLinetypeTableRecord
2
BYLAYER
70
0
0
ENDTAB
0
TABLE
2
LAYER
5
2
100
AcDbSymbolTable
70
2
0
LAYER
5
50
100
AcDbSymbolTableRecord
100
AcDbLayerTableRecord
2
0
70
0
6
CONTINUOUS
0
ENDTAB
0
TABLE
2
STYLE
5
3
100
AcDbSymbolTable
70
1
0
STYLE
5
11
100
AcDbSymbolTableRecord
100
AcDbTextStyleTableRecord
2
STANDARD
70
0
0
ENDTAB
0
TABLE
2
VIEW
5
6
100
AcDbSymbolTable
70
0
0
ENDTAB
0
TABLE
2
UCS
5
7
100
AcDbSymbolTable
70
0
0
ENDTAB
0
TABLE
2
APPID
5
9
100
AcDbSymbolTable
70
2
0
APPID
5
12
100
AcDbSymbolTableRecord
100
AcDbRegAppTableRecord
2
ACAD
70
0
0
ENDTAB
0
TABLE
2
DIMSTYLE
5
A
100
AcDbSymbolTable
70
1
0
ENDTAB
0
TABLE
2
BLOCK_RECORD
5
1
100
AcDbSymbolTable
70
1
0
BLOCK_RECORD
5
1F
100
AcDbSymbolTableRecord
100
AcDbBlockTableRecord
2
*MODEL_SPACE
0
BLOCK_RECORD
5
1B
100
AcDbSymbolTableRecord
100
AcDbBlockTableRecord
2
*PAPER_SPACE
0
ENDTAB
0
ENDSEC
0
SECTION
2
BLOCKS
0
BLOCK
5
20
100
AcDbEntity
100
AcDbBlockBegin
2
*MODEL_SPACE
0
ENDBLK
5
21
100
AcDbEntity
100
AcDbBlockEnd
0
BLOCK
5
1C
100
AcDbEntity
100
AcDbBlockBegin
2
*PAPER_SPACE
0
ENDBLK
5
1D
100
AcDbEntity
100
AcDbBlockEnd
0
ENDSEC
0
SECTION
2
ENTITIES
0
LINE
5
100
100
AcDbEntity
8
0
100
AcDbLine
10
0
20
0
30
0
11
0
21
-6.9282032302755061
31
0
0
LINE
5
101
100
AcDbEntity
8
0
100
AcDbLine
10
0
20
-6.9282032302755061
30
0
11
1
21
-6.9282032302755061
31
0
0
LINE
5
102
100
AcDbEntity
8
0
100
AcDbLine
10
1
20
-6.9282032302755061
30
0
11
2
21
-6.9282032302755061
31
0
0
LINE
5
103
100
AcDbEntity
8
0
100
AcDbLine
10
2
20
-6.9282032302755061
30
0
11
3.0000000447034836
21
-6.9282032302755061
31
0
0
LINE
5
104
100
AcDbEntity
8
0
100
AcDbLine
10
3.0000000447034836
20
-6.9282032302755061
30
0
11
4.0000000596046448
21
-6.9282032302755061
31
0
0
LINE
5
105
100
AcDbEntity
8
0
100
AcDbLine
10
4.0000000596046448
20
-6.9282032302755061
30
0
11
4.5000000596046448
21
-6.0621778264910677
31
0
0
LINE
5
106
100
AcDbEntity
8
0
100
AcDbLine
10
4.5000000596046448
20
-6.0621778264910677
30
0
11
5.0000000596046448
21
-5.1961524227066294
31
0
0
LINE
5
107
100
AcDbEntity
8
0
100
AcDbLine
10
5.0000000596046448
20
-5.1961524227066294
30
0
11
5.5000000596046448
21
-4.330127018922191
31
0
0
LINE
5
108
100
AcDbEntity
8
0
100
AcDbLine
10
5.5000000596046448
20
-4.330127018922191
30
0
11
6.0000000596046457
21
-3.4641016151377526
31
0
0
LINE
5
109
100
AcDbEntity
8
0
100
AcDbLine
10
6.0000000596046457
20
-3.4641016151377526
30
0
11
6.5000000596046457
21
-2.5980762113533142
31
0
0
LINE
5
110
100
AcDbEntity
8
0
100
AcDbLine
10
6.5000000596046457
20
-2.5980762113533142
30
0
11
7.0000000596046466
21
-1.7320508075688756
31
0
0
LINE
5
111
100
AcDbEntity
8
0
100
AcDbLine
10
7.0000000596046466
20
-1.7320508075688756
30
0
11
7.5000000596046466
21
-0.86602540378443738
31
0
0
LINE
5
112
100
AcDbEntity
8
0
100
AcDbLine
10
7.5000000596046466
20
-0.86602540378443738
30
0
11
8.0000000596046466
21
9.7144514654701197e-16
31
0
0
LINE
5
113
100
AcDbEntity
8
0
100
AcDbLine
10
8.0000000596046466
20
9.7144514654701197e-16
30
0
11
7.5000000596046483
21
0.86602540378443993
31
0
0
LINE
5
114
100
AcDbEntity
8
0
100
AcDbLine
10
7.5000000596046483
20
0.86602540378443993
30
0
11
7.0000000596046483
21
1.732050807568879
31
0
0
LINE
5
115
100
AcDbEntity
8
0
100
AcDbLine
10
7.0000000596046483
20
1.732050807568879
30
0
11
6.5000000596046492
21
2.5980762113533187
31
0
0
LINE
5
116
100
AcDbEntity
8
0
100
AcDbLine
10
6.5000000596046492
20
2.5980762113533187
30
0
11
6.0000000596046501
21
3.4641016151377575
31
0
0
LINE
5
117
100
AcDbEntity
8
0
100
AcDbLine
10
6.0000000596046501
20
3.4641016151377575
30
0
11
5.5000000596046501
21
4.3301270189221963
31
0
0
LINE
5
118
100
AcDbEntity
8
0
100
AcDbLine
10
5.5000000596046501
20
4.3301270189221963
30
0
11
5.000000059604651
21
5.1961524227066347
31
0
0
LINE
5
119
100
AcDbEntity
8
0
100
AcDbLine
10
5.000000059604651
20
5.1961524227066347
30
0
11
4.5000000596046519
21
6.0621778264910731
31
0
0
LINE
5
120
100
AcDbEntity
8
0
100
AcDbLine
10
4.5000000596046519
20
6.0621778264910731
30
0
11
4.0000000596046528
21
6.9282032302755114
31
0
0
LINE
5
121
100
AcDbEntity
8
0
100
AcDbLine
10
4.0000000596046528
20
6.9282032302755114
30
0
11
3.0000000596046528
21
6.9282032302755114
31
0
0
LINE
5
122
100
AcDbEntity
8
0
100
AcDbLine
10
3.0000000596046528
20
6.9282032302755114
30
0
11
2.0000000596046528
21
6.9282032302755114
31
0
0
LINE
5
123
100
AcDbEntity
8
0
100
AcDbLine
10
2.0000000596046528
20
6.9282032302755114
30
0
11
1.0000000596046528
21
6.9282032302755114
31
0
0
LINE
5
124
100
AcDbEntity
8
0
100
AcDbLine
10
1.0000000596046528
20
6.9282032302755114
30
0
11
5.9604652602462949e-08
21
6.9282032302755114
31
0
0
LINE
5
125
100
AcDbEntity
8
0
100
AcDbLine
10
5.9604652602462949e-08
20
6.9282032302755114
30
0
11
-1.0000000149011612
21
6.9282032302755114
31
0
0
LINE
5
126
100
AcDbEntity
8
0
100
AcDbLine
10
-1.0000000149011612
20
6.9282032302755114
30
0
11
-2.0000000298023224
21
6.9282032302755114
31
0
0
LINE
5
127
100
AcDbEntity
8
0
100
AcDbLine
10
-2.0000000298023224
20
6.9282032302755114
30
0
11
-3.0000000447034836
21
6.9282032302755114
31
0
0
LINE
5
128
100
AcDbEntity
8
0
100
AcDbLine
10
-3.0000000447034836
20
6.9282032302755114
30
0
11
-4.0000000596046448
21
6.9282032302755114
31
0
0
LINE
5
129
100
AcDbEntity
8
0
100
AcDbLine
10
-4.0000000596046448
20
6.9282032302755114
30
0
11
-4.5000000596046448
21
6.0621778264910731
31
0
0
LINE
5
130
100
AcDbEntity
8
0
100
AcDbLine
10
-4.5000000596046448
20
6.0621778264910731
30
0
11
-5.0000000596046448
21
5.1961524227066347
31
0
0
LINE
5
131
100
AcDbEntity
8
0
100
AcDbLine
10
-5.0000000596046448
20
5.1961524227066347
30
0
11
-5.5000000596046448
21
4.3301270189221963
31
0
0
LINE
5
132
100
AcDbEntity
8
0
100
AcDbLine
10
-5.5000000596046448
20
4.3301270189221963
30
0
11
-6.0000000596046457
21
3.4641016151377579
31
0
0
LINE
5
133
100
AcDbEntity
8
0
100
AcDbLine
10
-6.0000000596046457
20
3.4641016151377579
30
0
11
-6.5000000596046457
21
2.5980762113533196
31
0
0
LINE
5
134
100
AcDbEntity
8
0
100
AcDbLine
10
-6.5000000596046457
20
2.5980762113533196
30
0
11
-7.0000000596046466
21
1.7320508075688812
31
0
0
LINE
5
135
100
AcDbEntity
8
0
100
AcDbLine
10
-7.0000000596046466
20
1.7320508075688812
30
0
11
-7.5000000596046466
21
0.86602540378444282
31
0
0
LINE
5
136
100
AcDbEntity
8
0
100
AcDbLine
10
-7.5000000596046466
20
0.86602540378444282
30
0
11
-8.0000000596046466
21
4.4408920985006262e-15
31
0
0
LINE
5
137
100
AcDbEntity
8
0
100
AcDbLine
10
-8.0000000596046466
20
4.4408920985006262e-15
30
0
11
-7.5000000596046466
21
-0.86602540378443416
31
0
0
LINE
5
138
100
AcDbEntity
8
0
100
AcDbLine
10
-7.5000000596046466
20
-0.86602540378443416
30
0
11
-7.0000000596046466
21
-1.7320508075688725
31
0
0
LINE
5
139
100
AcDbEntity
8
0
100
AcDbLine
10
-7.0000000596046466
20
-1.7320508075688725
30
0
11
-6.5000000596046457
21
-2.5980762113533107
31
0
0
LINE
5
140
100
AcDbEntity
8
0
100
AcDbLine
10
-6.5000000596046457
20
-2.5980762113533107
30
0
11
-6.0000000596046457
21
-3.4641016151377491
31
0
0
LINE
5
141
100
AcDbEntity
8
0
100
AcDbLine
10
-6.0000000596046457
20
-3.4641016151377491
30
0
11
-5.5000000596046448
21
-4.3301270189221874
31
0
0
LINE
5
142
100
AcDbEntity
8
0
100
AcDbLine
10
-5.5000000596046448
20
-4.3301270189221874
30
0
11
-5.0000000596046448
21
-5.1961524227066258
31
0
0
LINE
5
143
100
AcDbEntity
8
0
100
AcDbLine
10
-5.0000000596046448
20
-5.1961524227066258
30
0
11
-4.5000000596046439
21
-6.0621778264910642
31
0
0
LINE
5
144
100
AcDbEntity
8
0
100
AcDbLine
10
-4.5000000596046439
20
-6.0621778264910642
30
0
11
-4.0000000596046439
21
-6.9282032302755026
31
0
0
LINE
5
145
100
AcDbEntity
8
0
100
AcDbLine
10
-4.0000000596046439
20
-6.9282032302755026
30
0
11
-3.0000000596046439
21
-6.9282032302755026
31
0
0
LINE
5
146
100
AcDbEntity
8
0
100
AcDbLine
10
-3.0000000596046439
20
-6.9282032302755026
30
0
11
-2.0000000596046439
21
-6.9282032302755026
31
0
0
LINE
5
147
100
AcDbEntity
8
0
100
AcDbLine
10
-2.0000000596046439
20
-6.9282032302755026
30
0
11
-1.0000000596046439
21
-6.9282032302755026
31
0
0
LINE
5
148
100
AcDbEntity
8
0
100
AcDbLine
10
-1.0000000596046439
20
-6.9282032302755026
30
0
11
0
21
-6.9282032302755061
31
0
0
LINE
5
149
100
AcDbEntity
8
0
100
AcDbLine
10
0
20
0
30
0
11
5.9604652602462949e-08
21
6.9282032302755114
31
0
0
LINE
5
150
100
AcDbEntity
8
0
100
AcDbLine
10
-6.0000000596046457
20
3.4641016151377579
30
0
11
4.7369352119371424
21
-2.7348707925772242
31
0
0
LINE
5
151
100
AcDbEntity
8
0
100
AcDbLine
10
1.1717017390306275
20
-5.6239990398715598
30
0
11
1.7770429294077095
21
-1.0259762034629021
31
0
0
LINE
5
152
100
AcDbEntity
8
0
100
AcDbLine
10
2.3093293043503222
20
-5.7737705501701679
30
0
11
3.3397459666005402
21
-1.9282032136868088
31
0
0
LINE
5
153
100
AcDbEntity
8
0
100
AcDbLine
10
3.4177377131744677
20
-5.9196952855387384
30
0
11
4.7369352119371424
21
-2.7348707925772242
31
0
0
LINE
5
154
100
AcDbEntity
8
0
100
AcDbLine
10
1.7770429294077095
20
-1.0259762034629021
30
0
11
5.4563769698516129
21
1.79727606129569
31
0
0
LINE
5
155
100
AcDbEntity
8
0
100
AcDbLine
10
3.3397459666005402
20
-1.9282032136868088
30
0
11
6.154896682774595
21
0.88694744730456965
31
0
0
LINE
5
156
100
AcDbEntity
8
0
100
AcDbLine
10
4.7369352119371424
20
-2.7348707925772242
30
0
11
6.835475393415261
21
2.719436342779602e-09
31
0
0
LINE
5
157
100
AcDbEntity
8
0
100
AcDbLine
10
-1.1717017976197814
20
-5.6239990475849675
30
0
11
-1.7770429848018654
21
-1.025976235444731
31
0
0
LINE
5
158
100
AcDbEntity
8
0
100
AcDbLine
10
-2.3093293619239867
20
-5.7737705577498826
30
0
11
-3.3397460182196781
21
-1.9282032434891301
31
0
0
LINE
5
159
100
AcDbEntity
8
0
100
AcDbLine
10
-3.417737727305056
20
-5.9196952873990627
30
0
11
-4.7369352239624876
21
-2.7348707995200567
31
0
0
LINE
5
160
100
AcDbEntity
8
0
100
AcDbLine
10
-1.7770429848018654
20
-1.025976235444731
30
0
11
-5.4563769697226956
21
1.7972760447374601
31
0
0
LINE
5
161
100
AcDbEntity
8
0
100
AcDbLine
10
-3.3397460182196781
20
-1.9282032434891301
30
0
11
-6.1548966861568015
21
0.88694743188766134
31
0
0
LINE
5
162
100
AcDbEntity
8
0
100
AcDbLine
10
-4.7369352239624876
20
-2.7348707995200567
30
0
11
-6.8354753934152601
21
-2.7194285712184296e-09
31
0
0
LINE
5
163
100
AcDbEntity
8
0
100
AcDbLine
10
-4.7369352239624876
20
-2.7348707995200567
30
0
11
4.7369352239624964
21
2.7348707995200683
31
0
0
LINE
5
164
100
AcDbEntity
8
0
100
AcDbLine
10
-3.4177377131744677
20
5.9196952855387455
30
0
11
-4.7369352119371442
21
2.7348707925772295
31
0
0
LINE
5
165
100
AcDbEntity
8
0
100
AcDbLine
10
-2.0000000298023224
20
6.9282032302755114
30
0
11
-3.3397459924101103
21
1.9282032285879758
31
0
0
LINE
5
166
100
AcDbEntity
8
0
100
AcDbLine
10
-1.0000000149011612
20
6.9282032302755114
30
0
11
-1.7770429432562485
21
1.0259762114583646
31
0
0
LINE
5
167
100
AcDbEntity
8
0
100
AcDbLine
10
1.0000000596046528
20
6.9282032302755114
30
0
11
1.7770429848018732
21
1.0259762354447415
31
0
0
LINE
5
168
100
AcDbEntity
8
0
100
AcDbLine
10
2.0000000596046528
20
6.9282032302755114
30
0
11
3.3397460182196848
21
1.9282032434891394
31
0
0
LINE
5
169
100
AcDbEntity
8
0
100
AcDbLine
10
3.0000000596046528
20
6.9282032302755114
30
0
11
4.7369352239624964
21
2.7348707995200683
31
0
0
LINE
5
170
100
AcDbEntity
8
0
100
AcDbLine
10
-4.7369352119371442
20
2.7348707925772295
30
0
11
-6.8354753934152601
21
-2.7194285712184296e-09
31
0
0
LINE
5
171
100
AcDbEntity
8
0
100
AcDbLine
10
-3.3397459924101103
20
1.9282032285879758
30
0
11
-6.1548966868556345
21
-0.88694744198604369
31
0
0
LINE
5
172
100
AcDbEntity
8
0
100
AcDbLine
10
-1.7770429432562485
20
1.0259762114583646
30
0
11
-5.4563769718389157
21
-1.7972760587057683
31
0
0
LINE
5
173
100
AcDbEntity
8
0
100
AcDbLine
10
1.7770429848018732
20
1.0259762354447415
30
0
11
5.4563769697226956
21
-1.7972760447374521
31
0
0
LINE
5
174
100
AcDbEntity
8
0
100
AcDbLine
10
3.3397460182196848
20
1.9282032434891394
30
0
11
6.1548966861568024
21
-0.88694743188765379
31
0
0
LINE
5
175
100
AcDbEntity
8
0
100
AcDbLine
10
4.7369352239624964
20
2.7348707995200683
30
0
11
6.835475393415261
21
2.719436342779602e-09
31
0
0
LINE
5
176
100
AcDbEntity
8
0
100
AcDbLine
10
-3.417737727305056
20
-5.9196952873990627
30
0
11
0
21
-5.4697415795006821
31
0
0
LINE
5
177
100
AcDbEntity
8
0
100
AcDbLine
10
-3.8455673870790235
20
-4.8868231203872821
30
0
11
0
21
-3.8564064445799948
31
0
0
LINE
5
178
100
AcDbEntity
8
0
100
AcDbLine
10
-4.2846752366651515
20
-3.826722994571969
30
0
11
0
21
-2.0519524011811123
31
0
0
LINE
5
179
100
AcDbEntity
8
0
100
AcDbLine
10
-4.2846752239462162
20
3.8267229893036219
30
0
11
1.7653337456800108e-08
21
2.0519523938688695
31
0
0
LINE
5
180
100
AcDbEntity
8
0
100
AcDbLine
10
-5.0000000596046448
20
5.1961524227066347
30
0
11
3.3177399428577798e-08
21
3.8564064356901473
31
0
0
LINE
5
181
100
AcDbEntity
8
0
100
AcDbLine
10
-3.4177377131744677
20
5.9196952855387455
30
0
11
4.7057229048570801e-08
21
5.4697415733054902
31
0
0
LINE
5
182
100
AcDbEntity
8
0
100
AcDbLine
10
4.7057229048570801e-08
20
5.4697415733054902
30
0
11
3.4177377284755606
21
5.9196952845732458
31
0
0
LINE
5
183
100
AcDbEntity
8
0
100
AcDbLine
10
3.3177399428577798e-08
20
3.8564064356901473
30
0
11
3.8455673886095498
21
4.8868231166922973
31
0
0
LINE
5
184
100
AcDbEntity
8
0
100
AcDbLine
10
1.7653337456800108e-08
20
2.0519523938688695
30
0
11
4.2846752378076856
21
3.8267229918136794
31
0
0
LINE
5
185
100
AcDbEntity
8
0
100
AcDbLine
10
0
20
-2.0519524011811123
30
0
11
4.2846752239462145
21
-3.8267229893036148
31
0
0
LINE
5
186
100
AcDbEntity
8
0
100
AcDbLine
10
0
20
-3.8564064445799948
30
0
11
3.845567373666495
21
-4.8868231167934093
31
0
0
LINE
5
187
100
AcDbEntity
8
0
100
AcDbLine
10
0
20
-5.4697415795006821
30
0
11
3.4177377131744677
21
-5.9196952855387384
31
0
0
LINE
5
188
100
AcDbEntity
8
0
100
AcDbLine
10
-4.0000000596046439
20
-6.9282032302755026
30
0
11
-4.500000059604643
21
-7.7942286340599418
31
0
0
LINE
5
189
100
AcDbEntity
8
0
100
AcDbLine
10
-4.0000000596046439
20
-6.9282032302755026
30
0
11
-3.0000000596046434
21
-6.9282032302755026
31
0
0
LINE
5
190
100
AcDbEntity
8
0
100
AcDbLine
10
4.0000000596046448
20
-6.9282032302755061
30
0
11
4.5000000596046448
21
-7.7942286340599445
31
0
0
LINE
5
191
100
AcDbEntity
8
0
100
AcDbLine
10
4.0000000596046448
20
-6.9282032302755061
30
0
11
3.0000000596046448
21
-6.9282032302755061
31
0
0
LINE
5
192
100
AcDbEntity
8
0
100
AcDbLine
10
8.0000000596046466
20
9.7144514654701197e-16
30
0
11
9.0000000596046466
21
9.7144514654701197e-16
31
0
0
LINE
5
193
100
AcDbEntity
8
0
100
AcDbLine
10
4.0000000596046528
20
6.9282032302755114
30
0
11
4.5000000596046528
21
7.7942286340599498
31
0
0
LINE
5
194
100
AcDbEntity
8
0
100
AcDbLine
10
4.0000000596046528
20
6.9282032302755114
30
0
11
3.0000000596046528
21
6.9282032302755114
31
0
0
LINE
5
195
100
AcDbEntity
8
0
100
AcDbLine
10
-4.0000000596046448
20
6.9282032302755114
30
0
11
-4.5000000596046448
21
7.7942286340599498
31
0
0
LINE
5
196
100
AcDbEntity
8
0
100
AcDbLine
10
-4.0000000596046448
20
6.9282032302755114
30
0
11
-3.0000000596046448
21
6.9282032302755114
31
0
0
LINE
5
197
100
AcDbEntity
8
0
100
AcDbLine
10
-8.0000000596046466
20
4.4408920985006262e-15
30
0
11
-9.0000000596046466
21
4.4408920985006262e-15
31
0
0
LINE
5
198
100
AcDbEntity
8
0
100
AcDbLine
10
3.8455673886095498
20
4.8868231166922973
30
0
11
5.000000059604651
21
5.1961524227066347
31
0
0
LINE
5
199
100
AcDbEntity
8
0
100
AcDbLine
10
5.000000059604651
20
5.1961524227066347
30
0
11
5.8660254618493211
21
5.4282032329424679
31
0
0
LINE
5
200
100
AcDbEntity
8
0
100
AcDbLine
10
3.4177377284755606
20
5.9196952845732458
30
0
11
4.5000000596046519
21
6.0621778264910731
31
0
0
LINE
5
201
100
AcDbEntity
8
0
100
AcDbLine
10
4.5000000596046519
20
6.0621778264910731
30
0
11
5.4293597920351964
21
6.1845303589816281
31
0
0
LINE
5
202
100
AcDbEntity
8
0
100
AcDbLine
10
4.2846752378076856
20
3.8267229918136794
30
0
11
5.5000000596046501
21
4.3301270189221963
31
0
0
LINE
5
203
100
AcDbEntity
8
0
100
AcDbLine
10
5.5000000596046501
20
4.3301270189221963
30
0
11
6.3070072622960272
21
4.6644003493555708
31
0
0
LINE
5
204
100
AcDbEntity
8
0
100
AcDbLine
10
4.7369352239624964
20
2.7348707995200683
30
0
11
6.0000000596046501
21
3.4641016151377575
31
0
0
LINE
5
205
100
AcDbEntity
8
0
100
AcDbLine
10
6.0000000596046501
20
3.4641016151377575
30
0
11
6.7500000596046492
21
3.8971143170299753
31
0
0
LINE
5
206
100
AcDbEntity
8
0
100
AcDbLine
10
5.4563769698516129
20
1.79727606129569
30
0
11
6.5000000596046492
21
2.5980762113533187
31
0
0
LINE
5
207
100
AcDbEntity
8
0
100
AcDbLine
10
6.5000000596046492
20
2.5980762113533187
30
0
11
7.1929928590983661
21
3.129828280919686
31
0
0
LINE
5
208
100
AcDbEntity
8
0
100
AcDbLine
10
6.154896682774595
20
0.88694744730456965
30
0
11
7.0000000596046483
21
1.732050807568879
31
0
0
LINE
5
209
100
AcDbEntity
8
0
100
AcDbLine
10
7.0000000596046483
20
1.732050807568879
30
0
11
7.6339746603688772
21
2.3660253959059174
31
0
0
LINE
5
210
100
AcDbEntity
8
0
100
AcDbLine
10
6.835475393415261
20
2.719436342779602e-09
30
0
11
7.5000000596046483
21
0.86602540378443993
31
0
0
LINE
5
211
100
AcDbEntity
8
0
100
AcDbLine
10
7.5000000596046483
20
0.86602540378443993
30
0
11
8.0706403271567453
21
1.6096982751083857
31
0
0
LINE
5
212
100
AcDbEntity
8
0
100
AcDbLine
10
1.0000000596046528
20
6.9282032302755114
30
0
11
0.88598565222229841
21
7.7942286340599498
31
0
0
LINE
5
213
100
AcDbEntity
8
0
100
AcDbLine
10
3.0000000596046528
20
6.9282032302755114
30
0
11
2.6412805919975026
21
7.7942286340599498
31
0
0
LINE
5
214
100
AcDbEntity
8
0
100
AcDbLine
10
2.0000000596046528
20
6.9282032302755114
30
0
11
1.7679492520357756
21
7.7942286340599498
31
0
0
LINE
5
215
100
AcDbEntity
8
0
100
AcDbLine
10
-1.0000000149011612
20
6.9282032302755114
30
0
11
-0.88598560751880684
21
7.7942286340599498
31
0
0
LINE
5
216
100
AcDbEntity
8
0
100
AcDbLine
10
-2.0000000298023224
20
6.9282032302755114
30
0
11
-1.767949222233445
21
7.7942286340599498
31
0
0
LINE
5
217
100
AcDbEntity
8
0
100
AcDbLine
10
-3.4177377131744677
20
5.9196952855387455
30
0
11
-3.0000000596046448
21
6.9282032302755114
31
0
0
LINE
5
218
100
AcDbEntity
8
0
100
AcDbLine
10
-3.0000000596046448
20
6.9282032302755114
30
0
11
-2.6412806047934123
21
7.7942286340599498
31
0
0
LINE
5
219
100
AcDbEntity
8
0
100
AcDbLine
10
-3.4177377131744677
20
5.9196952855387455
30
0
11
-4.5000000596046448
21
6.0621778264910731
31
0
0
LINE
5
220
100
AcDbEntity
8
0
100
AcDbLine
10
-4.5000000596046448
20
6.0621778264910731
30
0
11
-5.4293597934082189
21
6.1845303566034717
31
0
0
LINE
5
221
100
AcDbEntity
8
0
100
AcDbLine
10
-5.0000000596046448
20
5.1961524227066347
30
0
11
-5.8660254633890831
21
5.4282032302755123
31
0
0
LINE
5
222
100
AcDbEntity
8
0
100
AcDbLine
10
-4.2846752239462162
20
3.8267229893036219
30
0
11
-5.5000000596046448
21
4.3301270189221963
31
0
0
LINE
5
223
100
AcDbEntity
8
0
100
AcDbLine
10
-5.5000000596046448
20
4.3301270189221963
30
0
11
-6.3070072632958221
21
4.6644003476238689
31
0
0
LINE
5
224
100
AcDbEntity
8
0
100
AcDbLine
10
-6.0000000596046457
20
3.4641016151377579
30
0
11
-6.7500000596046466
21
3.8971143170299771
31
0
0
LINE
5
225
100
AcDbEntity
8
0
100
AcDbLine
10
-5.4563769697226956
20
1.7972760447374601
30
0
11
-6.5000000596046457
21
2.5980762113533196
31
0
0
LINE
5
226
100
AcDbEntity
8
0
100
AcDbLine
10
-6.5000000596046457
20
2.5980762113533196
30
0
11
-7.1929928547255102
21
3.1298282884936897
31
0
0
LINE
5
227
100
AcDbEntity
8
0
100
AcDbLine
10
-6.1548966861568015
20
0.88694743188766134
30
0
11
-7.0000000596046466
21
1.7320508075688812
31
0
0
LINE
5
228
100
AcDbEntity
8
0
100
AcDbLine
10
-7.0000000596046466
20
1.7320508075688812
30
0
11
-7.6339746552069618
21
2.3660254048466154
31
0
0
LINE
5
229
100
AcDbEntity
8
0
100
AcDbLine
10
-6.8354753934152601
20
-2.7194285712184296e-09
30
0
11
-7.5000000596046466
21
0.86602540378444282
31
0
0
LINE
5
230
100
AcDbEntity
8
0
100
AcDbLine
10
-7.5000000596046466
20
0.86602540378444282
30
0
11
-8.0706403256180188
21
1.6096982777735409
31
0
0
LINE
5
231
100
AcDbEntity
8
0
100
AcDbLine
10
-6.8354753934152601
20
-2.7194285712184296e-09
30
0
11
-7.5000000596046466
21
-0.86602540378443416
31
0
0
LINE
5
232
100
AcDbEntity
8
0
100
AcDbLine
10
-7.5000000596046466
20
-0.86602540378443416
30
0
11
-8.0706403271567435
21
-1.6096982751083797
31
0
0
LINE
5
233
100
AcDbEntity
8
0
100
AcDbLine
10
-6.1548966868556345
20
-0.88694744198604369
30
0
11
-7.0000000596046466
21
-1.7320508075688725
31
0
0
LINE
5
234
100
AcDbEntity
8
0
100
AcDbLine
10
-7.0000000596046466
20
-1.7320508075688725
30
0
11
-7.6339746577879168
21
-2.3660254003762584
31
0
0
LINE
5
235
100
AcDbEntity
8
0
100
AcDbLine
10
-5.4563769718389157
20
-1.7972760587057683
30
0
11
-6.5000000596046457
21
-2.5980762113533107
31
0
0
LINE
5
236
100
AcDbEntity
8
0
100
AcDbLine
10
-6.5000000596046457
20
-2.5980762113533107
30
0
11
-7.1929928580051499
21
-3.1298282828131789
31
0
0
LINE
5
237
100
AcDbEntity
8
0
100
AcDbLine
10
-4.7369352239624876
20
-2.7348707995200567
30
0
11
-6.0000000596046457
21
-3.4641016151377491
31
0
0
LINE
5
238
100
AcDbEntity
8
0
100
AcDbLine
10
-6.0000000596046457
20
-3.4641016151377491
30
0
11
-6.7500000596046448
21
-3.8971143170299687
31
0
0
LINE
5
239
100
AcDbEntity
8
0
100
AcDbLine
10
-4.2846752366651515
20
-3.826722994571969
30
0
11
-5.5000000596046448
21
-4.3301270189221874
31
0
0
LINE
5
240
100
AcDbEntity
8
0
100
AcDbLine
10
-5.5000000596046448
20
-4.3301270189221874
30
0
11
-6.3070072632958221
21
-4.66440034762386
31
0
0
LINE
5
241
100
AcDbEntity
8
0
100
AcDbLine
10
-3.8455673870790235
20
-4.8868231203872821
30
0
11
-5.0000000596046448
21
-5.1961524227066258
31
0
0
LINE
5
242
100
AcDbEntity
8
0
100
AcDbLine
10
-5.0000000596046448
20
-5.1961524227066258
30
0
11
-5.8660254633890831
21
-5.4282032302755034
31
0
0
LINE
5
243
100
AcDbEntity
8
0
100
AcDbLine
10
-3.417737727305056
20
-5.9196952873990627
30
0
11
-4.5000000596046439
21
-6.0621778264910642
31
0
0
LINE
5
244
100
AcDbEntity
8
0
100
AcDbLine
10
-4.5000000596046439
20
-6.0621778264910642
30
0
11
-5.4293597934082189
21
-6.1845303566034628
31
0
0
LINE
5
245
100
AcDbEntity
8
0
100
AcDbLine
10
6.835475393415261
20
2.719436342779602e-09
30
0
11
7.5000000596046466
21
-0.86602540378443738
31
0
0
LINE
5
246
100
AcDbEntity
8
0
100
AcDbLine
10
7.5000000596046466
20
-0.86602540378443738
30
0
11
8.070640325618017
21
-1.6096982777735378
31
0
0
LINE
5
247
100
AcDbEntity
8
0
100
AcDbLine
10
6.1548966861568024
20
-0.88694743188765379
30
0
11
7.0000000596046466
21
-1.7320508075688756
31
0
0
LINE
5
248
100
AcDbEntity
8
0
100
AcDbLine
10
7.0000000596046466
20
-1.7320508075688756
30
0
11
7.6339746552069609
21
-2.3660254048466114
31
0
0
LINE
5
249
100
AcDbEntity
8
0
100
AcDbLine
10
5.4563769697226956
20
-1.7972760447374521
30
0
11
6.5000000596046457
21
-2.5980762113533142
31
0
0
LINE
5
250
100
AcDbEntity
8
0
100
AcDbLine
10
6.5000000596046457
20
-2.5980762113533142
30
0
11
7.1929928547255102
21
-3.1298282884936857
31
0
0
LINE
5
251
100
AcDbEntity
8
0
100
AcDbLine
10
4.7369352119371424
20
-2.7348707925772242
30
0
11
6.0000000596046457
21
-3.4641016151377526
31
0
0
LINE
5
252
100
AcDbEntity
8
0
100
AcDbLine
10
6.0000000596046457
20
-3.4641016151377526
30
0
11
6.7500000596046466
21
-3.8971143170299714
31
0
0
LINE
5
253
100
AcDbEntity
8
0
100
AcDbLine
10
4.2846752239462145
20
-3.8267229893036148
30
0
11
5.5000000596046448
21
-4.330127018922191
31
0
0
LINE
5
254
100
AcDbEntity
8
0
100
AcDbLine
10
5.5000000596046448
20
-4.330127018922191
30
0
11
6.307007263295823
21
-4.6644003476238645
31
0
0
LINE
5
255
100
AcDbEntity
8
0
100
AcDbLine
10
3.845567373666495
20
-4.8868231167934093
30
0
11
5.0000000596046448
21
-5.1961524227066294
31
0
0
LINE
5
256
100
AcDbEntity
8
0
100
AcDbLine
10
5.0000000596046448
20
-5.1961524227066294
30
0
11
5.866025463389084
21
-5.428203230275507
31
0
0
LINE
5
257
100
AcDbEntity
8
0
100
AcDbLine
10
3.4177377131744677
20
-5.9196952855387384
30
0
11
4.5000000596046448
21
-6.0621778264910677
31
0
0
LINE
5
258
100
AcDbEntity
8
0
100
AcDbLine
10
4.5000000596046448
20
-6.0621778264910677
30
0
11
5.4293597934082207
21
-6.1845303566034655
31
0
0
LINE
5
259
100
AcDbEntity
8
0
100
AcDbLine
10
-3.417737727305056
20
-5.9196952873990627
30
0
11
-3.0000000596046434
21
-6.9282032302755026
31
0
0
LINE
5
260
100
AcDbEntity
8
0
100
AcDbLine
10
-3.0000000596046434
20
-6.9282032302755026
30
0
11
-2.6412805919974924
21
-7.7942286340599418
31
0
0
LINE
5
261
100
AcDbEntity
8
0
100
AcDbLine
10
3.4177377131744677
20
-5.9196952855387384
30
0
11
3.0000000596046448
21
-6.9282032302755061
31
0
0
LINE
5
262
100
AcDbEntity
8
0
100
AcDbLine
10
3.0000000596046448
20
-6.9282032302755061
30
0
11
2.6412806047934128
21
-7.7942286340599445
31
0
0
LINE
5
263
100
AcDbEntity
8
0
100
AcDbLine
10
2.3093293043503222
20
-5.7737705501701679
30
0
11
2
21
-6.9282032302755061
31
0
0
LINE
5
264
100
AcDbEntity
8
0
100
AcDbLine
10
2
20
-6.9282032302755061
30
0
11
1.767949192431123
21
-7.7942286340599427
31
0
0
LINE
5
265
100
AcDbEntity
8
0
100
AcDbLine
10
-2.3093293619239867
20
-5.7737705577498826
30
0
11
-2.0000000596046439
21
-6.9282032302755026
31
0
0
LINE
5
266
100
AcDbEntity
8
0
100
AcDbLine
10
-2.0000000596046439
20
-6.9282032302755026
30
0
11
-1.7679492520357658
21
-7.7942286340599427
31
0
0
LINE
5
267
100
AcDbEntity
8
0
100
AcDbLine
10
1.1717017390306275
20
-5.6239990398715598
30
0
11
1
21
-6.9282032302755061
31
0
0
LINE
5
268
100
AcDbEntity
8
0
100
AcDbLine
10
1
20
-6.9282032302755061
30
0
11
0.88598559261764576
21
-7.7942286340599427
31
0
0
LINE
5
269
100
AcDbEntity
8
0
100
AcDbLine
10
-1.1717017976197814
20
-5.6239990475849675
30
0
11
-1.0000000596046439
21
-6.9282032302755026
31
0
0
LINE
5
270
100
AcDbEntity
8
0
100
AcDbLine
10
-1.0000000596046439
20
-6.9282032302755026
30
0
11
-0.8859856522222892
21
-7.7942286340599427
31
0
0
LINE
5
271
100
AcDbEntity
8
0
100
AcDbLine
10
0
20
-6.9282032302755061
30
0
11
5.5511151231257827e-16
21
-7.7942286340599427
31
0
0
LINE
5
272
100
AcDbEntity
8
0
100
AcDbLine
10
-2.6412805919974924
20
-7.7942286340599418
30
0
11
-4.500000059604643
21
-7.7942286340599418
31
0
0
LINE
5
273
100
AcDbEntity
8
0
100
AcDbLine
10
-0.8859856522222892
20
-7.7942286340599427
30
0
11
-1.7679492520357658
21
-7.7942286340599427
31
0
0
LINE
5
274
100
AcDbEntity
8
0
100
AcDbLine
10
-1.7679492520357658
20
-7.7942286340599427
30
0
11
-2.6412805919974924
21
-7.7942286340599418
31
0
0
LINE
5
275
100
AcDbEntity
8
0
100
AcDbLine
10
2.6412806047934128
20
-7.7942286340599445
30
0
11
1.767949192431123
21
-7.7942286340599427
31
0
0
LINE
5
276
100
AcDbEntity
8
0
100
AcDbLine
10
5.5511151231257827e-16
20
-7.7942286340599427
30
0
11
-0.8859856522222892
21
-7.7942286340599427
31
0
0
LINE
5
277
100
AcDbEntity
8
0
100
AcDbLine
10
0.88598559261764576
20
-7.7942286340599427
30
0
11
5.5511151231257827e-16
21
-7.7942286340599427
31
0
0
LINE
5
278
100
AcDbEntity
8
0
100
AcDbLine
10
4.5000000596046448
20
-7.7942286340599445
30
0
11
2.6412806047934128
21
-7.7942286340599445
31
0
0
LINE
5
279
100
AcDbEntity
8
0
100
AcDbLine
10
1.767949192431123
20
-7.7942286340599427
30
0
11
0.88598559261764576
21
-7.7942286340599427
31
0
0
LINE
5
280
100
AcDbEntity
8
0
100
AcDbLine
10
4.5000000596046448
20
-7.7942286340599445
30
0
11
5.4293597934082207
21
-6.1845303566034655
31
0
0
LINE
5
281
100
AcDbEntity
8
0
100
AcDbLine
10
5.4293597934082207
20
-6.1845303566034655
30
0
11
5.866025463389084
21
-5.428203230275507
31
0
0
LINE
5
282
100
AcDbEntity
8
0
100
AcDbLine
10
5.866025463389084
20
-5.428203230275507
30
0
11
6.307007263295823
21
-4.6644003476238645
31
0
0
LINE
5
283
100
AcDbEntity
8
0
100
AcDbLine
10
6.307007263295823
20
-4.6644003476238645
30
0
11
6.7500000596046466
21
-3.8971143170299714
31
0
0
LINE
5
284
100
AcDbEntity
8
0
100
AcDbLine
10
6.7500000596046466
20
-3.8971143170299714
30
0
11
7.1929928547255102
21
-3.1298282884936857
31
0
0
LINE
5
285
100
AcDbEntity
8
0
100
AcDbLine
10
7.1929928547255102
20
-3.1298282884936857
30
0
11
7.6339746552069609
21
-2.3660254048466114
31
0
0
LINE
5
286
100
AcDbEntity
8
0
100
AcDbLine
10
8.070640325618017
20
-1.6096982777735378
30
0
11
9.0000000596046466
21
9.7144514654701197e-16
31
0
0
LINE
5
287
100
AcDbEntity
8
0
100
AcDbLine
10
7.6339746552069609
20
-2.3660254048466114
30
0
11
8.070640325618017
21
-1.6096982777735378
31
0
0
LINE
5
288
100
AcDbEntity
8
0
100
AcDbLine
10
8.0706403271567453
20
1.6096982751083857
30
0
11
9.0000000596046466
21
9.7144514654701197e-16
31
0
0
LINE
5
289
100
AcDbEntity
8
0
100
AcDbLine
10
7.6339746603688772
20
2.3660253959059174
30
0
11
8.0706403271567453
21
1.6096982751083857
31
0
0
LINE
5
290
100
AcDbEntity
8
0
100
AcDbLine
10
7.1929928590983661
20
3.129828280919686
30
0
11
7.6339746603688772
21
2.3660253959059174
31
0
0
LINE
5
291
100
AcDbEntity
8
0
100
AcDbLine
10
6.7500000596046492
20
3.8971143170299753
30
0
11
7.1929928590983661
21
3.129828280919686
31
0
0
LINE
5
292
100
AcDbEntity
8
0
100
AcDbLine
10
4.5000000596046528
20
7.7942286340599498
30
0
11
5.4293597920351964
21
6.1845303589816281
31
0
0
LINE
5
293
100
AcDbEntity
8
0
100
AcDbLine
10
6.3070072622960272
20
4.6644003493555708
30
0
11
6.7500000596046492
21
3.8971143170299753
31
0
0
LINE
5
294
100
AcDbEntity
8
0
100
AcDbLine
10
5.8660254618493211
20
5.4282032329424679
30
0
11
6.3070072622960272
21
4.6644003493555708
31
0
0
LINE
5
295
100
AcDbEntity
8
0
100
AcDbLine
10
5.4293597920351964
20
6.1845303589816281
30
0
11
5.8660254618493211
21
5.4282032329424679
31
0
0
LINE
5
296
100
AcDbEntity
8
0
100
AcDbLine
10
2.6412805919975026
20
7.7942286340599498
30
0
11
4.5000000596046528
21
7.7942286340599498
31
0
0
LINE
5
297
100
AcDbEntity
8
0
100
AcDbLine
10
1.7679492520357756
20
7.7942286340599498
30
0
11
2.6412805919975026
21
7.7942286340599498
31
0
0
LINE
5
298
100
AcDbEntity
8
0
100
AcDbLine
10
0.88598565222229841
20
7.7942286340599498
30
0
11
1.7679492520357756
21
7.7942286340599498
31
0
0
LINE
5
299
100
AcDbEntity
8
0
100
AcDbLine
10
5.9604652602462949e-08
20
6.9282032302755114
30
0
11
5.9604652602462949e-08
21
7.7942286340599498
31
0
0
LINE
5
300
100
AcDbEntity
8
0
100
AcDbLine
10
5.9604652602462949e-08
20
7.7942286340599498
30
0
11
0.88598565222229841
21
7.7942286340599498
31
0
0
LINE
5
301
100
AcDbEntity
8
0
100
AcDbLine
10
-4.5000000596046448
20
7.7942286340599498
30
0
11
-2.6412806047934123
21
7.7942286340599498
31
0
0
LINE
5
302
100
AcDbEntity
8
0
100
AcDbLine
10
-0.88598560751880684
20
7.7942286340599498
30
0
11
5.9604652602462949e-08
21
7.7942286340599498
31
0
0
LINE
5
303
100
AcDbEntity
8
0
100
AcDbLine
10
-1.767949222233445
20
7.7942286340599498
30
0
11
-0.88598560751880684
21
7.7942286340599498
31
0
0
LINE
5
304
100
AcDbEntity
8
0
100
AcDbLine
10
-2.6412806047934123
20
7.7942286340599498
30
0
11
-1.767949222233445
21
7.7942286340599498
31
0
0
LINE
5
305
100
AcDbEntity
8
0
100
AcDbLine
10
-5.4293597934082189
20
6.1845303566034717
30
0
11
-4.5000000596046448
21
7.7942286340599498
31
0
0
LINE
5
306
100
AcDbEntity
8
0
100
AcDbLine
10
-5.8660254633890831
20
5.4282032302755123
30
0
11
-5.4293597934082189
21
6.1845303566034717
31
0
0
LINE
5
307
100
AcDbEntity
8
0
100
AcDbLine
10
-6.3070072632958221
20
4.6644003476238689
30
0
11
-5.8660254633890831
21
5.4282032302755123
31
0
0
LINE
5
308
100
AcDbEntity
8
0
100
AcDbLine
10
-6.7500000596046466
20
3.8971143170299771
30
0
11
-6.3070072632958221
21
4.6644003476238689
31
0
0
LINE
5
309
100
AcDbEntity
8
0
100
AcDbLine
10
-7.1929928547255102
20
3.1298282884936897
30
0
11
-6.7500000596046466
21
3.8971143170299771
31
0
0
LINE
5
310
100
AcDbEntity
8
0
100
AcDbLine
10
-9.0000000596046466
20
4.4408920985006262e-15
30
0
11
-8.0706403256180188
21
1.6096982777735409
31
0
0
LINE
5
311
100
AcDbEntity
8
0
100
AcDbLine
10
-7.6339746552069618
20
2.3660254048466154
30
0
11
-7.1929928547255102
21
3.1298282884936897
31
0
0
LINE
5
312
100
AcDbEntity
8
0
100
AcDbLine
10
-8.0706403256180188
20
1.6096982777735409
30
0
11
-7.6339746552069618
21
2.3660254048466154
31
0
0
LINE
5
313
100
AcDbEntity
8
0
100
AcDbLine
10
-8.0706403271567435
20
-1.6096982751083797
30
0
11
-9.0000000596046466
21
4.4408920985006262e-15
31
0
0
LINE
5
314
100
AcDbEntity
8
0
100
AcDbLine
10
-7.6339746577879168
20
-2.3660254003762584
30
0
11
-8.0706403271567435
21
-1.6096982751083797
31
0
0
LINE
5
315
100
AcDbEntity
8
0
100
AcDbLine
10
-7.1929928580051499
20
-3.1298282828131789
30
0
11
-7.6339746577879168
21
-2.3660254003762584
31
0
0
LINE
5
316
100
AcDbEntity
8
0
100
AcDbLine
10
-6.7500000596046448
20
-3.8971143170299687
30
0
11
-7.1929928580051499
21
-3.1298282828131789
31
0
0
LINE
5
317
100
AcDbEntity
8
0
100
AcDbLine
10
-5.4293597934082189
20
-6.1845303566034628
30
0
11
-5.8660254633890831
21
-5.4282032302755034
31
0
0
LINE
5
318
100
AcDbEntity
8
0
100
AcDbLine
10
-6.3070072632958221
20
-4.66440034762386
30
0
11
-6.7500000596046448
21
-3.8971143170299687
31
0
0
LINE
5
319
100
AcDbEntity
8
0
100
AcDbLine
10
-5.8660254633890831
20
-5.4282032302755034
30
0
11
-6.3070072632958221
21
-4.66440034762386
31
0
0
LINE
5
320
100
AcDbEntity
8
0
100
AcDbLine
10
-4.500000059604643
20
-7.7942286340599418
30
0
11
-5.4293597934082189
21
-6.1845303566034628
31
0
0
LWPOLYLINE
5
321
100
AcDbEntity
8
0
100
AcDbPolyline
90
4
70
1
43
0.0
10
5.2679268754895308
20
-6.264140269214451
10
4.5531935786801503
20
-6.170043845580623
10
4.1154700240355959
20
-6.9282032818946426
10
4.4999999701976723
20
-7.5942286856790808
0
LINE
5
322
100
AcDbEntity
8
0
100
AcDbLine
10
-3.0000000596046434
20
-6.9282032302755026
30
0
11
-2.6412805919974924
21
-7.7942286340599418
31
0
0
LINE
5
323
100
AcDbEntity
8
0
100
AcDbLine
10
-3.0000000596046439
20
-6.9282032302755026
30
0
11
-2.0000000596046439
21
-6.9282032302755026
31
0
0
LINE
5
324
100
AcDbEntity
8
0
100
AcDbLine
10
-2.0000000596046439
20
-6.9282032302755026
30
0
11
-1.7679492520357658
21
-7.7942286340599427
31
0
0
LINE
5
325
100
AcDbEntity
8
0
100
AcDbLine
10
-1.7679492520357658
20
-7.7942286340599427
30
0
11
-2.6412805919974924
21
-7.7942286340599418
31
0
0
LWPOLYLINE
5
326
100
AcDbEntity
8
0
100
AcDbPolyline
90
4
70
1
43
0.0
10
5.3761660955187693
20
-6.0766644407521824
10
5.7142615649616078
20
-5.4910659098683361
10
5.0482361611771678
20
-5.3126049407856826
10
4.6614327987093898
20
-5.9825680171183535
0
LWPOLYLINE
5
327
100
AcDbEntity
8
0
100
AcDbPolyline
90
4
70
1
43
0.0
10
5.817789183002616
20
-5.3117508154347259
10
6.1633905606020303
20
-4.713151670266746
10
5.5427536874264769
20
-4.4560754600886012
10
5.1517637792181761
20
-5.1332898463520715
0
LWPOLYLINE
5
328
100
AcDbEntity
8
0
100
AcDbPolyline
90
4
70
1
43
0.0
10
6.6133974596215515
20
-3.9337168574084158
10
6.0366025403784409
20
-3.6007041555161972
10
5.6436165834844934
20
-4.2813757995175807
10
6.264253456660045
20
-4.5384520096957246
0
LWPOLYLINE
5
329
100
AcDbEntity
8
0
100
AcDbPolyline
90
4
70
1
43
0.0
10
6.5295884674700631
20
-2.7468274823770611
10
6.1366025403784406
20
-3.4274990747593099
10
6.713397459621552
20
-3.7605117766515281
10
7.062541432780737
20
-3.1557766759833559
0
LWPOLYLINE
5
330
100
AcDbEntity
8
0
100
AcDbPolyline
90
4
70
1
43
0.0
10
7.1634043288387517
20
-2.9810770154123345
10
6.6304513635280777
20
-2.5721278218060393
10
7.0214412717363803
20
-1.8949134355425694
10
7.509005706438165
20
-2.382477870244355
0
LWPOLYLINE
5
331
100
AcDbEntity
8
0
100
AcDbPolyline
90
4
70
1
43
0.0
10
7.6125333244791733
20
-2.2031627758107439
10
7.1249688897773886
20
-1.7155983411089584
10
7.5117722830689786
20
-1.0456352113878808
10
7.950628829666238
20
-1.617564183016085
0
LWPOLYLINE
5
332
100
AcDbEntity
8
0
100
AcDbPolyline
90
4
70
1
43
0.0
10
8.0588680491300462
20
-1.430088355533172
10
7.620011502532785
20
-0.85815938390496782
10
8.0577350567212829
20
-0.099999948380862791
10
8.826794949045432
20
-0.099999948380862791
0
LWPOLYLINE
5
333
100
AcDbEntity
8
0
100
AcDbPolyline
90
4
70
1
43
0.0
10
-2.7909411682640406
20
-7.6942286340599422
10
-3.0668179233965738
20
-7.0282032302755031
10
-3.9422650326856812
20
-7.0282032302755031
10
-4.3267949788477553
20
-7.6942286340599431
0
LWPOLYLINE
5
334
100
AcDbEntity
8
0
100
AcDbPolyline
90
4
70
1
43
0.0
10
-2.5744627282055621
20
-7.6942286340599422
10
-1.8982717893198866
20
-7.6942286340599439
10
-2.0767327584025397
20
-7.0282032302755013
10
-2.8503394833380953
20
-7.0282032302755031
0
LWPOLYLINE
5
335
100
AcDbEntity
8
0
100
AcDbPolyline
90
4
70
1
43
0.0
10
-1.69121655323787
20
-7.6942286340599431
10
-1.0000137980390433
20
-7.6942286340599431
10
-1.0876977059039197
20
-7.0282032302755031
10
-1.8696775223205229
20
-7.0282032302755031
0
LWPOLYLINE
5
336
100
AcDbEntity
8
0
100
AcDbPolyline
90
4
70
1
43
0.0
10
-0.79828800592301297
20
-7.6942286340599431
10
-0.099999999999998979
20
-7.6942286340599431
10
-0.10000000000000009
20
-7.0282032302755058
10
-0.88597191378788875
20
-7.0282032302755013
0
LWPOLYLINE
5
337
100
AcDbEntity
8
0
100
AcDbPolyline
90
4
70
1
43
0.0
10
0.10000000000000064
20
-7.6942286340599439
10
0.79828794631837008
20
-7.6942286340599431
10
0.88597185418324509
20
-7.0282032302755058
10
0.10000000000000009
20
-7.0282032302755049
0
LWPOLYLINE
5
338
100
AcDbEntity
8
0
100
AcDbPolyline
90
4
70
1
43
0.0
10
1.000013738434401
20
-7.6942286340599431
10
1.691216493633227
20
-7.6942286340599431
10
1.8696774627158796
20
-7.0282032302755066
10
1.0876976462992753
20
-7.0282032302755066
0
LWPOLYLINE
5
339
100
AcDbEntity
8
0
100
AcDbPolyline
90
4
70
1
43
0.0
10
1.898271729715244
20
-7.6942286340599431
10
2.5744627400893698
20
-7.6942286340599448
10
2.8503394853810726
20
-7.0282032302755058
10
2.0767326987978962
20
-7.0282032302755066
0
LWPOLYLINE
5
340
100
AcDbEntity
8
0
100
AcDbPolyline
90
4
70
1
43
0.0
10
2.7909411790169854
20
-7.6942286340599439
10
4.3267949788477562
20
-7.6942286340599439
10
3.942265032685683
20
-7.0282032302755058
10
3.0668179243086877
20
-7.0282032302755049
0
LWPOLYLINE
5
341
100
AcDbEntity
8
0
100
AcDbPolyline
90
4
70
1
43
0.0
10
-7.0625414625830585
20
-3.1557766243642211
10
-6.5295884972723828
20
-2.7468274307579232
10
-6.1366025403784406
20
-3.427499074759309
10
-6.7133974596215502
20
-3.7605117766515295
0
LWPOLYLINE
5
342
100
AcDbEntity
8
0
100
AcDbPolyline
90
4
70
1
43
0.0
10
-6.6133974596215515
20
-3.9337168574084158
10
-6.2642534864623656
20
-4.538451958076589
10
-5.6436166132868184
20
-4.2813757478984469
10
-6.0366025403784409
20
-3.6007041555161976
0
LWPOLYLINE
5
343
100
AcDbEntity
8
0
100
AcDbPolyline
90
4
70
1
43
0.0
10
-6.1633905904043518
20
-4.7131516186476112
10
-5.8177892128049375
20
-5.3117507638155894
10
-5.1517638090205011
20
-5.1332897947329386
10
-5.5427537172288037
20
-4.4560754084694674
0
LWPOLYLINE
5
344
100
AcDbEntity
8
0
100
AcDbPolyline
90
4
70
1
43
0.0
10
-5.714261594763931
20
-5.4910658582492022
10
-5.376166089576869
20
-6.0766644510438628
10
-4.6614327976879046
20
-5.9825680188876262
10
-5.0482361909794928
20
-5.3126048891665487
0
LWPOLYLINE
5
345
100
AcDbEntity
8
0
100
AcDbPolyline
90
4
70
1
43
0.0
10
-5.2679268701130599
20
-6.2641402785267744
10
-4.4999999701976732
20
-7.5942286856790826
10
-4.1154700240355995
20
-6.9282032818946444
10
-4.5531935782240964
20
-6.1700438463705387
0
LWPOLYLINE
5
346
100
AcDbEntity
8
0
100
AcDbPolyline
90
4
70
1
43
0.0
10
-7.5090057362404883
20
-2.3824778186252198
10
-7.0214413015386974
20
-1.8949133839234316
10
-6.6304513933303975
20
-2.5721277701869023
10
-7.1634043586410723
20
-2.9810769637931989
0
LWPOLYLINE
5
347
100
AcDbEntity
8
0
100
AcDbPolyline
90
4
70
1
43
0.0
10
-7.6125333542814966
20
-2.2031627241916096
10
-7.1249689195797075
20
-1.715598289489821
10
-7.5117722820474864
20
-1.04563521315715
10
-7.9506288237243314
20
-1.6175641933077634
0
LWPOLYLINE
5
348
100
AcDbEntity
8
0
100
AcDbPolyline
90
4
70
1
43
0.0
10
-8.0577977211270628
20
-1.4319422180150976
10
-7.618941179450216
20
-0.86001323786448369
10
-8.0577350567212775
20
-0.099999948380862236
10
-8.8267949490454285
20
-0.099999948380863346
0
LWPOLYLINE
5
349
100
AcDbEntity
8
0
100
AcDbPolyline
90
4
70
1
43
0.0
10
-4.4999999701976758
20
7.5942286856790799
10
-4.1154700240356004
20
6.9282032818946409
10
-4.5531935786801538
20
6.1700438455806221
10
-5.2679268754895325
20
6.2641402692144492
0
LWPOLYLINE
5
350
100
AcDbEntity
8
0
100
AcDbPolyline
90
4
70
1
43
0.0
10
-5.3761660955187729
20
6.0766644407521797
10
-4.6614327987093933
20
5.9825680171183526
10
-5.0482361611771687
20
5.3126049407856799
10
-5.7142615649616113
20
5.4910659098683343
0
LWPOLYLINE
5
351
100
AcDbEntity
8
0
100
AcDbPolyline
90
4
70
1
43
0.0
10
-5.8177891830026187
20
5.3117508154347242
10
-6.1633905606020312
20
4.7131516702667424
10
-5.5427536874264804
20
4.4560754600885994
10
-5.1517637792181787
20
5.1332898463520689
0
LWPOLYLINE
5
352
100
AcDbEntity
8
0
100
AcDbPolyline
90
4
70
1
43
0.0
10
-6.2642534566600458
20
4.538452009695721
10
-5.6436165834844942
20
4.2813757995175772
10
-6.0366025403784418
20
3.6007041555161949
10
-6.6133974596215541
20
3.9337168574084131
0
LWPOLYLINE
5
353
100
AcDbEntity
8
0
100
AcDbPolyline
90
4
70
1
43
0.0
10
-6.7133974596215538
20
3.7605117766515264
10
-6.1366025403784423
20
3.4274990747593073
10
-6.5295884674700648
20
2.7468274823770589
10
-7.0625414327807379
20
3.1557766759833528
0
LWPOLYLINE
5
354
100
AcDbEntity
8
0
100
AcDbPolyline
90
4
70
1
43
0.0
10
-7.1634043288387526
20
2.9810770154123318
10
-6.6304513635280804
20
2.5721278218060384
10
-7.021441271736383
20
1.894913435542567
10
-7.509005706438165
20
2.3824778702443519
0
LWPOLYLINE
5
355
100
AcDbEntity
8
0
100
AcDbPolyline
90
4
70
1
43
0.0
10
-7.6125333244791751
20
2.2031627758107404
10
-7.1249688897773913
20
1.7155983411089566
10
-7.5117722830689786
20
1.0456352113878784
10
-7.9506288296662397
20
1.6175641830160816
0
LWPOLYLINE
5
356
100
AcDbEntity
8
0
100
AcDbPolyline
90
4
70
1
43
0.0
10
-7.620011502532785
20
0.85815938390496505
10
-8.0577350567212829
20
0.099999948380858905
10
-8.826794949045432
20
0.09999994838085946
10
-8.0588680491300462
20
1.430088355533168
0
LWPOLYLINE
5
357
100
AcDbEntity
8
0
100
AcDbPolyline
90
4
70
1
43
0.0
10
7.9506288237243314
20
1.6175641933077645
10
7.6125333542814966
20
2.2031627241916105
10
7.1249689195797075
20
1.7155982894898216
10
7.5117722820474864
20
1.0456352131571509
0
LWPOLYLINE
5
358
100
AcDbEntity
8
0
100
AcDbPolyline
90
4
70
1
43
0.0
10
7.5090057362404883
20
2.3824778186252207
10
7.0214413015386974
20
1.8949133839234324
10
6.6304513933303975
20
2.5721277701869028
10
7.1634043586410723
20
2.9810769637931998
0
LWPOLYLINE
5
359
100
AcDbEntity
8
0
100
AcDbPolyline
90
4
70
1
43
0.0
10
7.0625414625830585
20
3.155776624364222
10
6.5295884972723828
20
2.7468274307579237
10
6.1366025403784406
20
3.4274990747593099
10
6.7133974596215502
20
3.7605117766515299
0
LWPOLYLINE
5
360
100
AcDbEntity
8
0
100
AcDbPolyline
90
4
70
1
43
0.0
10
6.6133974596215515
20
3.9337168574084163
10
6.2642534864623647
20
4.5384519580765899
10
5.6436166132868184
20
4.2813757478984478
10
6.0366025403784409
20
3.6007041555161985
0
LWPOLYLINE
5
361
100
AcDbEntity
8
0
100
AcDbPolyline
90
4
70
1
43
0.0
10
6.1633905904043509
20
4.7131516186476112
10
5.8177892128049367
20
5.3117507638155903
10
5.1517638090204994
20
5.1332897947329394
10
5.5427537172288037
20
4.4560754084694683
0
LWPOLYLINE
5
362
100
AcDbEntity
8
0
100
AcDbPolyline
90
4
70
1
43
0.0
10
5.7142615947639293
20
5.4910658582492031
10
5.3761660895768681
20
6.0766644510438637
10
4.6614327976879038
20
5.9825680188876271
10
5.0482361909794911
20
5.3126048891665505
0
LWPOLYLINE
5
363
100
AcDbEntity
8
0
100
AcDbPolyline
90
4
70
1
43
0.0
10
5.267926870113059
20
6.2641402785267752
10
4.4999999701976714
20
7.5942286856790826
10
4.1154700240355986
20
6.9282032818946444
10
4.5531935782240964
20
6.1700438463705396
0
LWPOLYLINE
5
364
100
AcDbEntity
8
0
100
AcDbPolyline
90
4
70
1
43
0.0
10
4.3267949788477544
20
7.6942286340599431
10
3.9422650326856798
20
7.0282032302755031
10
3.0668179233965724
20
7.0282032302755031
10
2.7909411682640393
20
7.6942286340599422
0
LWPOLYLINE
5
365
100
AcDbEntity
8
0
100
AcDbPolyline
90
4
70
1
43
0.0
10
2.5744627282055612
20
7.6942286340599422
10
1.8982717893198857
20
7.6942286340599439
10
2.0767327584025388
20
7.0282032302755013
10
2.8503394833380939
20
7.0282032302755031
0
LWPOLYLINE
5
366
100
AcDbEntity
8
0
100
AcDbPolyline
90
4
70
1
43
0.0
10
1.6912165532378691
20
7.6942286340599431
10
1.0000137980390424
20
7.6942286340599431
10
1.0876977059039188
20
7.0282032302755031
10
1.869677522320522
20
7.0282032302755031
0
LWPOLYLINE
5
367
100
AcDbEntity
8
0
100
AcDbPolyline
90
4
70
1
43
0.0
10
0.79828800592301197
20
7.6942286340599431
10
0.099999999999998035
20
7.6942286340599431
10
0.099999999999999256
20
7.0282032302755058
10
0.88597191378788798
20
7.0282032302755013
0
LWPOLYLINE
5
368
100
AcDbEntity
8
0
100
AcDbPolyline
90
4
70
1
43
0.0
10
-0.10000000000000162
20
7.6942286340599439
10
-0.79828794631837108
20
7.6942286340599431
10
-0.88597185418324598
20
7.0282032302755058
10
-0.10000000000000095
20
7.0282032302755049
0
LWPOLYLINE
5
369
100
AcDbEntity
8
0
100
AcDbPolyline
90
4
70
1
43
0.0
10
-1.0000137384344019
20
7.6942286340599431
10
-1.6912164936332277
20
7.6942286340599431
10
-1.8696774627158805
20
7.0282032302755066
10
-1.0876976462992762
20
7.0282032302755066
0
LWPOLYLINE
5
370
100
AcDbEntity
8
0
100
AcDbPolyline
90
4
70
1
43
0.0
10
-1.8982717297152449
20
7.6942286340599431
10
-2.5744627400893711
20
7.6942286340599448
10
-2.850339485381074
20
7.0282032302755058
10
-2.0767326987978971
20
7.0282032302755066
0
LWPOLYLINE
5
371
100
AcDbEntity
8
0
100
AcDbPolyline
90
4
70
1
43
0.0
10
-2.7909411790169862
20
7.6942286340599439
10
-4.326794978847758
20
7.6942286340599439
10
-3.9422650326856838
20
7.0282032302755058
10
-3.066817924308689
20
7.0282032302755049
0
LWPOLYLINE
5
372
100
AcDbEntity
8
0
100
AcDbPolyline
90
4
70
1
43
0.0
10
8.8267949490454303
20
0.099999948380860015
10
8.0588680437535736
20
1.4300883648454901
10
7.6200115020767258
20
0.85815938469487762
10
8.0577350567212793
20
0.099999948380858905
0
LINE
5
373
100
AcDbEntity
8
0
100
AcDbLine
10
-4.500000059604643
20
-7.7942286340599418
30
0
11
-4.500000059604643
21
-8.7942286340599409
31
0
0
LINE
5
374
100
AcDbEntity
8
0
100
AcDbLine
10
-4.500000059604643
20
-7.7942286340599418
30
0
11
-5.3660254633890823
21
-8.2942286340599427
31
0
0
LINE
5
375
100
AcDbEntity
8
0
100
AcDbLine
10
4.5000000596046448
20
-7.7942286340599445
30
0
11
4.5000000596046448
21
-8.7942286340599445
31
0
0
LINE
5
376
100
AcDbEntity
8
0
100
AcDbLine
10
4.5000000596046448
20
-7.7942286340599445
30
0
11
5.366025463389084
21
-8.2942286340599445
31
0
0
LINE
5
377
100
AcDbEntity
8
0
100
AcDbLine
10
9.0000000596046466
20
9.7144514654701197e-16
30
0
11
9.8660254633890858
21
-0.49999999999999928
31
0
0
LINE
5
378
100
AcDbEntity
8
0
100
AcDbLine
10
9.0000000596046466
20
9.7144514654701197e-16
30
0
11
9.8660254633890858
21
0.50000000000000044
31
0
0
LINE
5
379
100
AcDbEntity
8
0
100
AcDbLine
10
4.5000000596046528
20
7.7942286340599498
30
0
11
4.5000000596046528
21
8.7942286340599498
31
0
0
LINE
5
380
100
AcDbEntity
8
0
100
AcDbLine
10
-4.5000000596046448
20
7.7942286340599498
30
0
11
-4.5000000596046448
21
8.7942286340599498
31
0
0
LINE
5
381
100
AcDbEntity
8
0
100
AcDbLine
10
-9.0000000596046466
20
4.4408920985006262e-15
30
0
11
-9.8660254633890858
21
0.50000000000000511
31
0
0
LINE
5
382
100
AcDbEntity
8
0
100
AcDbLine
10
-4.5000000596046448
20
7.7942286340599498
30
0
11
-5.366025463389084
21
8.2942286340599498
31
0
0
LINE
5
383
100
AcDbEntity
8
0
100
AcDbLine
10
4.5000000596046528
20
7.7942286340599498
30
0
11
5.3660254633890911
21
8.2942286340599498
31
0
0
LINE
5
384
100
AcDbEntity
8
0
100
AcDbLine
10
-9.0000000596046466
20
4.4408920985006262e-15
30
0
11
-9.8660254633890858
21
-0.49999999999999595
31
0
0
LINE
5
385
100
AcDbEntity
8
0
100
AcDbLine
10
-4.500000059604643
20
-8.7942286340599409
30
0
11
4.5000000596046448
21
-8.7942286340599445
31
0
0
LINE
5
386
100
AcDbEntity
8
0
100
AcDbLine
10
5.366025463389084
20
-8.2942286340599445
30
0
11
9.8660254633890858
21
-0.49999999999999928
31
0
0
LINE
5
387
100
AcDbEntity
8
0
100
AcDbLine
10
5.3660254633890911
20
8.2942286340599498
30
0
11
9.8660254633890858
21
0.50000000000000044
31
0
0
LINE
5
388
100
AcDbEntity
8
0
100
AcDbLine
10
4.5000000596046528
20
8.7942286340599498
30
0
11
-4.5000000596046448
21
8.7942286340599498
31
0
0
LINE
5
389
100
AcDbEntity
8
0
100
AcDbLine
10
-5.366025463389084
20
8.2942286340599498
30
0
11
-9.8660254633890858
21
0.50000000000000511
31
0
0
LINE
5
390
100
AcDbEntity
8
0
100
AcDbLine
10
-9.8660254633890858
20
-0.49999999999999595
30
0
11
-5.3660254633890823
21
-8.2942286340599427
31
0
0
LINE
5
391
100
AcDbEntity
8
0
100
AcDbLine
10
-4.500000059604643
20
-8.7942286340599409
30
0
11
-8.5000000596046412
21
-15.722431864335453
31
0
0
LINE
5
392
100
AcDbEntity
8
0
100
AcDbLine
10
-4.500000059604643
20
-8.7942286340599409
30
0
11
3.4999999403953588
21
-8.7942286340599409
31
0
0
LINE
5
393
100
AcDbEntity
8
0
100
AcDbLine
10
-8.5000000596046412
20
-15.722431864335453
30
0
11
-4.5000000596046386
21
-22.650635094610962
31
0
0
LINE
5
394
100
AcDbEntity
8
0
100
AcDbLine
10
-4.5000000596046386
20
-22.650635094610962
30
0
11
3.4999999403953619
21
-22.650635094610962
31
0
0
LINE
5
395
100
AcDbEntity
8
0
100
AcDbLine
10
3.4999999403953619
20
-22.650635094610962
30
0
11
7.4999999403953606
21
-15.722431864335448
31
0
0
LINE
5
396
100
AcDbEntity
8
0
100
AcDbLine
10
7.4999999403953606
20
-15.722431864335448
30
0
11
4.5000000596046448
21
-8.7942286340599445
31
0
0
ENDSEC
0
SECTION
2
OBJECTS
0
DICTIONARY
5
C
100
AcDbDictionary
3
ACAD_GROUP
350
D
3
ACAD_MLINESTYLE
350
17
0
DICTIONARY
5
D
100
AcDbDictionary
0
DICTIONARY
5
1A
330
C
100
AcDbDictionary
0
DICTIONARY
5
17
100
AcDbDictionary
0
ENDSEC
0
EOF
