# Blender v2.83.5 OBJ File: 'Board2.blend'
# www.blender.org
mtllib Board.mtl
o Plane
v 0.000000 0.000000 6.927000
v 4.736293 0.000000 2.734500
v 0.000000 0.000000 0.000000
v 0.000000 0.000000 3.856000
v 0.000000 0.000000 2.052000
v 0.000000 0.000000 5.469000
v 1.777084 0.000000 1.026000
v 3.339394 0.000000 1.928000
v 5.998958 0.000000 3.463500
v 4.736293 0.000000 -2.734500
v 1.777084 0.000000 -1.026000
v 3.339394 0.000000 -1.928000
v 5.998958 0.000000 -3.463501
v -0.000000 0.000000 -5.469000
v -0.000000 0.000000 -2.052000
v -0.000001 0.000000 -3.856000
v -0.000001 0.000000 -6.927000
v -4.736293 0.000000 -2.734499
v -1.777084 0.000000 -1.026000
v -3.339394 0.000000 -1.927999
v -5.998959 0.000000 -3.463499
v -4.736292 0.000000 2.734501
v -1.777084 0.000000 1.026000
v -3.339394 0.000000 1.928001
v -5.998958 0.000000 3.463501
v 4.000000 0.000000 6.927000
v -4.000000 0.000000 6.927000
v 8.000000 0.000000 0.000000
v 3.999999 0.000000 -6.927000
v -4.000001 0.000000 -6.927000
v -8.000000 0.000000 0.000000
v 2.000000 0.000000 6.927000
v -2.000000 0.000000 6.927000
v 1.000000 0.000000 6.927000
v -3.000000 0.000000 6.927000
v 3.000000 0.000000 6.927000
v -1.000000 0.000000 6.927000
v 4.999479 0.000000 5.195250
v 6.999479 0.000000 1.731750
v 4.499740 0.000000 6.061125
v 7.499740 0.000000 0.865875
v 5.499219 0.000000 4.329375
v 6.499219 0.000000 2.597625
v 6.999479 0.000000 -1.731750
v 4.999478 0.000000 -5.195251
v 7.499740 0.000000 -0.865875
v 4.499739 0.000000 -6.061125
v 6.499218 0.000000 -2.597625
v 5.499218 0.000000 -4.329376
v 1.999999 0.000000 -6.927000
v -2.000001 0.000000 -6.927000
v 0.999999 0.000000 -6.927000
v -3.000001 0.000000 -6.927000
v 2.999999 0.000000 -6.927000
v -1.000001 0.000000 -6.927000
v -4.999480 0.000000 -5.195250
v -6.999479 0.000000 -1.731750
v -4.499741 0.000000 -6.061125
v -7.499740 0.000000 -0.865875
v -5.499219 0.000000 -4.329374
v -6.499219 0.000000 -2.597624
v -6.999479 0.000000 1.731751
v -4.999479 0.000000 5.195251
v -7.499740 0.000000 0.865875
v -4.499740 0.000000 6.061125
v -6.499218 0.000000 2.597626
v -5.499218 0.000000 4.329376
v -1.171695 0.000000 5.623185
v -2.309228 0.000000 5.772874
v -3.417571 0.000000 5.918722
v -1.356556 0.000000 4.219392
v -2.633785 0.000000 4.561533
v -3.845242 0.000000 4.886056
v -1.557059 0.000000 2.696821
v -2.975963 0.000000 3.284428
v -4.284175 0.000000 3.826194
v -3.114118 0.000000 0.000001
v -4.332520 0.000000 0.934966
v -5.455871 0.000000 1.796992
v -4.332520 0.000000 -0.934964
v -5.267570 0.000000 0.000001
v -6.154469 0.000000 0.886819
v -5.455872 0.000000 -1.796991
v -6.154470 0.000000 -0.886818
v -6.835142 0.000000 0.000000
v -4.284176 0.000000 -3.826193
v -3.845243 0.000000 -4.886055
v -3.417572 0.000000 -5.918721
v -1.557059 0.000000 -2.696820
v -1.356557 0.000000 -4.219391
v -1.171696 0.000000 -5.623185
v -2.975964 0.000000 -3.284426
v -2.633786 0.000000 -4.561533
v -2.309229 0.000000 -5.772873
v 1.171696 0.000000 5.623184
v 2.309228 0.000000 5.772873
v 3.417572 0.000000 5.918721
v 1.356557 0.000000 4.219391
v 2.633785 0.000000 4.561533
v 3.845242 0.000000 4.886055
v 1.557059 0.000000 2.696820
v 2.975963 0.000000 3.284427
v 4.284176 0.000000 3.826193
v 2.975963 0.000000 -3.284427
v 2.633785 0.000000 -4.561533
v 2.309227 0.000000 -5.772873
v 1.557059 0.000000 -2.696820
v 1.356556 0.000000 -4.219391
v 1.171695 0.000000 -5.623184
v 4.284176 0.000000 -3.826194
v 3.845242 0.000000 -4.886056
v 3.417570 0.000000 -5.918722
v 3.114118 0.000000 -0.000000
v 4.332520 0.000000 0.934965
v 5.455872 0.000000 1.796992
v 4.332520 0.000000 -0.934966
v 5.267570 0.000000 -0.000000
v 6.154470 0.000000 0.886818
v 5.455872 0.000000 -1.796992
v 6.154470 0.000000 -0.886819
v 6.835142 0.000000 -0.000001
v 0.000000 -1.000000 7.727000
v -0.000001 -1.000000 -7.727000
v 4.461185 -1.000000 -7.727000
v 6.691779 -1.000000 3.863500
v 8.922371 -1.000000 0.000000
v 4.461185 -1.000000 7.727000
v -4.461184 -1.000000 7.727001
v 6.691778 -1.000000 -3.863500
v -6.691779 -1.000000 -3.863499
v -4.461186 -1.000000 -7.726999
v -6.691778 -1.000000 3.863502
v -8.922371 -1.000000 0.000001
v 0.000000 0.125171 6.927000
v -4.000000 0.125171 6.927000
v 4.000000 0.125171 6.927000
v 8.000000 0.125171 0.000000
v -0.000001 0.125171 -6.927000
v -4.000001 0.125171 -6.927000
v 3.999999 0.125171 -6.927000
v -8.000000 0.125171 0.000000
v 5.998958 0.125171 3.463500
v 5.998958 0.125171 -3.463501
v -5.998959 0.125171 -3.463499
v -5.998958 0.125171 3.463501
v 0.000000 0.125171 7.727000
v -0.000001 0.125171 -7.727000
v 4.461185 0.125171 -7.727000
v 6.691779 0.125171 3.863500
v 8.922371 0.125171 0.000000
v 4.461185 0.125171 7.727000
v -4.461184 0.125171 7.727001
v 6.691778 0.125171 -3.863500
v -6.691779 0.125171 -3.863499
v -4.461186 0.125171 -7.726999
v -6.691778 0.125171 3.863502
v -8.922371 0.125171 0.000001
vt 0.079131 0.895421
vt 0.042422 0.616665
vt 0.302187 0.724252
vt 0.302187 0.955162
vt 0.643288 0.745318
vt 0.914971 0.688526
vt 0.866879 0.943320
vt 0.631267 0.961056
vt 0.870193 0.728249
vt 0.914382 0.939737
vt 0.678762 0.957474
vt 0.593069 0.712760
vt 0.278928 0.700428
vt 0.278928 0.881603
vt 0.070303 0.909048
vt 0.097768 0.700419
vt 0.662950 0.751200
vt 0.835742 0.715087
vt 0.880288 0.928330
vt 0.677425 0.943602
vt 0.284764 0.871635
vt 0.065642 0.900469
vt 0.090757 0.709688
vt 0.284764 0.709707
vt 0.855397 0.943984
vt 0.674084 0.957633
vt 0.657710 0.740403
vt 0.869213 0.696200
vt 0.108483 0.888959
vt 0.086063 0.718598
vt 0.265690 0.694967
vt 0.265690 0.888974
vt 0.678715 0.761106
vt 0.847047 0.725932
vt 0.861522 0.918349
vt 0.669122 0.932833
vt 0.120202 0.737595
vt 0.252521 0.702152
vt 0.252521 0.865881
vt 0.100682 0.885871
vt 0.879046 0.902192
vt 0.711587 0.914798
vt 0.656077 0.756332
vt 0.809694 0.764898
vt 0.120184 0.858137
vt 0.100673 0.709883
vt 0.252535 0.729883
vt 0.252535 0.893597
vt 0.672965 0.770944
vt 0.852911 0.733344
vt 0.866145 0.909372
vt 0.664384 0.924560
vt 0.276087 0.723484
vt 0.276087 0.860503
vt 0.097439 0.884028
vt 0.076313 0.723484
vt 0.824141 0.713486
vt 0.870020 0.933066
vt 0.688707 0.946715
vt 0.673537 0.744953
vt 0.118899 0.721193
vt 0.254745 0.703304
vt 0.254745 0.883494
vt 0.097538 0.883509
vt 0.826410 0.760840
vt 0.877272 0.906045
vt 0.693959 0.919845
vt 0.658764 0.751489
vt 0.104794 0.707173
vt 0.249231 0.745875
vt 0.249231 0.895431
vt 0.122670 0.843021
vt 0.691440 0.771021
vt 0.855821 0.736666
vt 0.846236 0.908366
vt 0.662908 0.922167
vt 0.110546 0.726957
vt 0.262408 0.706958
vt 0.262408 0.878788
vt 0.090564 0.878797
vt 0.655948 0.760513
vt 0.844828 0.721038
vt 0.886434 0.920158
vt 0.669195 0.936512
vt 0.118918 0.874571
vt 0.097548 0.712243
vt 0.254730 0.712245
vt 0.254730 0.892441
vt 0.686644 0.723841
vt 0.840221 0.732400
vt 0.855413 0.934166
vt 0.674128 0.947813
vt 0.107746 0.694591
vt 0.269649 0.694593
vt 0.269649 0.888606
vt 0.078882 0.913710
vt 0.094158 0.696552
vt 0.284941 0.671454
vt 0.284941 0.881876
vt 0.061886 0.941618
vt 0.663203 0.951881
vt 0.647923 0.749035
vt 0.879212 0.700696
vt 0.866067 0.936609
vt 0.108498 0.706779
vt 0.265680 0.706777
vt 0.265680 0.900790
vt 0.086069 0.877154
vt 0.844705 0.758036
vt 0.876162 0.908601
vt 0.674395 0.923790
vt 0.661143 0.747792
vt 0.077983 0.736490
vt 0.276046 0.710402
vt 0.276046 0.872305
vt 0.095851 0.872302
vt 0.864697 0.711729
vt 0.950392 0.956451
vt 0.691839 0.975915
vt 0.549476 0.694123
vt 0.302187 0.724250
vt 0.302187 0.955172
vt 0.079130 0.895417
vt 0.678769 0.957482
vt 0.593059 0.712759
vt 0.870183 0.728235
vt 0.914393 0.939744
vt 0.094169 0.899197
vt 0.061887 0.654131
vt 0.284936 0.713872
vt 0.284936 0.924300
vt 0.873126 0.925629
vt 0.655887 0.941983
vt 0.642237 0.760698
vt 0.885154 0.709909
vt 0.107729 0.694600
vt 0.269661 0.694582
vt 0.269661 0.888598
vt 0.078875 0.913720
vt 0.871490 0.745837
vt 0.861683 0.922093
vt 0.669261 0.936579
vt 0.653970 0.733711
vt 0.278935 0.895337
vt 0.097754 0.895320
vt 0.070303 0.686686
vt 0.278935 0.714157
vt 0.866875 0.943321
vt 0.631251 0.961058
vt 0.643298 0.745315
vt 0.914981 0.688525
vt 0.269661 0.707152
vt 0.269661 0.901168
vt 0.107729 0.901150
vt 0.078875 0.682030
vt 0.873534 0.743286
vt 0.887179 0.924571
vt 0.669940 0.940925
vt 0.625751 0.729437
vt 0.284936 0.671450
vt 0.284936 0.881879
vt 0.061887 0.941619
vt 0.094169 0.696554
vt 0.598159 0.982968
vt 0.646251 0.728174
vt 0.955283 0.663574
vt 0.856712 0.963504
vt 0.079131 0.700329
vt 0.302187 0.640588
vt 0.302187 0.871498
vt 0.042422 0.979085
vt 0.856714 0.963504
vt 0.598148 0.982969
vt 0.646255 0.728173
vt 0.284943 0.713877
vt 0.284943 0.924310
vt 0.094156 0.899189
vt 0.061886 0.654122
vt 0.873118 0.925644
vt 0.655876 0.941997
vt 0.642246 0.760678
vt 0.885165 0.709900
vt 0.255928 0.703318
vt 0.255928 0.883517
vt 0.120076 0.901364
vt 0.093995 0.703301
vt 0.876153 0.908621
vt 0.674383 0.923810
vt 0.661151 0.747777
vt 0.844718 0.758011
vt 0.265744 0.878681
vt 0.109874 0.899173
vt 0.084564 0.706815
vt 0.265744 0.706831
vt 0.663186 0.951889
vt 0.647933 0.749018
vt 0.879229 0.700694
vt 0.866056 0.936617
vt 0.284943 0.881872
vt 0.061886 0.941627
vt 0.094156 0.696561
vt 0.284943 0.671439
vt 0.669950 0.940938
vt 0.625740 0.729430
vt 0.873523 0.743268
vt 0.887192 0.924584
vt 0.107746 0.901159
vt 0.078882 0.682041
vt 0.269649 0.707144
vt 0.269649 0.901156
vt 0.631262 0.961050
vt 0.643290 0.745330
vt 0.914972 0.688527
vt 0.866880 0.943313
vt 0.278933 0.881594
vt 0.070303 0.909048
vt 0.097758 0.700425
vt 0.278933 0.700434
vt 0.678765 0.957481
vt 0.593070 0.712758
vt 0.870194 0.728237
vt 0.914377 0.939744
vt 0.090757 0.886061
vt 0.065642 0.695280
vt 0.284764 0.724115
vt 0.284764 0.886043
vt 0.642230 0.760682
vt 0.885149 0.709903
vt 0.873128 0.925641
vt 0.655897 0.941994
vt 0.284941 0.924296
vt 0.094158 0.899198
vt 0.061886 0.654132
vt 0.284941 0.713874
vt 0.647928 0.749023
vt 0.879211 0.700696
vt 0.866056 0.936615
vt 0.663210 0.951886
vt 0.086069 0.718596
vt 0.265680 0.694960
vt 0.265680 0.888973
vt 0.108498 0.888971
vt 0.852909 0.733356
vt 0.866156 0.909355
vt 0.664389 0.924543
vt 0.672950 0.770966
vt 0.276046 0.723445
vt 0.276046 0.885348
vt 0.077983 0.859260
vt 0.095851 0.723447
vt 0.643047 0.774522
vt 0.862623 0.728623
vt 0.876253 0.909943
vt 0.674482 0.925132
vt 0.086917 0.724619
vt 0.267115 0.724600
vt 0.267115 0.881811
vt 0.104779 0.860469
vt 0.680724 0.935716
vt 0.644640 0.762914
vt 0.857893 0.718359
vt 0.873146 0.921230
vt 0.262412 0.706962
vt 0.262412 0.878812
vt 0.090561 0.878797
vt 0.110541 0.726928
vt 0.855810 0.736652
vt 0.846255 0.908386
vt 0.662921 0.922188
vt 0.691421 0.770995
vt 0.104779 0.735281
vt 0.267115 0.713939
vt 0.267115 0.871150
vt 0.086917 0.871130
vt 0.664500 0.925884
vt 0.650831 0.744567
vt 0.874803 0.757075
vt 0.866271 0.910694
vt 0.249253 0.895417
vt 0.122641 0.843037
vt 0.104779 0.707188
vt 0.249253 0.745857
vt 0.826447 0.760830
vt 0.877261 0.906052
vt 0.693927 0.919853
vt 0.658769 0.751485
vt 0.252521 0.893597
vt 0.120202 0.858154
vt 0.100682 0.709878
vt 0.252521 0.729869
vt 0.678700 0.761122
vt 0.847058 0.725936
vt 0.861532 0.918338
vt 0.669115 0.932823
vt 0.100696 0.882130
vt 0.080177 0.726268
vt 0.272527 0.700964
vt 0.272527 0.882138
vt 0.674408 0.923806
vt 0.661140 0.747780
vt 0.844687 0.758017
vt 0.876169 0.908617
vt 0.252535 0.702152
vt 0.252535 0.865867
vt 0.100673 0.885867
vt 0.120184 0.737613
vt 0.708593 0.772509
vt 0.859197 0.741042
vt 0.828037 0.906032
vt 0.660577 0.918638
vt 0.276046 0.872328
vt 0.095856 0.872310
vt 0.077980 0.736462
vt 0.276046 0.710399
vt 0.686613 0.723839
vt 0.840230 0.732404
vt 0.855438 0.934164
vt 0.674124 0.947813
vt 0.254745 0.892446
vt 0.118899 0.874557
vt 0.097538 0.712241
vt 0.254745 0.712256
vt 0.655960 0.760495
vt 0.844826 0.721031
vt 0.886426 0.920170
vt 0.669194 0.936523
vt 0.090568 0.878806
vt 0.110561 0.726943
vt 0.262399 0.706953
vt 0.262399 0.878798
vt 0.859950 0.745156
vt 0.873202 0.921154
vt 0.655964 0.937508
vt 0.667289 0.734403
vt 0.097548 0.883507
vt 0.118917 0.721179
vt 0.254730 0.703309
vt 0.254730 0.883505
vt 0.688732 0.946714
vt 0.673545 0.744947
vt 0.824111 0.713492
vt 0.870017 0.933067
vt 0.120076 0.694386
vt 0.255928 0.712233
vt 0.255928 0.892432
vt 0.093995 0.892450
vt 0.664401 0.924562
vt 0.672933 0.770943
vt 0.852900 0.733343
vt 0.866171 0.909372
vt 0.265744 0.717069
vt 0.265744 0.888919
vt 0.084564 0.888936
vt 0.109874 0.696577
vt 0.665829 0.739571
vt 0.837561 0.749142
vt 0.872719 0.917510
vt 0.680296 0.931996
vt 0.100670 0.885862
vt 0.120178 0.737580
vt 0.252540 0.702163
vt 0.252540 0.865896
vt 0.859179 0.741026
vt 0.828059 0.906055
vt 0.660595 0.918662
vt 0.708572 0.772477
vt 0.120178 0.858170
vt 0.100670 0.709888
vt 0.252540 0.729854
vt 0.252540 0.893588
vt 0.877271 0.906030
vt 0.693942 0.919831
vt 0.658760 0.751500
vt 0.826432 0.760859
vt 0.249231 0.700319
vt 0.249231 0.849875
vt 0.104794 0.888577
vt 0.122670 0.752729
vt 0.691459 0.770999
vt 0.855816 0.736655
vt 0.846222 0.908383
vt 0.662909 0.922183
vt 0.733724 0.007705
vt 0.733723 0.151822
vt 0.733723 0.295944
vt 0.733723 0.440063
vt 0.733723 0.584182
vt 0.798316 0.584181
vt 0.798316 0.007705
vt 0.733724 0.007705
vt 0.733723 0.151822
vt 0.733723 0.295944
vt 0.733723 0.440063
vt 0.733723 0.584181
vt 0.798316 0.584181
vt 0.798315 0.007705
vt 0.562423 0.291826
vt 0.661506 0.349031
vt 0.661506 0.463442
vt 0.661506 0.577854
vt 0.562423 0.635059
vt 0.463340 0.692265
vt 0.364257 0.635059
vt 0.265174 0.577854
vt 0.265174 0.463442
vt 0.265174 0.349031
vt 0.364257 0.291826
vt 0.463340 0.234620
vt 0.588004 0.047600
vt 0.588004 0.180252
vt 0.062056 0.180252
vt 0.062056 0.047600
vt 0.062056 0.180252
vt 0.062056 0.047600
vt 0.588004 0.047600
vt 0.588004 0.180252
vt 0.062056 0.180252
vt 0.062055 0.047600
vt 0.588004 0.047600
vt 0.588004 0.180251
vt 0.588004 0.047600
vt 0.588004 0.180252
vt 0.062056 0.180252
vt 0.062056 0.047600
vt 0.062056 0.180252
vt 0.062056 0.047600
vt 0.588004 0.047600
vt 0.588004 0.180252
vt 0.062056 0.180252
vt 0.062056 0.047600
vt 0.588004 0.047601
vt 0.588004 0.180252
vt 0.588004 0.047600
vt 0.588004 0.180252
vt 0.062055 0.180252
vt 0.062056 0.047600
vt 0.588004 0.047600
vt 0.588004 0.180252
vt 0.062056 0.180252
vt 0.062056 0.047600
vt 0.588004 0.047600
vt 0.588004 0.180252
vt 0.062056 0.180251
vt 0.062056 0.047600
vt 0.062056 0.180252
vt 0.062056 0.047600
vt 0.588004 0.047600
vt 0.588004 0.180252
vt 0.062056 0.180252
vt 0.062056 0.047600
vt 0.588004 0.047600
vt 0.588004 0.180252
vt 0.926907 0.349036
vt 0.926854 0.002529
vt 0.996174 0.002529
vt 0.996174 0.389088
vt 0.908389 0.350447
vt 0.838834 0.390543
vt 0.838834 0.002674
vt 0.908389 0.002674
vt 0.926873 0.002497
vt 0.996193 0.002497
vt 0.996193 0.389056
vt 0.926873 0.349094
vt 0.908355 0.350388
vt 0.838853 0.390576
vt 0.838853 0.002706
vt 0.908407 0.002706
vt 0.926940 0.349094
vt 0.926836 0.002497
vt 0.996156 0.002497
vt 0.996155 0.389056
vt 0.908321 0.350447
vt 0.838871 0.390544
vt 0.838871 0.002674
vt 0.908426 0.002674
vt 0.926907 0.349036
vt 0.926855 0.002529
vt 0.996174 0.002529
vt 0.996174 0.389088
vt 0.908388 0.002674
vt 0.908389 0.350447
vt 0.838834 0.390544
vt 0.838834 0.002674
vt 0.926873 0.349094
vt 0.926873 0.002497
vt 0.996193 0.002497
vt 0.996193 0.389056
vt 0.908355 0.350389
vt 0.838853 0.390576
vt 0.838853 0.002706
vt 0.908407 0.002706
vt 0.926940 0.349095
vt 0.926836 0.002497
vt 0.996155 0.002497
vt 0.996155 0.389056
vt 0.908322 0.350447
vt 0.838871 0.390544
vt 0.838871 0.002673
vt 0.908426 0.002673
vt 0.733723 0.295943
vt 0.733723 0.440027
vt 0.733723 0.584109
vt 0.798315 0.584109
vt 0.798315 0.007778
vt 0.733724 0.007778
vt 0.733724 0.151857
vt 0.733724 0.295943
vt 0.733724 0.440033
vt 0.733724 0.584112
vt 0.798314 0.584112
vt 0.798315 0.007774
vt 0.733724 0.007774
vt 0.733724 0.151853
vt 0.733723 0.440063
vt 0.733723 0.584181
vt 0.798315 0.584181
vt 0.798316 0.007704
vt 0.733724 0.007704
vt 0.733723 0.151823
vt 0.733723 0.295945
vt 0.733724 0.295943
vt 0.733724 0.440068
vt 0.733724 0.584184
vt 0.798315 0.584184
vt 0.798315 0.007701
vt 0.733723 0.007701
vt 0.733724 0.151820
vt 0.733723 0.440026
vt 0.733723 0.584107
vt 0.798316 0.584107
vt 0.798316 0.007781
vt 0.733723 0.007781
vt 0.733723 0.151862
vt 0.733723 0.295939
vt 0.733723 0.295943
vt 0.733723 0.440062
vt 0.733723 0.584181
vt 0.798316 0.584181
vt 0.798316 0.007705
vt 0.733723 0.007705
vt 0.733723 0.151824
vt 0.733723 0.440061
vt 0.733722 0.584183
vt 0.798316 0.584183
vt 0.798316 0.007706
vt 0.733724 0.007706
vt 0.733724 0.151824
vt 0.733723 0.295939
vt 0.733724 0.295943
vt 0.733723 0.440063
vt 0.733723 0.584183
vt 0.798316 0.584183
vt 0.798315 0.007704
vt 0.733724 0.007704
vt 0.733724 0.151821
vt 0.733723 0.295943
vt 0.733723 0.440062
vt 0.733723 0.584181
vt 0.798316 0.584181
vt 0.798316 0.007705
vt 0.733723 0.007705
vt 0.733723 0.151824
vt 0.733724 0.151863
vt 0.733724 0.295944
vt 0.733723 0.440022
vt 0.733723 0.584105
vt 0.798316 0.584105
vt 0.798316 0.007781
vt 0.733723 0.007781
vt 0.062056 0.180252
vt 0.062056 0.047600
vt 0.588004 0.047600
vt 0.588004 0.180252
vn 0.0000 1.0000 0.0000
vn 0.0000 0.0000 1.0000
vn 0.0000 -1.0000 0.0000
vn 0.8660 0.0000 0.5000
vn 0.8660 0.0000 -0.5000
vn -0.8660 0.0000 0.5000
vn -0.8660 0.0000 -0.5000
vn -0.0000 0.0000 -1.0000
vn -0.8661 0.0000 -0.4999
vn 0.8661 -0.0000 0.4999
vn 0.8659 -0.0000 0.5003
vn 0.8659 -0.0000 -0.5003
vn 0.8661 -0.0000 -0.4999
vn -0.8659 0.0000 -0.5003
vn -0.8659 0.0000 0.5003
vn -0.8661 0.0000 0.4999
usemtl Material.001
s off
f 5/1/1 3/2/1 23/3/1 74/4/1
f 4/5/1 5/6/1 74/7/1 71/8/1
f 24/9/1 75/10/1 74/11/1 23/12/1
f 72/13/1 71/14/1 74/15/1 75/16/1
f 69/17/1 68/18/1 71/19/1 72/20/1
f 6/21/1 4/22/1 71/23/1 68/24/1
f 6/25/1 95/26/1 98/27/1 4/28/1
f 96/29/1 99/30/1 98/31/1 95/32/1
f 97/33/1 100/34/1 99/35/1 96/36/1
f 40/37/1 38/38/1 100/39/1 97/40/1
f 40/41/1 97/42/1 36/43/1 26/44/1
f 36/45/1 97/46/1 96/47/1 32/48/1
f 32/49/1 96/50/1 95/51/1 34/52/1
f 1/53/1 34/54/1 95/55/1 6/56/1
f 1/57/1 6/58/1 68/59/1 37/60/1
f 33/61/1 37/62/1 68/63/1 69/64/1
f 35/65/1 33/66/1 69/67/1 70/68/1
f 35/69/1 70/70/1 65/71/1 27/72/1
f 65/73/1 70/74/1 73/75/1 63/76/1
f 70/77/1 69/78/1 72/79/1 73/80/1
f 73/81/1 72/82/1 75/83/1 76/84/1
f 63/85/1 73/86/1 76/87/1 67/88/1
f 25/89/1 67/90/1 76/91/1 22/92/1
f 22/93/1 76/94/1 75/95/1 24/96/1
f 4/97/1 98/98/1 101/99/1 5/100/1
f 99/101/1 102/102/1 101/103/1 98/104/1
f 100/105/1 103/106/1 102/107/1 99/108/1
f 38/109/1 42/110/1 103/111/1 100/112/1
f 9/113/1 2/114/1 103/115/1 42/116/1
f 5/117/1 101/118/1 7/119/1 3/120/1
f 7/121/1 113/122/1 11/123/1 3/2/1
f 113/124/1 7/125/1 8/126/1 114/127/1
f 8/128/1 7/129/1 101/130/1 102/131/1
f 102/132/1 103/133/1 2/134/1 8/135/1
f 2/136/1 115/137/1 114/138/1 8/139/1
f 115/140/1 118/141/1 117/142/1 114/143/1
f 117/144/1 116/145/1 113/146/1 114/147/1
f 113/148/1 116/149/1 12/150/1 11/151/1
f 116/152/1 119/153/1 10/154/1 12/155/1
f 10/156/1 110/157/1 104/158/1 12/159/1
f 104/160/1 107/161/1 11/162/1 12/163/1
f 107/164/1 15/165/1 3/166/1 11/167/1
f 15/168/1 89/169/1 19/170/1 3/171/1
f 19/172/1 77/173/1 23/174/1 3/166/1
f 77/175/1 78/176/1 24/177/1 23/178/1
f 78/179/1 79/180/1 22/181/1 24/182/1
f 79/183/1 66/184/1 25/185/1 22/186/1
f 66/187/1 79/188/1 82/189/1 62/190/1
f 82/191/1 79/192/1 78/193/1 81/194/1
f 81/195/1 78/196/1 77/197/1 80/198/1
f 77/199/1 19/200/1 20/201/1 80/202/1
f 80/203/1 20/204/1 18/205/1 83/206/1
f 18/207/1 20/208/1 92/209/1 86/210/1
f 92/211/1 20/212/1 19/213/1 89/214/1
f 92/215/1 89/216/1 90/217/1 93/218/1
f 89/219/1 15/220/1 16/221/1 90/222/1
f 90/223/1 16/224/1 14/225/1 91/226/1
f 14/227/1 16/228/1 108/229/1 109/230/1
f 108/231/1 16/232/1 15/233/1 107/234/1
f 108/235/1 107/236/1 104/237/1 105/238/1
f 105/239/1 104/240/1 110/241/1 111/242/1
f 111/243/1 110/244/1 49/245/1 45/246/1
f 110/247/1 10/248/1 13/249/1 49/250/1
f 13/251/1 10/252/1 119/253/1 48/254/1
f 48/255/1 119/256/1 120/257/1 44/258/1
f 120/259/1 119/260/1 116/261/1 117/262/1
f 120/263/1 117/264/1 118/265/1 121/266/1
f 121/267/1 118/268/1 39/269/1 41/270/1
f 39/271/1 118/272/1 115/273/1 43/274/1
f 115/275/1 2/276/1 9/277/1 43/278/1
f 41/279/1 28/280/1 46/281/1 121/282/1
f 46/283/1 44/284/1 120/285/1 121/286/1
f 45/287/1 47/288/1 112/289/1 111/290/1
f 112/291/1 106/292/1 105/293/1 111/294/1
f 106/295/1 109/296/1 108/297/1 105/298/1
f 109/299/1 106/300/1 50/301/1 52/302/1
f 50/303/1 106/304/1 112/305/1 54/306/1
f 29/307/1 54/308/1 112/309/1 47/310/1
f 109/311/1 52/312/1 17/313/1 14/314/1
f 17/315/1 55/316/1 91/317/1 14/318/1
f 55/319/1 51/320/1 94/321/1 91/322/1
f 94/323/1 93/324/1 90/325/1 91/326/1
f 94/327/1 88/328/1 87/329/1 93/330/1
f 87/331/1 86/332/1 92/333/1 93/334/1
f 87/335/1 56/336/1 60/337/1 86/338/1
f 86/339/1 60/340/1 21/341/1 18/342/1
f 21/343/1 61/344/1 83/345/1 18/346/1
f 61/347/1 57/348/1 84/349/1 83/350/1
f 84/351/1 81/352/1 80/353/1 83/354/1
f 84/355/1 85/356/1 82/357/1 81/358/1
f 85/359/1 64/360/1 62/361/1 82/362/1
f 64/363/1 85/364/1 59/365/1 31/366/1
f 59/367/1 85/368/1 84/369/1 57/370/1
f 56/371/1 87/372/1 88/373/1 58/374/1
f 58/375/1 88/376/1 53/377/1 30/378/1
f 53/379/1 88/380/1 94/381/1 51/382/1
f 30/383/2 53/384/2 51/385/2 55/386/2 17/387/2 138/388/2 139/389/2
f 17/390/2 52/391/2 50/392/2 54/393/2 29/394/2 140/395/2 138/396/2
f 130/397/3 131/398/3 123/399/3 124/400/3 129/401/3 126/402/3 125/403/3 127/404/3 122/405/3 128/406/3 132/407/3 133/408/3
f 125/409/4 149/410/4 151/411/4 127/412/4
f 124/413/5 148/414/5 153/415/5 129/416/5
f 132/417/6 156/418/6 157/419/6 133/420/6
f 122/421/2 146/422/2 152/423/2 128/424/2
f 128/425/6 152/426/6 156/427/6 132/428/6
f 126/429/4 150/430/4 149/431/4 125/432/4
f 129/433/5 153/434/5 150/435/5 126/436/5
f 127/437/2 151/438/2 146/439/2 122/440/2
f 133/441/7 157/442/7 154/443/7 130/444/7
f 130/445/7 154/446/7 155/447/7 131/448/7
f 131/449/8 155/450/8 147/451/8 123/452/8
f 135/453/1 145/454/1 156/455/1 152/456/1
f 135/457/1 152/458/1 146/459/1 134/460/1
f 134/461/1 146/462/1 151/463/1 136/464/1
f 136/465/1 151/466/1 149/467/1 142/468/1
f 137/469/1 142/470/1 149/471/1 150/472/1
f 137/473/1 150/474/1 153/475/1 143/476/1
f 140/477/1 143/478/1 153/479/1 148/480/1
f 138/481/1 140/482/1 148/483/1 147/484/1
f 139/485/1 138/486/1 147/487/1 155/488/1
f 139/489/1 155/490/1 154/491/1 144/492/1
f 141/493/1 144/494/1 154/495/1 157/496/1
f 141/497/1 157/498/1 156/499/1 145/500/1
f 38/501/9 40/502/9 26/503/9 136/504/9 142/505/9 9/506/9 42/507/9
f 56/508/10 58/509/10 30/510/10 139/511/10 144/512/10 21/513/10 60/514/10
f 61/515/11 21/516/11 144/517/11 141/518/11 31/519/11 59/520/11 57/521/11
f 62/522/12 64/523/12 31/524/12 141/525/12 145/526/12 25/527/12 66/528/12
f 67/529/13 25/530/13 145/531/13 135/532/13 27/533/13 65/534/13 63/535/13
f 32/536/8 34/537/8 1/538/8 134/539/8 136/540/8 26/541/8 36/542/8
f 43/543/14 9/544/14 142/545/14 137/546/14 28/547/14 41/548/14 39/549/14
f 44/550/15 46/551/15 28/552/15 137/553/15 143/554/15 13/555/15 48/556/15
f 33/557/8 35/558/8 27/559/8 135/560/8 134/561/8 1/562/8 37/563/8
f 47/564/16 45/565/16 49/566/16 13/567/16 143/568/16 140/569/16 29/570/16
f 123/571/8 147/572/8 148/573/8 124/574/8
