# Blender v2.83.5 OBJ File: ''
# www.blender.org
mtllib Door.mtl
o Cube.002_Cube.003
v -67.813545 -3.936914 -16.775476
v -67.813545 25.894045 -16.775476
v -67.813545 25.894083 -31.775478
v -67.813560 -4.105919 -31.775558
v -66.563545 25.894043 -16.775484
v -66.563545 25.894081 -31.775486
v -66.563560 -4.105919 -31.775566
v -66.563545 -3.936914 -16.775484
v -67.813553 10.453526 -31.775520
v -67.813545 10.540492 -16.775476
v -66.563553 10.453526 -31.775528
v -66.563545 10.540490 -16.775484
v -67.813545 25.894053 -19.911543
v -66.563545 25.894051 -19.911551
v -67.813545 -3.972248 -19.911560
v -66.563545 -3.972248 -19.911568
v -67.813545 10.522310 -19.911552
v -66.563545 8.295676 -18.671978
v -66.563545 9.551878 -17.671959
v -66.563545 9.539376 -19.671959
v -66.563545 10.795675 -18.671976
vt 0.000000 0.000000
vt 0.000000 0.000000
vt 0.000000 0.000000
vt 0.000000 0.000000
vt 0.000000 0.000000
vt 0.000000 0.000000
vt 0.000000 0.000000
vt 0.000000 0.000000
vt 0.000000 0.000000
vt 0.625000 0.437500
vt 0.468284 0.393850
vt 0.442020 0.374139
vt 0.303322 0.212325
vt 0.625000 0.437500
vt 0.625000 0.437500
vt 0.496329 0.437500
vt 0.469765 0.406509
vt 0.000000 0.000000
vt 0.000000 0.000000
vt 0.375000 0.437500
vt 0.296598 0.346031
vt 0.444176 0.387136
vt 0.000000 0.000000
vn -1.0000 0.0000 0.0000
vn 0.0000 -0.9999 0.0113
vn 1.0000 -0.0000 -0.0000
usemtl None
s off
f 13/1/1 17/2/1 10/3/1 2/4/1
f 16/5/2 15/6/2 4/7/2 7/8/2
f 17/2/1 15/6/1 1/9/1 10/3/1
f 14/10/3 21/11/3 20/12/3 11/13/3 6/14/3
f 5/15/3 12/16/3 19/17/3 21/11/3 14/10/3
f 9/18/1 4/7/1 15/6/1 17/2/1
f 8/19/2 1/9/2 15/6/2 16/5/2
f 12/16/3 8/20/3 16/21/3 18/22/3 19/17/3
f 3/23/1 9/18/1 17/2/1 13/1/1
f 20/12/3 18/22/3 16/21/3 7/8/3 11/13/3
