# Blender v2.83.5 OBJ File: ''
# www.blender.org
mtllib Handle.mtl
o Cube.001_Cube.002
v -64.727501 9.542526 -19.171959
v -66.563545 8.295676 -18.671978
v -66.563545 9.551878 -17.671959
v -66.563545 9.539376 -19.671959
v -66.563545 10.795675 -18.671976
v -64.727501 10.170675 -18.671968
v -64.727501 9.548776 -18.171959
v -64.727501 8.920675 -18.671968
v -64.727501 9.856601 -18.921965
v -66.182716 8.295676 -18.671978
v -66.182716 9.551878 -17.671959
v -66.182724 9.539376 -19.671959
v -66.182716 10.795675 -18.671976
v -65.868340 8.920675 -18.671968
v -65.868340 9.548776 -18.171959
v -65.868340 10.170675 -18.671967
v -65.868340 9.542526 -19.171959
v -63.929470 9.542526 -19.171959
v -63.929470 10.170675 -18.671968
v -63.929470 9.548776 -18.171961
v -63.929470 8.920675 -18.671970
v -63.929470 9.545675 -18.671959
v -63.929470 9.856601 -18.921965
v -64.727501 9.231600 -18.921965
v -63.929470 9.231600 -18.921965
v -64.727501 9.533962 -21.636042
v -64.727501 9.848038 -21.386047
v -63.929470 9.533962 -21.636044
v -63.929470 9.848038 -21.386047
v -64.727501 9.223038 -21.386047
v -63.929470 9.223038 -21.386047
vt 0.450076 0.388779
vt 0.449537 0.385530
vt 0.449537 0.385530
vt 0.450076 0.388779
vt 0.462130 0.392136
vt 0.462871 0.398466
vt 0.462871 0.398466
vt 0.462130 0.392136
vt 0.448998 0.382281
vt 0.455564 0.387209
vt 0.455564 0.387209
vt 0.448998 0.382281
vt 0.462130 0.392136
vt 0.462871 0.398466
vt 0.469765 0.406509
vt 0.444176 0.387136
vt 0.444176 0.387136
vt 0.469765 0.406509
vt 0.442020 0.374139
vt 0.468284 0.393850
vt 0.468284 0.393850
vt 0.442020 0.374139
vt 0.450076 0.388779
vt 0.448998 0.382281
vt 0.448998 0.382281
vt 0.455564 0.387209
vt 0.455977 0.390422
vt 0.455564 0.387209
vt 0.448998 0.382281
vt 0.449537 0.385530
vt 0.449537 0.385530
vn 0.0000 -0.6266 -0.7793
vn 0.0000 0.6266 0.7793
vn -1.0000 -0.0000 0.0000
vn 0.0000 -0.6228 0.7824
vn 0.0000 0.6228 -0.7824
vn 0.7780 -0.3913 0.4916
vn 0.7798 0.3922 0.4879
vn 0.7779 0.3913 -0.4916
vn 0.7798 -0.3923 -0.4879
vn 1.0000 -0.0000 0.0000
vn 0.0000 1.0000 -0.0035
vn 0.0000 -1.0000 0.0035
usemtl None
s off
f 8/1/1 24/2/1 25/3/1 21/4/1
f 6/5/2 7/6/2 20/7/2 19/8/2
f 1/9/3 9/10/3 27/11/3 26/12/3
f 7/6/4 8/1/4 21/4/4 20/7/4
f 16/13/2 15/14/2 7/6/2 6/5/2
f 3/15/4 2/16/4 10/17/4 11/18/4
f 4/19/5 5/20/5 13/21/5 12/22/5
f 2/16/1 4/19/1 12/22/1 10/17/1
f 5/20/2 3/15/2 11/18/2 13/21/2
f 11/18/6 10/17/6 14/23/6 15/14/6
f 13/21/7 11/18/7 15/14/7 16/13/7
f 12/22/8 13/21/8 16/13/8 17/24/8
f 17/24/9 14/23/9 10/17/9 12/22/9
f 15/14/4 14/23/4 8/1/4 7/6/4
f 17/24/5 16/13/5 6/5/5 9/10/5 1/9/5
f 14/23/1 17/24/1 1/9/1 24/2/1 8/1/1
f 18/25/10 23/26/10 19/8/10 22/27/10
f 19/8/10 20/7/10 22/27/10
f 20/7/10 21/4/10 22/27/10
f 22/27/10 21/4/10 25/3/10 18/25/10
f 26/12/5 27/11/5 29/28/5 28/29/5
f 23/26/5 9/10/5 6/5/5 19/8/5
f 18/25/10 25/3/10 31/30/10 28/29/10
f 31/30/1 30/31/1 26/12/1 28/29/1
f 9/10/11 23/26/11 29/28/11 27/11/11
f 25/3/12 24/2/12 30/31/12 31/30/12
f 23/26/10 18/25/10 28/29/10 29/28/10
f 24/2/3 1/9/3 26/12/3 30/31/3
