# Blender v2.83.5 OBJ File: ''
# www.blender.org
mtllib NewTable.mtl
o Cube_Cube.001
v -3.750000 -0.344246 2.500000
v -3.750000 0.000000 2.500000
v -3.750000 -0.344246 -2.500000
v -3.750000 0.000000 -2.500000
v 3.750000 -0.344246 2.500000
v 3.750000 0.000000 2.500000
v 3.750000 -0.344246 -2.500000
v 3.750000 0.000000 -2.500000
v -3.550000 -0.344246 -2.500000
v -3.550000 -0.344246 -2.300000
v -3.750000 -0.344246 -2.300000
v -3.550000 -0.344246 2.500000
v -3.550000 -0.344246 2.300000
v -3.750000 -0.344246 2.300000
v 3.550000 -0.344246 2.500000
v 3.550000 -0.344246 2.300000
v 3.750000 -0.344246 2.300000
v 3.550000 -0.344246 -2.500000
v 3.550000 -0.344246 -2.300000
v 3.750000 -0.344246 -2.300000
v 2.850000 -0.344246 -2.300000
v 2.850000 -0.344246 -1.600000
v 3.550000 -0.344246 -1.600000
v 2.850000 -0.344246 2.300000
v 2.850000 -0.344246 1.600000
v 3.550000 -0.344246 1.600000
v -2.850000 -0.344246 2.300000
v -2.850000 -0.344246 1.600000
v -3.550000 -0.344246 1.600000
v -2.850000 -0.344246 -2.300000
v -2.850000 -0.344246 -1.600000
v -3.550000 -0.344246 -1.600000
v 3.550000 -0.567175 -2.300000
v 2.850000 -0.567175 -2.300000
v 2.850000 -0.567175 -1.600000
v 3.550000 -0.567175 -1.600000
v 3.550000 -0.567175 2.300000
v 2.850000 -0.567175 2.300000
v 2.850000 -0.567175 1.600000
v 3.550000 -0.567175 1.600000
v -3.550000 -0.567175 2.300000
v -2.850000 -0.567175 2.300000
v -2.850000 -0.567175 1.600000
v -3.550000 -0.567175 1.600000
v -3.550000 -0.567175 -2.300000
v -2.850000 -0.567175 -2.300000
v -2.850000 -0.567175 -1.600000
v -3.550000 -0.567175 -1.600000
v 3.480000 -0.841553 -2.230000
v 2.920000 -0.841553 -2.230000
v 2.920000 -0.841553 -1.670000
v 3.480000 -0.841553 -1.670000
v 3.480000 -0.841553 2.230000
v 2.920000 -0.841553 2.230000
v 2.920000 -0.841553 1.670000
v 3.480000 -0.841553 1.670000
v -3.480000 -0.841553 2.230000
v -2.920000 -0.841553 2.230000
v -2.920000 -0.841553 1.670000
v -3.480000 -0.841553 1.670000
v -3.480000 -0.841553 -2.230000
v -2.920000 -0.841553 -2.230000
v -2.920000 -0.841553 -1.670000
v -3.480000 -0.841553 -1.670000
v -3.424000 -0.864090 -2.174000
v -2.976000 -0.864090 -2.174000
v -2.976000 -0.864090 -1.726000
v -3.424000 -0.864090 -1.726000
v 3.424000 -0.864090 -2.174000
v 2.976000 -0.864090 -2.174000
v 2.976000 -0.864090 -1.726000
v 3.424000 -0.864090 -1.726000
v 3.424000 -0.864090 2.174000
v 2.976000 -0.864090 2.174000
v 2.976000 -0.864090 1.726000
v 3.424000 -0.864090 1.726000
v -3.424000 -0.864090 2.174000
v -2.976000 -0.864090 2.174000
v -2.976000 -0.864090 1.726000
v -3.424000 -0.864090 1.726000
v -3.323200 -3.292386 -2.073200
v -3.076800 -3.292386 -2.073200
v -3.076800 -3.292386 -1.826800
v -3.323200 -3.292386 -1.826800
v 3.323200 -3.292386 -2.073200
v 3.076800 -3.292386 -2.073200
v 3.076800 -3.292386 -1.826800
v 3.323200 -3.292386 -1.826800
v 3.323200 -3.292386 2.073200
v 3.076800 -3.292386 2.073200
v 3.076800 -3.292386 1.826800
v 3.323200 -3.292386 1.826800
v -3.323200 -3.292386 2.073200
v -3.076800 -3.292386 2.073200
v -3.076800 -3.292386 1.826800
v -3.323200 -3.292386 1.826800
v 3.360160 -3.330884 -2.110160
v 3.039840 -3.330884 -2.110160
v 3.039840 -3.330884 -1.789840
v 3.360160 -3.330884 -1.789840
v -3.360160 -3.330884 2.110160
v -3.039840 -3.330884 2.110160
v -3.039840 -3.330884 1.789840
v -3.360160 -3.330884 1.789840
v -3.360160 -3.330884 -2.110160
v -3.039840 -3.330884 -2.110160
v -3.039840 -3.330884 -1.789840
v -3.360160 -3.330884 -1.789840
v 3.360160 -3.330884 2.110160
v 3.039840 -3.330884 2.110160
v 3.039840 -3.330884 1.789840
v 3.360160 -3.330884 1.789840
v 3.360160 -3.468029 -2.110160
v 3.039840 -3.468029 -2.110160
v 3.039840 -3.468029 -1.789840
v 3.360160 -3.468029 -1.789840
v -3.360160 -3.468029 2.110160
v -3.039840 -3.468029 2.110160
v -3.039840 -3.468029 1.789840
v -3.360160 -3.468029 1.789840
v -3.360160 -3.468029 -2.110160
v -3.039840 -3.468029 -2.110160
v -3.039840 -3.468029 -1.789840
v -3.360160 -3.468029 -1.789840
v 3.360160 -3.468029 2.110160
v 3.039840 -3.468029 2.110160
v 3.039840 -3.468029 1.789840
v 3.360160 -3.468029 1.789840
vt 0.625000 0.500000
vt 0.875000 0.500000
vt 0.875000 0.750000
vt 0.625000 0.750000
vt 0.000000 0.000000
vt 0.000000 0.000000
vt 0.000000 0.000000
vt 0.000000 0.000000
vt 0.000000 0.000000
vt 0.000000 0.000000
vt 0.000000 0.000000
vt 0.000000 0.000000
vt 0.000000 0.000000
vt 0.000000 0.000000
vt 0.000000 0.000000
vt 0.000000 0.000000
vt 0.000000 0.000000
vt 0.000000 0.000000
vt 0.000000 0.000000
vt 0.000000 0.000000
vt 0.000000 0.000000
vt 0.000000 0.000000
vt 0.000000 0.000000
vt 0.000000 0.000000
vt 0.000000 0.000000
vt 0.000000 0.000000
vt 0.000000 0.000000
vt 0.000000 0.000000
vt 0.000000 0.000000
vt 0.000000 0.000000
vt 0.000000 0.000000
vt 0.000000 0.000000
vt 0.000000 0.000000
vt 0.000000 0.000000
vt 0.000000 0.000000
vt 0.000000 0.000000
vt 0.000000 0.000000
vt 0.000000 0.000000
vt 0.000000 0.000000
vt 0.000000 0.000000
vt 0.000000 0.000000
vt 0.000000 0.000000
vt 0.000000 0.000000
vt 0.000000 0.000000
vt 0.000000 0.000000
vt 0.000000 0.000000
vt 0.000000 0.000000
vt 0.000000 0.000000
vt 0.000000 0.000000
vt 0.000000 0.000000
vt 0.000000 0.000000
vt 0.000000 0.000000
vt 0.000000 0.000000
vt 0.000000 0.000000
vt 0.000000 0.000000
vt 0.000000 0.000000
vt 0.000000 0.000000
vt 0.000000 0.000000
vt 0.000000 0.000000
vt 0.000000 0.000000
vt 0.000000 0.000000
vt 0.000000 0.000000
vt 0.000000 0.000000
vt 0.000000 0.000000
vt 0.000000 0.000000
vt 0.000000 0.000000
vt 0.000000 0.000000
vt 0.000000 0.000000
vt 0.000000 0.000000
vt 0.000000 0.000000
vt 0.000000 0.000000
vt 0.000000 0.000000
vt 0.000000 0.000000
vt 0.000000 0.000000
vt 0.000000 0.000000
vt 0.000000 0.000000
vt 0.000000 0.000000
vt 0.000000 0.000000
vt 0.000000 0.000000
vt 0.000000 0.000000
vt 0.000000 0.000000
vt 0.000000 0.000000
vt 0.000000 0.000000
vt 0.000000 0.000000
vt 0.000000 0.000000
vt 0.000000 0.000000
vt 0.000000 0.000000
vt 0.000000 0.000000
vt 0.000000 0.000000
vt 0.000000 0.000000
vt 0.000000 0.000000
vt 0.000000 0.000000
vt 0.000000 0.000000
vt 0.000000 0.000000
vt 0.000000 0.000000
vt 0.000000 0.000000
vt 0.000000 0.000000
vt 0.000000 0.000000
vt 0.000000 0.000000
vt 0.000000 0.000000
vt 0.000000 0.000000
vt 0.000000 0.000000
vt 0.000000 0.000000
vt 0.000000 0.000000
vt 0.000000 0.000000
vt 0.000000 0.000000
vt 0.000000 0.000000
vt 0.000000 0.000000
vt 0.000000 0.000000
vt 0.000000 0.000000
vt 0.000000 0.000000
vt 0.000000 0.000000
vt 0.000000 0.000000
vt 0.000000 0.000000
vt 0.000000 0.000000
vt 0.000000 0.000000
vt 0.000000 0.000000
vt 0.000000 0.000000
vt 0.000000 0.000000
vt 0.000000 0.000000
vt 0.000000 0.000000
vt 0.000000 0.000000
vt 0.000000 0.000000
vt 0.000000 0.000000
vt 0.000000 0.000000
vt 0.000000 0.000000
vt 0.000000 0.000000
vt 0.000000 0.000000
vn 0.0000 1.0000 0.0000
vn 0.0000 0.0000 1.0000
vn -1.0000 0.0000 0.0000
vn 0.0000 0.0000 -1.0000
vn 1.0000 0.0000 0.0000
vn 0.0000 -1.0000 0.0000
vn -0.9690 -0.2472 0.0000
vn 0.0000 -0.2472 -0.9690
vn 0.0000 -0.2472 0.9690
vn 0.0000 -0.9277 0.3734
vn 0.3734 -0.9277 0.0000
vn 0.9690 -0.2472 0.0000
vn 0.0000 -0.0415 0.9991
vn 0.0000 -0.9277 -0.3734
vn -0.3734 -0.9277 0.0000
vn 0.9991 -0.0415 0.0000
vn 0.0000 -0.0415 -0.9991
vn 0.0000 0.6925 -0.7214
vn 0.0000 0.6925 0.7214
vn 0.7214 0.6926 0.0000
vn -0.9991 -0.0415 0.0000
vn -0.7214 0.6925 0.0000
vn -0.7214 0.6926 0.0000
vn 0.7214 0.6925 0.0000
usemtl None
s off
f 8/1/1 4/2/1 2/3/1 6/4/1
f 1/5/2 12/6/2 15/7/2 5/8/2 6/4/2 2/3/2
f 3/9/3 11/10/3 14/11/3 1/5/3 2/3/3 4/2/3
f 3/9/4 4/2/4 8/1/4 7/12/4 18/13/4 9/14/4
f 7/12/5 8/1/5 6/4/5 5/8/5 17/15/5 20/16/5
f 22/17/6 31/18/6 30/19/6 21/20/6
f 10/21/6 9/14/6 18/13/6 19/22/6 21/20/6 30/19/6
f 11/10/6 3/9/6 9/14/6 10/21/6
f 7/12/6 20/16/6 19/22/6 18/13/6
f 13/23/3 29/24/3 44/25/3 41/26/3
f 23/27/2 22/17/2 35/28/2 36/29/2
f 23/27/6 26/30/6 25/31/6 22/17/6
f 29/24/6 32/32/6 31/18/6 28/33/6
f 29/24/4 28/33/4 43/34/4 44/25/4
f 25/31/6 24/35/6 27/36/6 28/33/6
f 19/22/5 23/27/5 36/29/5 33/37/5
f 5/8/6 15/7/6 16/38/6 17/15/6
f 12/6/6 1/5/6 14/11/6 13/23/6
f 13/23/6 27/36/6 24/35/6 16/38/6 15/7/6 12/6/6
f 16/38/6 26/30/6 23/27/6 19/22/6 20/16/6 17/15/6
f 10/21/6 32/32/6 29/24/6 13/23/6 14/11/6 11/10/6
f 22/17/6 25/31/6 28/33/6 31/18/6
f 38/39/7 39/40/7 55/41/7 54/42/7
f 45/43/8 46/44/8 62/45/8 61/46/8
f 37/47/9 38/39/9 54/42/9 53/48/9
f 41/26/7 44/25/7 60/49/7 57/50/7
f 16/38/2 24/35/2 38/39/2 37/47/2
f 10/21/4 30/19/4 46/44/4 45/43/4
f 24/35/3 25/31/3 39/40/3 38/39/3
f 30/19/5 31/18/5 47/51/5 46/44/5
f 25/31/4 26/30/4 40/52/4 39/40/4
f 31/18/2 32/32/2 48/53/2 47/51/2
f 26/30/5 16/38/5 37/47/5 40/52/5
f 21/20/4 19/22/4 33/37/4 34/54/4
f 32/32/3 10/21/3 45/43/3 48/53/3
f 27/36/2 13/23/2 41/26/2 42/55/2
f 22/17/3 21/20/3 34/54/3 35/28/3
f 28/33/5 27/36/5 42/55/5 43/34/5
f 52/56/10 51/57/10 71/58/10 72/59/10
f 63/60/10 64/61/10 68/62/10 67/63/10
f 59/64/11 58/65/11 78/66/11 79/67/11
f 56/68/11 53/48/11 73/69/11 76/70/11
f 46/44/12 47/51/12 63/60/12 62/45/12
f 39/40/8 40/52/8 56/68/8 55/41/8
f 47/51/9 48/53/9 64/61/9 63/60/9
f 40/52/12 37/47/12 53/48/12 56/68/12
f 34/54/8 33/37/8 49/71/8 50/72/8
f 48/53/7 45/43/7 61/46/7 64/61/7
f 42/55/9 41/26/9 57/50/9 58/65/9
f 35/28/7 34/54/7 50/72/7 51/57/7
f 43/34/12 42/55/12 58/65/12 59/64/12
f 33/37/12 36/29/12 52/56/12 49/71/12
f 44/25/8 43/34/8 59/64/8 60/49/8
f 36/29/9 35/28/9 51/57/9 52/56/9
f 73/69/13 74/73/13 90/74/13 89/75/13
f 61/46/14 62/45/14 66/76/14 65/77/14
f 64/61/15 61/46/15 65/77/15 68/62/15
f 62/45/11 63/60/11 67/63/11 66/76/11
f 66/76/16 67/63/16 83/78/16 82/79/16
f 51/57/15 50/72/15 70/80/15 71/58/15
f 49/71/11 52/56/11 72/59/11 69/81/11
f 50/72/14 49/71/14 69/81/14 70/80/14
f 70/80/17 69/81/17 85/82/17 86/83/17
f 54/42/15 55/41/15 75/84/15 74/73/15
f 55/41/14 56/68/14 76/70/14 75/84/14
f 53/48/10 54/42/10 74/73/10 73/69/10
f 65/77/17 66/76/17 82/79/17 81/85/17
f 60/49/14 59/64/14 79/67/14 80/86/14
f 58/65/10 57/50/10 77/87/10 78/66/10
f 57/50/15 60/49/15 80/86/15 77/87/15
f 81/85/18 82/79/18 106/88/18 105/89/18
f 88/90/19 87/91/19 99/92/19 100/93/19
f 92/94/20 89/75/20 109/95/20 112/96/20
f 96/97/18 95/98/18 103/99/18 104/100/18
f 71/58/21 70/80/21 86/83/21 87/91/21
f 78/66/13 77/87/13 93/101/13 94/102/13
f 67/63/13 68/62/13 84/103/13 83/78/13
f 74/73/21 75/84/21 91/104/21 90/74/21
f 69/81/16 72/59/16 88/90/16 85/82/16
f 79/67/16 78/66/16 94/102/16 95/98/16
f 68/62/21 65/77/21 81/85/21 84/103/21
f 75/84/17 76/70/17 92/94/17 91/104/17
f 72/59/13 71/58/13 87/91/13 88/90/13
f 80/86/17 79/67/17 95/98/17 96/97/17
f 76/70/16 73/69/16 89/75/16 92/94/16
f 77/87/21 80/86/21 96/97/21 93/101/21
f 106/88/5 107/105/5 123/106/5 122/107/5
f 87/91/22 86/83/22 98/108/22 99/92/22
f 85/82/20 88/90/20 100/93/20 97/109/20
f 86/83/18 85/82/18 97/109/18 98/108/18
f 97/109/5 100/93/5 116/110/5 113/111/5
f 94/102/19 93/101/19 101/112/19 102/113/19
f 93/101/23 96/97/23 104/100/23 101/112/23
f 95/98/24 94/102/24 102/113/24 103/99/24
f 109/95/2 110/114/2 126/115/2 125/116/2
f 84/103/23 81/85/23 105/89/23 108/117/23
f 82/79/24 83/78/24 107/105/24 106/88/24
f 83/78/19 84/103/19 108/117/19 107/105/19
f 103/99/5 102/113/5 118/118/5 119/119/5
f 90/74/22 91/104/22 111/120/22 110/114/22
f 91/104/18 92/94/18 112/96/18 111/120/18
f 89/75/19 90/74/19 110/114/19 109/95/19
f 116/110/6 115/121/6 114/122/6 113/111/6
f 118/118/6 117/123/6 120/124/6 119/119/6
f 124/125/6 121/126/6 122/107/6 123/106/6
f 125/116/6 126/115/6 127/127/6 128/128/6
f 104/100/4 103/99/4 119/119/4 120/124/4
f 110/114/3 111/120/3 127/127/3 126/115/3
f 100/93/2 99/92/2 115/121/2 116/110/2
f 107/105/2 108/117/2 124/125/2 123/106/2
f 101/112/3 104/100/3 120/124/3 117/123/3
f 111/120/4 112/96/4 128/128/4 127/127/4
f 108/117/3 105/89/3 121/126/3 124/125/3
f 112/96/5 109/95/5 125/116/5 128/128/5
f 98/108/4 97/109/4 113/111/4 114/122/4
f 102/113/2 101/112/2 117/123/2 118/118/2
f 99/92/3 98/108/3 114/122/3 115/121/3
f 105/89/4 106/88/4 122/107/4 121/126/4
