# Blender v2.83.5 OBJ File: ''
# www.blender.org
mtllib PawnObj.mtl
o Icosphere
v 0.390000 0.000000 -0.000002
v 0.570635 0.000000 0.185408
v 0.570635 0.000000 -0.185408
v 0.000000 0.000000 0.600000
v 0.352671 0.000000 0.485410
v -0.570635 0.000000 0.185408
v -0.352671 0.000000 0.485410
v -0.352671 0.000000 -0.485410
v -0.570635 0.000000 -0.185408
v 0.352671 0.000000 -0.485410
v 0.000000 0.000000 -0.600000
v -0.120517 0.000000 -0.370912
v 0.120517 0.000000 -0.370912
v -0.390000 0.000000 0.000002
v -0.315517 0.000000 -0.229236
v -0.120517 0.000000 0.370912
v -0.315518 0.000000 0.229235
v 0.315517 0.000000 0.229236
v 0.120517 0.000000 0.370912
v 0.315518 0.000000 -0.229235
v 0.303028 0.180000 -0.098461
v -0.187282 0.180000 -0.257771
v 0.000000 0.180000 -0.318623
v -0.303028 0.180000 0.098461
v -0.303028 0.180000 -0.098460
v -0.000000 0.180000 0.318623
v -0.187283 0.180000 0.257771
v 0.303028 0.180000 0.098460
v 0.187282 0.180000 0.257771
v 0.187283 0.180000 -0.257771
v 0.244802 0.240000 -0.079542
v -0.151296 0.240000 -0.208241
v 0.000000 0.240000 -0.257400
v -0.244802 0.240000 0.079542
v -0.244802 0.240000 -0.079541
v -0.000000 0.240000 0.257400
v -0.151297 0.240000 0.208240
v 0.244802 0.240000 0.079541
v 0.151296 0.240000 0.208241
v 0.151297 0.240000 -0.208240
v 0.080785 0.285710 -0.026249
v -0.049928 0.285710 -0.068720
v 0.000000 0.285710 -0.084942
v -0.080785 0.285710 0.026249
v -0.080785 0.285710 -0.026248
v -0.000000 0.285710 0.084942
v -0.049928 0.285710 0.068719
v 0.080785 0.285710 0.026248
v 0.049928 0.285710 0.068720
v 0.049928 0.285710 -0.068719
v 0.490384 0.301832 -0.000002
v 0.396730 0.301832 -0.288239
v 0.151537 0.301832 0.466383
v 0.396729 0.301832 0.288240
v -0.396730 0.301832 0.288239
v -0.151537 0.301832 0.466383
v -0.396729 0.301832 -0.288240
v -0.490384 0.301832 0.000002
v 0.151537 0.301832 -0.466383
v -0.151537 0.301832 -0.466383
v 0.315945 0.322216 0.102655
v 0.315945 0.322216 -0.102655
v 0.000000 0.322216 0.332204
v 0.195265 0.322216 0.268759
v -0.315945 0.322216 0.102655
v -0.195265 0.322216 0.268759
v -0.195265 0.322216 -0.268759
v -0.315945 0.322216 -0.102655
v 0.195265 0.322216 -0.268759
v 0.000000 0.322216 -0.332204
v 0.332204 0.381755 -0.000002
v 0.268760 0.381755 -0.195263
v 0.102657 0.381755 0.315945
v 0.268759 0.381755 0.195265
v -0.268760 0.381755 0.195263
v -0.102657 0.381755 0.315945
v -0.268759 0.381755 -0.195265
v -0.332204 0.381755 0.000002
v 0.102657 0.381755 -0.315945
v -0.102657 0.381755 -0.315945
v 0.442322 0.427355 -0.143721
v 0.273372 0.427355 -0.376261
v 0.273370 0.427355 0.376262
v 0.442323 0.427355 0.143719
v -0.273372 0.427355 0.376261
v -0.000000 0.427355 0.465086
v -0.442323 0.427355 -0.143719
v -0.442322 0.427355 0.143721
v 0.000000 0.427355 -0.465086
v -0.273370 0.427355 -0.376262
v 0.376261 0.487355 -0.273372
v 0.143721 0.487355 -0.442322
v 0.376262 0.487355 0.273370
v 0.465086 0.487355 -0.000000
v -0.143721 0.487355 0.442322
v 0.143719 0.487355 0.442323
v -0.465086 0.487355 0.000000
v -0.376261 0.487355 0.273372
v -0.143719 0.487355 -0.442323
v -0.376262 0.487355 -0.273370
v 0.164021 0.532355 -0.225758
v 0.000001 0.532355 -0.279051
v 0.265394 0.532355 0.086232
v 0.265394 0.532355 -0.086232
v -0.000001 0.532355 0.279051
v 0.164022 0.532355 0.225757
v -0.265394 0.532355 0.086232
v -0.164021 0.532355 0.225758
v -0.164022 0.532355 -0.225757
v -0.265394 0.532355 -0.086232
v 0.068984 0.892355 -0.212315
v -0.068984 0.892355 -0.212315
v 0.223241 0.892355 -0.000000
v 0.180606 0.892355 -0.131218
v 0.068984 0.892355 0.212315
v 0.180606 0.892355 0.131218
v -0.180606 0.892355 0.131218
v -0.068984 0.892355 0.212315
v -0.180606 0.892355 -0.131218
v -0.223241 0.892355 0.000000
v -0.000001 1.072355 -0.193589
v -0.113788 1.072355 -0.156617
v 0.184114 1.072355 -0.059822
v 0.113788 1.072355 -0.156616
v 0.113788 1.072355 0.156617
v 0.184114 1.072355 0.059822
v -0.113788 1.072355 0.156616
v 0.000001 1.072355 0.193589
v -0.184114 1.072355 -0.059822
v -0.184114 1.072355 0.059822
v -0.128807 1.311165 -0.177286
v 0.128806 1.311165 -0.177286
v 0.208412 1.311165 0.067718
v 0.000000 1.311165 0.219138
v -0.208413 1.311165 0.067717
v 0.340128 1.561332 0.110512
v 0.000002 1.561332 0.357631
v -0.340128 1.561334 0.110514
v -0.210209 1.561332 -0.289331
v 0.210212 1.561332 -0.289329
v 0.210209 1.918969 0.289331
v -0.210212 1.918969 0.289329
v -0.340128 1.918969 -0.110512
v -0.000002 1.918969 -0.357631
v 0.340128 1.918968 -0.110514
v -0.000000 2.139996 -0.000000
v 0.000001 1.400021 0.210209
v 0.199921 1.400021 0.064957
v 0.199923 1.529937 0.275167
v 0.323480 1.529938 -0.105105
v 0.123559 1.400021 -0.170062
v -0.199922 1.400021 0.064959
v -0.199922 1.529937 0.275169
v -0.123557 1.400021 -0.170063
v -0.323481 1.529937 -0.105105
v 0.000002 1.529937 -0.340127
v 0.399845 1.740150 -0.000002
v 0.323483 1.740150 -0.235022
v 0.123559 1.740150 0.380275
v 0.323482 1.740150 0.235023
v -0.323483 1.740150 0.235022
v -0.123559 1.740150 0.380275
v -0.323482 1.740150 -0.235023
v -0.399845 1.740150 0.000002
v 0.123559 1.740150 -0.380275
v -0.123559 1.740150 -0.380275
v 0.323481 1.950364 0.105105
v -0.000002 1.950364 0.340127
v -0.323480 1.950364 0.105105
v -0.199923 1.950364 -0.275167
v 0.199922 1.950364 -0.275169
v 0.123557 2.080281 0.170063
v 0.199922 2.080280 -0.064959
v -0.123559 2.080281 0.170062
v -0.199921 2.080281 -0.064957
v -0.000001 2.080281 -0.210209
v -0.223915 1.335165 -0.308190
v 0.223913 1.335165 -0.308191
v 0.362299 1.335165 0.117720
v 0.000000 1.335165 0.380944
v -0.362299 1.335165 0.117718
v -0.223915 1.359165 -0.308190
v 0.223913 1.359165 -0.308191
v 0.362299 1.359165 0.117720
v 0.000000 1.359165 0.380944
v -0.362299 1.359165 0.117718
v -0.131487 1.383165 -0.180974
v 0.131486 1.383165 -0.180975
v 0.212748 1.383165 0.069127
v 0.000000 1.383165 0.223697
v -0.212749 1.383165 0.069126
vt 0.000000 0.000000
vt 0.000000 0.000000
vt 0.000000 0.000000
vt 0.000000 0.000000
vt 0.000000 0.000000
vt 0.000000 0.000000
vt 0.000000 0.000000
vt 0.000000 0.000000
vt 0.000000 0.000000
vt 0.000000 0.000000
vt 0.000000 0.000000
vt 0.000000 0.000000
vt 0.000000 0.000000
vt 0.000000 0.000000
vt 0.000000 0.000000
vt 0.000000 0.000000
vt 0.000000 0.000000
vt 0.000000 0.000000
vt 0.000000 0.000000
vt 0.000000 0.000000
vt 0.000000 0.000000
vt 0.000000 0.000000
vt 0.000000 0.000000
vt 0.000000 0.000000
vt 0.000000 0.000000
vt 0.000000 0.000000
vt 0.000000 0.000000
vt 0.000000 0.000000
vt 0.000000 0.000000
vt 0.000000 0.000000
vt 0.000000 0.000000
vt 0.000000 0.000000
vt 0.000000 0.000000
vt 0.000000 0.000000
vt 0.000000 0.000000
vt 0.000000 0.000000
vt 0.000000 0.000000
vt 0.000000 0.000000
vt 0.000000 0.000000
vt 0.000000 0.000000
vt 0.000000 0.000000
vt 0.000000 0.000000
vt 0.000000 0.000000
vt 0.000000 0.000000
vt 0.000000 0.000000
vt 0.000000 0.000000
vt 0.000000 0.000000
vt 0.000000 0.000000
vt 0.000000 0.000000
vt 0.000000 0.000000
vt 0.000000 0.000000
vt 0.000000 0.000000
vt 0.000000 0.000000
vt 0.000000 0.000000
vt 0.000000 0.000000
vt 0.000000 0.000000
vt 0.000000 0.000000
vt 0.000000 0.000000
vt 0.000000 0.000000
vt 0.000000 0.000000
vt 0.000000 0.000000
vt 0.000000 0.000000
vt 0.000000 0.000000
vt 0.000000 0.000000
vt 0.000000 0.000000
vt 0.000000 0.000000
vt 0.000000 0.000000
vt 0.000000 0.000000
vt 0.000000 0.000000
vt 0.000000 0.000000
vt 0.000000 0.000000
vt 0.000000 0.000000
vt 0.000000 0.000000
vt 0.000000 0.000000
vt 0.000000 0.000000
vt 0.000000 0.000000
vt 0.000000 0.000000
vt 0.000000 0.000000
vt 0.000000 0.000000
vt 0.000000 0.000000
vt 0.000000 0.000000
vt 0.000000 0.000000
vt 0.000000 0.000000
vt 0.000000 0.000000
vt 0.000000 0.000000
vt 0.000000 0.000000
vt 0.000000 0.000000
vt 0.000000 0.000000
vt 0.000000 0.000000
vt 0.000000 0.000000
vt 0.000000 0.000000
vt 0.000000 0.000000
vt 0.000000 0.000000
vt 0.000000 0.000000
vt 0.000000 0.000000
vt 0.000000 0.000000
vt 0.000000 0.000000
vt 0.000000 0.000000
vt 0.000000 0.000000
vt 0.000000 0.000000
vt 0.000000 0.000000
vt 0.000000 0.000000
vt 0.000000 0.000000
vt 0.000000 0.000000
vt 0.000000 0.000000
vt 0.000000 0.000000
vt 0.000000 0.000000
vt 0.000000 0.000000
vt 0.000000 0.000000
vt 0.000000 0.000000
vt 0.000000 0.000000
vt 0.000000 0.000000
vt 0.000000 0.000000
vt 0.000000 0.000000
vt 0.000000 0.000000
vt 0.000000 0.000000
vt 0.000000 0.000000
vt 0.000000 0.000000
vt 0.000000 0.000000
vt 0.000000 0.000000
vt 0.000000 0.000000
vt 0.000000 0.000000
vt 0.000000 0.000000
vt 0.000000 0.000000
vt 0.000000 0.000000
vt 0.000000 0.000000
vt 0.000000 0.000000
vt 0.000000 0.000000
vt 0.000000 0.000000
vt 0.000000 0.000000
vt 0.000000 0.000000
vt 0.000000 0.000000
vt 0.727272 0.157461
vt 0.681818 0.078731
vt 0.636363 0.157461
vt 0.681818 0.236191
vt 0.909090 0.157461
vt 0.818181 0.157461
vt 0.863635 0.236191
vt 0.181818 0.157461
vt 0.090909 0.157461
vt 0.136363 0.236191
vt 0.363636 0.157461
vt 0.272727 0.157461
vt 0.318182 0.236191
vt 0.545454 0.157461
vt 0.454545 0.157461
vt 0.500000 0.236191
vt 0.772726 0.236191
vt 0.954545 0.236191
vt 0.227273 0.236191
vt 0.409090 0.236191
vt 0.590909 0.236191
vt 0.818181 0.314921
vt 0.727272 0.314921
vt 0.772726 0.393651
vt 1.000000 0.314921
vt 0.909091 0.314921
vt 0.954545 0.393651
vt 0.272727 0.314921
vt 0.181818 0.314921
vt 0.227273 0.393651
vt 0.454545 0.314921
vt 0.363636 0.314921
vt 0.409090 0.393651
vt 0.636363 0.314921
vt 0.545454 0.314921
vt 0.590909 0.393651
vt 0.500000 0.393651
vt 0.545454 0.472382
vt 0.318182 0.393651
vt 0.363636 0.472382
vt 0.136363 0.393651
vt 0.181818 0.472382
vt 0.090909 0.314921
vt 0.863635 0.393651
vt 0.909090 0.472382
vt 0.681818 0.393651
vt 0.727272 0.472382
vt 0.045454 0.236191
vt 0.000000 0.157461
vt 0.500000 0.078731
vt 0.409090 0.078731
vt 0.318182 0.078731
vt 0.227273 0.078731
vt 0.136363 0.078731
vt 0.045454 0.078731
vt 0.590909 0.078731
vt 0.863635 0.078731
vt 0.772726 0.078731
vt 0.000000 0.000000
vt 0.000000 0.000000
vt 0.000000 0.000000
vt 0.000000 0.000000
vt 0.000000 0.000000
vt 0.000000 0.000000
vt 0.000000 0.000000
vt 0.000000 0.000000
vt 0.000000 0.000000
vt 0.000000 0.000000
vt 0.000000 0.000000
vt 0.000000 0.000000
vt 0.000000 0.000000
vt 0.000000 0.000000
vt 0.000000 0.000000
vt 0.000000 0.000000
vt 0.000000 0.000000
vt 0.000000 0.000000
vn 0.0000 -1.0000 0.0000
vn -0.6500 -0.3567 -0.6711
vn 0.9203 -0.3567 0.1608
vn -0.4374 -0.3567 0.8255
vn 0.6500 -0.3567 0.6711
vn -0.8391 -0.3567 0.4108
vn -0.9203 -0.3567 -0.1608
vn -0.1314 -0.3567 -0.9249
vn 0.1314 -0.3567 0.9249
vn 0.4374 -0.3567 -0.8255
vn 0.8391 -0.3567 -0.4108
vn 0.2218 -0.6964 0.6825
vn 0.5806 -0.6964 0.4218
vn 0.7176 -0.6964 -0.0000
vn -0.2218 -0.6964 -0.6825
vn 0.5806 -0.6964 -0.4218
vn -0.5806 -0.6964 0.4218
vn -0.7176 -0.6964 0.0000
vn -0.2218 -0.6964 0.6825
vn -0.5806 -0.6964 -0.4218
vn 0.2218 -0.6964 -0.6825
vn 0.2172 -0.9633 0.1578
vn 0.2685 -0.9633 -0.0000
vn -0.0830 -0.9633 -0.2553
vn 0.2172 -0.9633 -0.1578
vn -0.2172 -0.9633 0.1578
vn -0.2685 -0.9633 0.0000
vn -0.0830 -0.9633 0.2553
vn -0.2172 -0.9633 -0.1578
vn 0.0830 -0.9633 -0.2553
vn 0.0830 -0.9633 0.2553
vn -0.8341 0.3301 -0.4419
vn -0.1625 0.3301 0.9299
vn -0.6780 0.3301 0.6568
vn 0.8341 0.3301 0.4419
vn -0.9346 0.3301 0.1328
vn 0.4151 0.3301 0.8478
vn -0.4151 0.3301 -0.8478
vn 0.1625 0.3301 -0.9299
vn 0.6780 0.3301 -0.6568
vn 0.9346 0.3301 -0.1328
vn 0.1200 0.9912 0.0566
vn -0.0638 0.9912 -0.1164
vn 0.0638 0.9912 0.1164
vn 0.0168 0.9912 -0.1316
vn -0.1304 0.9912 0.0247
vn 0.1304 0.9912 -0.0247
vn -0.1200 0.9912 -0.0566
vn -0.0168 0.9912 0.1316
vn 0.0909 0.9912 -0.0967
vn -0.0909 0.9912 0.0967
vn -0.4540 0.0000 -0.8910
vn 0.4540 0.0000 0.8910
vn 0.1564 -0.0000 -0.9877
vn -0.9877 0.0000 0.1564
vn 0.9877 0.0000 -0.1564
vn -0.8910 -0.0000 -0.4540
vn -0.1564 -0.0000 0.9877
vn 0.7071 0.0000 -0.7071
vn -0.7071 0.0000 0.7071
vn 0.8910 -0.0000 0.4540
vn -0.0613 -0.9419 -0.3302
vn -0.2951 -0.9419 0.1603
vn 0.2951 -0.9419 -0.1603
vn -0.3329 -0.9419 -0.0438
vn 0.0613 -0.9419 0.3302
vn 0.1445 -0.9419 -0.3031
vn -0.1445 -0.9419 0.3031
vn 0.3329 -0.9419 0.0438
vn -0.2436 -0.9419 -0.2311
vn 0.2436 -0.9419 0.2311
vn 0.1192 0.9698 -0.2127
vn -0.2215 0.9698 0.1020
vn 0.1654 0.9698 0.1791
vn -0.0286 0.9698 -0.2421
vn 0.0286 0.9698 0.2421
vn 0.2215 0.9698 -0.1020
vn -0.2391 0.9698 -0.0476
vn 0.2391 0.9698 0.0476
vn -0.1654 0.9698 -0.1791
vn -0.1192 0.9698 0.2127
vn -0.7116 0.1476 0.6869
vn 0.8732 0.1476 0.4645
vn -0.4334 0.1476 -0.8890
vn 0.4334 0.1476 0.8890
vn 0.7116 0.1476 -0.6869
vn -0.9794 0.1476 0.1375
vn 0.9794 0.1476 -0.1375
vn -0.8732 0.1476 -0.4645
vn -0.1719 0.1476 0.9740
vn 0.1719 0.1476 -0.9740
vn 0.9737 0.1567 0.1655
vn -0.6905 0.1567 -0.7062
vn 0.6905 0.1567 0.7062
vn 0.4583 0.1567 -0.8749
vn -0.8850 0.1567 0.4384
vn 0.8850 0.1567 -0.4384
vn -0.9737 0.1567 -0.1655
vn 0.1435 0.1567 0.9772
vn -0.1435 0.1567 -0.9772
vn -0.4583 0.1567 0.8749
vn -0.9475 -0.0862 -0.3079
vn 0.7488 -0.6617 0.0385
vn 0.9435 -0.3304 -0.0247
vn 0.3151 -0.3304 0.8897
vn -0.7488 -0.3304 0.5746
vn -0.7779 -0.3304 -0.5346
vn 0.2680 -0.3304 -0.9050
vn 0.9435 -0.1256 0.3066
vn -0.0000 -0.1256 0.9921
vn -0.9435 -0.1256 0.3066
vn -0.5831 -0.1256 -0.8026
vn 0.5831 -0.1256 -0.8026
vn 0.5831 0.6617 0.4713
vn -0.2680 0.6617 0.7002
vn -0.7488 0.6617 -0.0385
vn -0.1947 0.6617 -0.7240
vn 0.6284 0.6617 -0.4089
vn 0.1947 0.9435 -0.2680
vn 0.3568 0.7947 -0.4911
vn 0.1947 0.6617 -0.7240
vn -0.1947 0.9435 -0.2680
vn -0.3568 0.7947 -0.4911
vn -0.6284 0.6617 -0.4089
vn -0.3151 0.9435 0.1024
vn -0.5773 0.7947 0.1876
vn -0.5831 0.6617 0.4713
vn -0.0000 0.9435 0.3313
vn -0.0000 0.7947 0.6071
vn 0.2680 0.6617 0.7002
vn 0.3151 0.9435 0.1024
vn 0.5773 0.7947 0.1876
vn 0.7488 0.6617 -0.0385
vn 0.7488 0.3304 -0.5746
vn 0.5774 0.1876 -0.7947
vn 0.3151 0.3304 -0.8897
vn -0.3151 0.3304 -0.8897
vn -0.5773 0.1876 -0.7947
vn -0.7488 0.3304 -0.5746
vn -0.9435 0.3304 0.0247
vn -0.9342 0.1876 0.3035
vn -0.7779 0.3304 0.5346
vn -0.2680 0.3304 0.9050
vn -0.0000 0.1876 0.9822
vn 0.2680 0.3304 0.9050
vn 0.7779 0.3304 0.5346
vn 0.9342 0.1876 0.3035
vn 0.9435 0.3304 0.0247
vn 0.0000 0.1256 -0.9921
vn 0.0000 -0.1876 -0.9822
vn -0.2680 -0.3304 -0.9050
vn -0.9435 0.1256 -0.3066
vn -0.9342 -0.1876 -0.3035
vn -0.9435 -0.3304 -0.0247
vn -0.5831 0.1256 0.8026
vn -0.5774 -0.1876 0.7947
vn -0.3151 -0.3304 0.8897
vn 0.5831 0.1256 0.8026
vn 0.5774 -0.1876 0.7947
vn 0.7488 -0.3304 0.5746
vn 0.9435 0.1256 -0.3066
vn 0.9342 -0.1876 -0.3035
vn 0.7779 -0.3304 -0.5346
vn 0.2680 -0.6617 -0.7002
vn 0.0000 -0.7947 -0.6071
vn -0.2680 -0.6617 -0.7002
vn -0.5831 -0.6617 -0.4713
vn -0.5773 -0.7947 -0.1876
vn -0.7488 -0.6617 0.0385
vn -0.6284 -0.6617 0.4089
vn -0.3568 -0.7947 0.4911
vn -0.1947 -0.6617 0.7240
vn 0.5831 -0.6617 -0.4713
vn 0.5773 -0.7947 -0.1876
vn 0.1947 -0.6617 0.7240
vn 0.3568 -0.7947 0.4911
vn 0.6284 -0.6617 0.4089
vn -0.7882 0.2256 -0.5726
vn -0.9949 -0.1012 0.0000
vn -0.5856 -0.0862 0.8060
vn -0.7882 0.2256 0.5726
vn -0.3074 -0.1012 0.9462
vn 0.5856 -0.0862 0.8060
vn 0.3010 0.2256 0.9265
vn 0.8049 -0.1012 0.5848
vn 0.9475 -0.0862 -0.3079
vn 0.9742 0.2256 0.0000
vn 0.8049 -0.1012 -0.5848
vn -0.0000 -0.0862 -0.9963
vn 0.3010 0.2256 -0.9265
vn -0.3074 -0.1012 -0.9462
vn 0.1060 -0.9836 0.1459
vn -0.0000 -0.9836 -0.1803
vn -0.1060 -0.9836 0.1459
vn -0.1715 -0.9836 -0.0557
vn 0.1715 -0.9836 -0.0557
vn 0.9511 0.0000 -0.3090
vn 0.5878 0.0000 0.8090
vn -0.9511 0.0000 -0.3090
vn -0.5878 0.0000 0.8090
vn -0.0000 0.0000 -1.0000
vn -0.1763 0.9827 -0.0573
vn -0.1090 0.9827 0.1500
vn 0.1090 0.9827 0.1500
vn 0.1763 0.9827 -0.0573
vn -0.0000 0.9827 -0.1854
vn -0.4934 0.5434 0.6791
vn -0.7984 0.5434 -0.2594
vn 0.7984 0.5434 -0.2594
vn 0.4934 0.5435 0.6791
vn 0.0000 0.5434 -0.8394
usemtl None
s off
f 6/1/1 17/2/1 16/3/1 7/4/1
f 2/5/1 1/6/1 20/7/1 3/8/1
f 7/4/1 16/3/1 19/9/1 4/10/1
f 11/11/1 12/12/1 15/13/1 8/14/1
f 5/15/1 18/16/1 1/6/1 2/5/1
f 9/17/1 14/18/1 17/2/1 6/1/1
f 8/14/1 15/13/1 14/18/1 9/17/1
f 4/10/1 19/9/1 18/16/1 5/15/1
f 3/8/1 20/7/1 13/19/1 10/20/1
f 10/20/1 13/19/1 12/12/1 11/11/1
f 19/9/2 29/21/2 28/22/2 18/16/2
f 15/13/3 25/23/3 24/24/3 14/18/3
f 20/7/4 30/25/4 23/26/4 13/19/4
f 12/12/5 22/27/5 25/23/5 15/13/5
f 1/6/6 21/28/6 30/25/6 20/7/6
f 18/16/7 28/22/7 21/28/7 1/6/7
f 16/3/8 26/29/8 29/21/8 19/9/8
f 13/19/9 23/26/9 22/27/9 12/12/9
f 17/2/10 27/30/10 26/29/10 16/3/10
f 14/18/11 24/24/11 27/30/11 17/2/11
f 23/26/12 33/31/12 32/32/12 22/27/12
f 22/27/13 32/32/13 35/33/13 25/23/13
f 25/23/14 35/33/14 34/34/14 24/24/14
f 26/29/15 36/35/15 39/36/15 29/21/15
f 24/24/16 34/34/16 37/37/16 27/30/16
f 21/28/17 31/38/17 40/39/17 30/25/17
f 28/22/18 38/40/18 31/38/18 21/28/18
f 30/25/19 40/39/19 33/31/19 23/26/19
f 29/21/20 39/36/20 38/40/20 28/22/20
f 27/30/21 37/37/21 36/35/21 26/29/21
f 32/32/22 42/41/22 45/42/22 35/33/22
f 35/33/23 45/42/23 44/43/23 34/34/23
f 36/35/24 46/44/24 49/45/24 39/36/24
f 34/34/25 44/43/25 47/46/25 37/37/25
f 31/38/26 41/47/26 50/48/26 40/39/26
f 38/40/27 48/49/27 41/47/27 31/38/27
f 40/39/28 50/48/28 43/50/28 33/31/28
f 39/36/29 49/45/29 48/49/29 38/40/29
f 37/37/30 47/46/30 46/44/30 36/35/30
f 33/31/31 43/50/31 42/41/31 32/32/31
f 42/41/1 43/50/1 50/48/1 41/47/1 48/49/1 49/45/1 46/44/1 47/46/1 44/43/1 45/42/1
f 9/17/32 58/51/32 57/52/32 8/14/32
f 4/10/33 53/53/33 56/54/33 7/4/33
f 7/4/34 56/54/34 55/55/34 6/1/34
f 2/5/35 51/56/35 54/57/35 5/15/35
f 6/1/36 55/55/36 58/51/36 9/17/36
f 5/15/37 54/57/37 53/53/37 4/10/37
f 8/14/38 57/52/38 60/58/38 11/11/38
f 11/11/39 60/58/39 59/59/39 10/20/39
f 10/20/40 59/59/40 52/60/40 3/8/40
f 3/8/41 52/60/41 51/56/41 2/5/41
f 51/56/42 61/61/42 64/62/42 54/57/42
f 57/52/43 67/63/43 70/64/43 60/58/43
f 54/57/44 64/62/44 63/65/44 53/53/44
f 60/58/45 70/64/45 69/66/45 59/59/45
f 55/55/46 65/67/46 68/68/46 58/51/46
f 52/60/47 62/69/47 61/61/47 51/56/47
f 58/51/48 68/68/48 67/63/48 57/52/48
f 53/53/49 63/65/49 66/70/49 56/54/49
f 59/59/50 69/66/50 62/69/50 52/60/50
f 56/54/51 66/70/51 65/67/51 55/55/51
f 67/63/52 77/71/52 80/72/52 70/64/52
f 64/62/53 74/73/53 73/74/53 63/65/53
f 70/64/54 80/72/54 79/75/54 69/66/54
f 65/67/55 75/76/55 78/77/55 68/68/55
f 62/69/56 72/78/56 71/79/56 61/61/56
f 68/68/57 78/77/57 77/71/57 67/63/57
f 63/65/58 73/74/58 76/80/58 66/70/58
f 69/66/59 79/75/59 72/78/59 62/69/59
f 66/70/60 76/80/60 75/76/60 65/67/60
f 61/61/61 71/79/61 74/73/61 64/62/61
f 80/72/62 90/81/62 89/82/62 79/75/62
f 75/76/63 85/83/63 88/84/63 78/77/63
f 72/78/64 82/85/64 81/86/64 71/79/64
f 78/77/65 88/84/65 87/87/65 77/71/65
f 73/74/66 83/88/66 86/89/66 76/80/66
f 79/75/67 89/82/67 82/85/67 72/78/67
f 76/80/68 86/89/68 85/83/68 75/76/68
f 71/79/69 81/86/69 84/90/69 74/73/69
f 77/71/70 87/87/70 90/81/70 80/72/70
f 74/73/71 84/90/71 83/88/71 73/74/71
f 85/83/60 95/91/60 98/92/60 88/84/60
f 82/85/59 92/93/59 91/94/59 81/86/59
f 88/84/55 98/92/55 97/95/55 87/87/55
f 83/88/53 93/96/53 96/97/53 86/89/53
f 89/82/54 99/98/54 92/93/54 82/85/54
f 86/89/58 96/97/58 95/91/58 85/83/58
f 81/86/56 91/94/56 94/99/56 84/90/56
f 87/87/57 97/95/57 100/100/57 90/81/57
f 84/90/61 94/99/61 93/96/61 83/88/61
f 90/81/52 100/100/52 99/98/52 89/82/52
f 92/93/72 102/101/72 101/102/72 91/94/72
f 98/92/73 108/103/73 107/104/73 97/95/73
f 93/96/74 103/105/74 106/106/74 96/97/74
f 99/98/75 109/107/75 102/101/75 92/93/75
f 96/97/76 106/106/76 105/108/76 95/91/76
f 91/94/77 101/102/77 104/109/77 94/99/77
f 97/95/78 107/104/78 110/110/78 100/100/78
f 94/99/79 104/109/79 103/105/79 93/96/79
f 100/100/80 110/110/80 109/107/80 99/98/80
f 95/91/81 105/108/81 108/103/81 98/92/81
f 108/103/82 118/111/82 117/112/82 107/104/82
f 103/105/83 113/113/83 116/114/83 106/106/83
f 109/107/84 119/115/84 112/116/84 102/101/84
f 106/106/85 116/114/85 115/117/85 105/108/85
f 101/102/86 111/118/86 114/119/86 104/109/86
f 107/104/87 117/112/87 120/120/87 110/110/87
f 104/109/88 114/119/88 113/113/88 103/105/88
f 110/110/89 120/120/89 119/115/89 109/107/89
f 105/108/90 115/117/90 118/111/90 108/103/90
f 102/101/91 112/116/91 111/118/91 101/102/91
f 113/113/92 123/121/92 126/122/92 116/114/92
f 119/115/93 129/123/93 122/124/93 112/116/93
f 116/114/94 126/122/94 125/125/94 115/117/94
f 111/118/95 121/126/95 124/127/95 114/119/95
f 117/112/96 127/128/96 130/129/96 120/120/96
f 114/119/97 124/127/97 123/121/97 113/113/97
f 120/120/98 130/129/98 129/123/98 119/115/98
f 115/117/99 125/125/99 128/130/99 118/111/99
f 112/116/100 122/124/100 121/126/100 111/118/100
f 118/111/101 128/130/101 127/128/101 117/112/101
f 135/131/102 131/132/102 122/124/102
f 136/133/103 148/134/103 150/135/103
f 136/133/104 150/135/104 157/136/104
f 137/137/105 149/138/105 159/139/105
f 138/140/106 153/141/106 161/142/106
f 139/143/107 155/144/107 163/145/107
f 140/146/108 156/147/108 165/148/108
f 136/133/109 157/136/109 160/149/109
f 137/137/110 159/139/110 162/150/110
f 138/140/111 161/142/111 164/151/111
f 139/143/112 163/145/112 166/152/112
f 140/146/113 165/148/113 158/153/113
f 141/154/114 167/155/114 172/156/114
f 142/157/115 168/158/115 174/159/115
f 143/160/116 169/161/116 175/162/116
f 144/163/117 170/164/117 176/165/117
f 145/166/118 171/167/118 173/168/118
f 173/168/119 176/169/119 146/170/119
f 173/168/120 171/167/120 176/169/120
f 171/167/121 144/163/121 176/169/121
f 176/165/122 175/171/122 146/172/122
f 176/165/123 170/164/123 175/171/123
f 170/164/124 143/160/124 175/171/124
f 175/162/125 174/173/125 146/174/125
f 175/162/126 169/161/126 174/173/126
f 169/161/127 142/175/127 174/173/127
f 174/159/128 172/176/128 146/177/128
f 174/159/129 168/158/129 172/176/129
f 168/158/130 141/154/130 172/176/130
f 172/156/131 173/178/131 146/179/131
f 172/156/132 167/155/132 173/178/132
f 167/155/133 145/166/133 173/178/133
f 158/153/134 171/167/134 145/166/134
f 158/153/135 165/148/135 171/167/135
f 165/148/136 144/163/136 171/167/136
f 166/152/137 170/164/137 144/163/137
f 166/152/138 163/145/138 170/164/138
f 163/145/139 143/160/139 170/164/139
f 164/151/140 169/161/140 143/160/140
f 164/151/141 161/142/141 169/161/141
f 161/142/142 142/175/142 169/161/142
f 162/150/143 168/158/143 142/157/143
f 162/150/144 159/139/144 168/158/144
f 159/139/145 141/154/145 168/158/145
f 160/149/146 167/155/146 141/154/146
f 160/149/147 157/136/147 167/155/147
f 157/136/148 145/166/148 167/155/148
f 165/148/149 166/152/149 144/163/149
f 165/148/150 156/147/150 166/152/150
f 156/147/151 139/143/151 166/152/151
f 163/145/152 164/151/152 143/160/152
f 163/145/153 155/144/153 164/151/153
f 155/144/154 138/140/154 164/151/154
f 161/142/155 162/180/155 142/175/155
f 161/142/156 153/141/156 162/180/156
f 153/141/157 137/181/157 162/180/157
f 159/139/158 160/149/158 141/154/158
f 159/139/159 149/138/159 160/149/159
f 149/138/160 136/133/160 160/149/160
f 157/136/161 158/153/161 145/166/161
f 157/136/162 150/135/162 158/153/162
f 150/135/163 140/146/163 158/153/163
f 151/182/164 156/147/164 140/146/164
f 151/182/165 154/183/165 156/147/165
f 154/183/166 139/143/166 156/147/166
f 154/184/167 155/144/167 139/143/167
f 154/184/168 152/185/168 155/144/168
f 152/185/169 138/140/169 155/144/169
f 152/186/170 153/141/170 138/140/170
f 152/186/171 147/187/171 153/141/171
f 147/187/172 137/181/172 153/141/172
f 150/135/173 151/188/173 140/146/173
f 150/135/174 148/134/174 151/188/174
f 147/189/175 149/138/175 137/137/175
f 147/189/176 148/190/176 149/138/176
f 148/190/177 136/133/177 149/138/177
f 129/123/178 135/131/178 122/124/178
f 129/123/179 130/129/179 135/131/179
f 135/131/180 130/129/180 134/191/180
f 127/128/181 134/191/181 130/129/181
f 127/128/182 128/130/182 134/191/182
f 133/192/183 134/191/183 128/130/183
f 125/125/184 133/192/184 128/130/184
f 126/122/185 133/192/185 125/125/185
f 133/192/186 126/122/186 132/193/186
f 123/121/187 132/193/187 126/122/187
f 124/127/188 132/193/188 123/121/188
f 131/132/189 132/193/189 124/127/189
f 121/126/190 131/132/190 124/127/190
f 121/126/191 122/124/191 131/132/191
f 133/192/192 179/194/192 180/195/192 134/191/192
f 131/132/193 177/196/193 178/197/193 132/193/193
f 134/191/194 180/195/194 181/198/194 135/131/194
f 135/131/195 181/198/195 177/196/195 131/132/195
f 132/193/196 178/197/196 179/194/196 133/192/196
f 178/197/197 183/199/197 184/200/197 179/194/197
f 179/194/198 184/200/198 185/201/198 180/195/198
f 181/198/199 186/202/199 182/203/199 177/196/199
f 180/195/200 185/201/200 186/202/200 181/198/200
f 177/196/201 182/203/201 183/199/201 178/197/201
f 186/202/202 191/204/202 187/205/202 182/203/202
f 185/201/203 190/206/203 191/204/203 186/202/203
f 184/200/204 189/207/204 190/206/204 185/201/204
f 183/199/205 188/208/205 189/207/205 184/200/205
f 182/203/206 187/205/206 188/208/206 183/199/206
f 152/186/207 191/204/207 190/206/207 147/187/207
f 152/186/208 154/184/208 187/205/208 191/204/208
f 148/134/209 189/207/209 188/208/209 151/188/209
f 147/187/210 190/206/210 189/207/210 148/134/210
f 151/188/211 188/208/211 187/205/211 154/184/211
