# Blender v2.83.5 OBJ File: 'selection example.blend'
# www.blender.org
mtllib selection example.mtl
o Cube
v 1.000000 0.200000 -1.000000
v 1.000000 0.000000 -1.000000
v 1.673062 0.200000 1.000000
v 1.673062 0.000000 1.000000
v -1.000000 0.200000 -1.000000
v -1.000000 0.000000 -1.000000
v -1.704177 0.200000 0.819311
v -1.704177 0.000000 0.819311
v 0.061738 0.400000 -0.205602
vt 0.500000 0.875000
vt 0.753000 0.875000
vt 0.625000 1.000000
vt 0.250000 0.808334
vt 0.250000 0.875000
vt 0.000080 0.875000
vt 0.000080 0.808333
vt 1.000000 0.808333
vt 1.000000 0.875000
vt 0.753000 0.808333
vt 0.500000 0.808333
vt 0.125000 1.000000
vt 0.875000 1.000000
vt 0.375000 1.000000
vn 0.0000 0.9697 -0.2441
vn -0.0534 0.0000 0.9986
vn -0.9326 0.0000 -0.3610
vn 0.9478 0.0000 -0.3190
vn 0.0000 0.0000 -1.0000
vn -0.0094 0.9844 0.1759
vn -0.1443 0.9880 -0.0559
vn 0.1634 0.9850 -0.0550
usemtl Material
s off
f 1/1/1 5/2/1 9/3/1
f 4/4/2 3/5/2 7/6/2 8/7/2
f 8/8/3 7/9/3 5/2/3 6/10/3
f 2/11/4 1/1/4 3/5/4 4/4/4
f 6/10/5 5/2/5 1/1/5 2/11/5
f 7/6/6 3/5/6 9/12/6
f 9/13/7 5/2/7 7/9/7
f 9/14/8 3/5/8 1/1/8
