0
SECTION
2
HEADER
9
$INSUNITS
70
4
9
$ACADVER
1
AC1014
9
$HANDSEED
5
FFFF
0
ENDSEC
0
SECTION
2
TABLES
0
TABLE
2
VPORT
5
8
100
AcDbSymbolTable
0
ENDTAB
0
TABLE
2
LTYPE
5
5
100
AcDbSymbolTable
0
LTYPE
5
14
100
AcDbSymbolTableRecord
100
AcDbLinetypeTableRecord
2
BYBLOCK
70
0
0
LTYPE
5
15
100
AcDbSymbolTableRecord
100
AcDbLinetypeTableRecord
2
BYLAYER
70
0
0
ENDTAB
0
TABLE
2
LAYER
5
2
100
AcDbSymbolTable
70
2
0
LAYER
5
50
100
AcDbSymbolTableRecord
100
AcDbLayerTableRecord
2
0
70
0
6
CONTINUOUS
0
ENDTAB
0
TABLE
2
STYLE
5
3
100
AcDbSymbolTable
70
1
0
STYLE
5
11
100
AcDbSymbolTableRecord
100
AcDbTextStyleTableRecord
2
STANDARD
70
0
0
ENDTAB
0
TABLE
2
VIEW
5
6
100
AcDbSymbolTable
70
0
0
ENDTAB
0
TABLE
2
UCS
5
7
100
AcDbSymbolTable
70
0
0
ENDTAB
0
TABLE
2
APPID
5
9
100
AcDbSymbolTable
70
2
0
APPID
5
12
100
AcDbSymbolTableRecord
100
AcDbRegAppTableRecord
2
ACAD
70
0
0
ENDTAB
0
TABLE
2
DIMSTYLE
5
A
100
AcDbSymbolTable
70
1
0
ENDTAB
0
TABLE
2
BLOCK_RECORD
5
1
100
AcDbSymbolTable
70
1
0
BLOCK_RECORD
5
1F
100
AcDbSymbolTableRecord
100
AcDbBlockTableRecord
2
*MODEL_SPACE
0
BLOCK_RECORD
5
1B
100
AcDbSymbolTableRecord
100
AcDbBlockTableRecord
2
*PAPER_SPACE
0
ENDTAB
0
ENDSEC
0
SECTION
2
BLOCKS
0
BLOCK
5
20
100
AcDbEntity
100
AcDbBlockBegin
2
*MODEL_SPACE
0
ENDBLK
5
21
100
AcDbEntity
100
AcDbBlockEnd
0
BLOCK
5
1C
100
AcDbEntity
100
AcDbBlockBegin
2
*PAPER_SPACE
0
ENDBLK
5
1D
100
AcDbEntity
100
AcDbBlockEnd
0
ENDSEC
0
SECTION
2
ENTITIES
0
LINE
5
100
100
AcDbEntity
8
0
100
AcDbLine
10
0
20
0
30
0
11
0
21
-6.9282032302755061
31
0
0
LINE
5
101
100
AcDbEntity
8
0
100
AcDbLine
10
0
20
-6.9282032302755061
30
0
11
1
21
-6.9282032302755061
31
0
0
LINE
5
102
100
AcDbEntity
8
0
100
AcDbLine
10
1
20
-6.9282032302755061
30
0
11
2
21
-6.9282032302755061
31
0
0
LINE
5
103
100
AcDbEntity
8
0
100
AcDbLine
10
2
20
-6.9282032302755061
30
0
11
3.0000000447034836
21
-6.9282032302755061
31
0
0
LINE
5
104
100
AcDbEntity
8
0
100
AcDbLine
10
3.0000000447034836
20
-6.9282032302755061
30
0
11
4.0000000596046448
21
-6.9282032302755061
31
0
0
LINE
5
105
100
AcDbEntity
8
0
100
AcDbLine
10
4.0000000596046448
20
-6.9282032302755061
30
0
11
4.5000000596046448
21
-6.0621778264910677
31
0
0
LINE
5
106
100
AcDbEntity
8
0
100
AcDbLine
10
4.5000000596046448
20
-6.0621778264910677
30
0
11
5.0000000596046448
21
-5.1961524227066294
31
0
0
LINE
5
107
100
AcDbEntity
8
0
100
AcDbLine
10
5.0000000596046448
20
-5.1961524227066294
30
0
11
5.5000000596046448
21
-4.330127018922191
31
0
0
LINE
5
108
100
AcDbEntity
8
0
100
AcDbLine
10
5.5000000596046448
20
-4.330127018922191
30
0
11
6.0000000596046457
21
-3.4641016151377526
31
0
0
LINE
5
109
100
AcDbEntity
8
0
100
AcDbLine
10
6.0000000596046457
20
-3.4641016151377526
30
0
11
6.5000000596046457
21
-2.5980762113533142
31
0
0
LINE
5
110
100
AcDbEntity
8
0
100
AcDbLine
10
6.5000000596046457
20
-2.5980762113533142
30
0
11
7.0000000596046466
21
-1.7320508075688756
31
0
0
LINE
5
111
100
AcDbEntity
8
0
100
AcDbLine
10
7.0000000596046466
20
-1.7320508075688756
30
0
11
7.5000000596046466
21
-0.86602540378443738
31
0
0
LINE
5
112
100
AcDbEntity
8
0
100
AcDbLine
10
7.5000000596046466
20
-0.86602540378443738
30
0
11
8.0000000596046466
21
9.7144514654701197e-16
31
0
0
LINE
5
113
100
AcDbEntity
8
0
100
AcDbLine
10
8.0000000596046466
20
9.7144514654701197e-16
30
0
11
7.5000000596046483
21
0.86602540378443993
31
0
0
LINE
5
114
100
AcDbEntity
8
0
100
AcDbLine
10
7.5000000596046483
20
0.86602540378443993
30
0
11
7.0000000596046483
21
1.732050807568879
31
0
0
LINE
5
115
100
AcDbEntity
8
0
100
AcDbLine
10
7.0000000596046483
20
1.732050807568879
30
0
11
6.5000000596046492
21
2.5980762113533187
31
0
0
LINE
5
116
100
AcDbEntity
8
0
100
AcDbLine
10
6.5000000596046492
20
2.5980762113533187
30
0
11
6.0000000596046501
21
3.4641016151377575
31
0
0
LINE
5
117
100
AcDbEntity
8
0
100
AcDbLine
10
6.0000000596046501
20
3.4641016151377575
30
0
11
5.5000000596046501
21
4.3301270189221963
31
0
0
LINE
5
118
100
AcDbEntity
8
0
100
AcDbLine
10
5.5000000596046501
20
4.3301270189221963
30
0
11
5.000000059604651
21
5.1961524227066347
31
0
0
LINE
5
119
100
AcDbEntity
8
0
100
AcDbLine
10
5.000000059604651
20
5.1961524227066347
30
0
11
4.5000000596046519
21
6.0621778264910731
31
0
0
LINE
5
120
100
AcDbEntity
8
0
100
AcDbLine
10
4.5000000596046519
20
6.0621778264910731
30
0
11
4.0000000596046528
21
6.9282032302755114
31
0
0
LINE
5
121
100
AcDbEntity
8
0
100
AcDbLine
10
4.0000000596046528
20
6.9282032302755114
30
0
11
3.0000000596046528
21
6.9282032302755114
31
0
0
LINE
5
122
100
AcDbEntity
8
0
100
AcDbLine
10
3.0000000596046528
20
6.9282032302755114
30
0
11
2.0000000596046528
21
6.9282032302755114
31
0
0
LINE
5
123
100
AcDbEntity
8
0
100
AcDbLine
10
2.0000000596046528
20
6.9282032302755114
30
0
11
1.0000000596046528
21
6.9282032302755114
31
0
0
LINE
5
124
100
AcDbEntity
8
0
100
AcDbLine
10
1.0000000596046528
20
6.9282032302755114
30
0
11
5.9604652602462949e-08
21
6.9282032302755114
31
0
0
LINE
5
125
100
AcDbEntity
8
0
100
AcDbLine
10
5.9604652602462949e-08
20
6.9282032302755114
30
0
11
-1.0000000149011612
21
6.9282032302755114
31
0
0
LINE
5
126
100
AcDbEntity
8
0
100
AcDbLine
10
-1.0000000149011612
20
6.9282032302755114
30
0
11
-2.0000000298023224
21
6.9282032302755114
31
0
0
LINE
5
127
100
AcDbEntity
8
0
100
AcDbLine
10
-2.0000000298023224
20
6.9282032302755114
30
0
11
-3.0000000447034836
21
6.9282032302755114
31
0
0
LINE
5
128
100
AcDbEntity
8
0
100
AcDbLine
10
-3.0000000447034836
20
6.9282032302755114
30
0
11
-4.0000000596046448
21
6.9282032302755114
31
0
0
LINE
5
129
100
AcDbEntity
8
0
100
AcDbLine
10
-4.0000000596046448
20
6.9282032302755114
30
0
11
-4.5000000596046448
21
6.0621778264910731
31
0
0
LINE
5
130
100
AcDbEntity
8
0
100
AcDbLine
10
-4.5000000596046448
20
6.0621778264910731
30
0
11
-5.0000000596046448
21
5.1961524227066347
31
0
0
LINE
5
131
100
AcDbEntity
8
0
100
AcDbLine
10
-5.0000000596046448
20
5.1961524227066347
30
0
11
-5.5000000596046448
21
4.3301270189221963
31
0
0
LINE
5
132
100
AcDbEntity
8
0
100
AcDbLine
10
-5.5000000596046448
20
4.3301270189221963
30
0
11
-6.0000000596046457
21
3.4641016151377579
31
0
0
LINE
5
133
100
AcDbEntity
8
0
100
AcDbLine
10
-6.0000000596046457
20
3.4641016151377579
30
0
11
-6.5000000596046457
21
2.5980762113533196
31
0
0
LINE
5
134
100
AcDbEntity
8
0
100
AcDbLine
10
-6.5000000596046457
20
2.5980762113533196
30
0
11
-7.0000000596046466
21
1.7320508075688812
31
0
0
LINE
5
135
100
AcDbEntity
8
0
100
AcDbLine
10
-7.0000000596046466
20
1.7320508075688812
30
0
11
-7.5000000596046466
21
0.86602540378444282
31
0
0
LINE
5
136
100
AcDbEntity
8
0
100
AcDbLine
10
-7.5000000596046466
20
0.86602540378444282
30
0
11
-8.0000000596046466
21
4.4408920985006262e-15
31
0
0
LINE
5
137
100
AcDbEntity
8
0
100
AcDbLine
10
-8.0000000596046466
20
4.4408920985006262e-15
30
0
11
-7.5000000596046466
21
-0.86602540378443416
31
0
0
LINE
5
138
100
AcDbEntity
8
0
100
AcDbLine
10
-7.5000000596046466
20
-0.86602540378443416
30
0
11
-7.0000000596046466
21
-1.7320508075688725
31
0
0
LINE
5
139
100
AcDbEntity
8
0
100
AcDbLine
10
-7.0000000596046466
20
-1.7320508075688725
30
0
11
-6.5000000596046457
21
-2.5980762113533107
31
0
0
LINE
5
140
100
AcDbEntity
8
0
100
AcDbLine
10
-6.5000000596046457
20
-2.5980762113533107
30
0
11
-6.0000000596046457
21
-3.4641016151377491
31
0
0
LINE
5
141
100
AcDbEntity
8
0
100
AcDbLine
10
-6.0000000596046457
20
-3.4641016151377491
30
0
11
-5.5000000596046448
21
-4.3301270189221874
31
0
0
LINE
5
142
100
AcDbEntity
8
0
100
AcDbLine
10
-5.5000000596046448
20
-4.3301270189221874
30
0
11
-5.0000000596046448
21
-5.1961524227066258
31
0
0
LINE
5
143
100
AcDbEntity
8
0
100
AcDbLine
10
-5.0000000596046448
20
-5.1961524227066258
30
0
11
-4.5000000596046439
21
-6.0621778264910642
31
0
0
LINE
5
144
100
AcDbEntity
8
0
100
AcDbLine
10
-4.5000000596046439
20
-6.0621778264910642
30
0
11
-4.0000000596046439
21
-6.9282032302755026
31
0
0
LINE
5
145
100
AcDbEntity
8
0
100
AcDbLine
10
-4.0000000596046439
20
-6.9282032302755026
30
0
11
-3.0000000596046439
21
-6.9282032302755026
31
0
0
LINE
5
146
100
AcDbEntity
8
0
100
AcDbLine
10
-3.0000000596046439
20
-6.9282032302755026
30
0
11
-2.0000000596046439
21
-6.9282032302755026
31
0
0
LINE
5
147
100
AcDbEntity
8
0
100
AcDbLine
10
-2.0000000596046439
20
-6.9282032302755026
30
0
11
-1.0000000596046439
21
-6.9282032302755026
31
0
0
LINE
5
148
100
AcDbEntity
8
0
100
AcDbLine
10
-1.0000000596046439
20
-6.9282032302755026
30
0
11
0
21
-6.9282032302755061
31
0
0
LINE
5
149
100
AcDbEntity
8
0
100
AcDbLine
10
0
20
0
30
0
11
5.9604652602462949e-08
21
6.9282032302755114
31
0
0
LINE
5
150
100
AcDbEntity
8
0
100
AcDbLine
10
-6.0000000596046457
20
3.4641016151377579
30
0
11
6.0000000596046457
21
-3.4641016151377526
31
0
0
LINE
5
151
100
AcDbEntity
8
0
100
AcDbLine
10
1
20
-6.9282032302755061
30
0
11
1.7770429294077095
21
-1.0259762034629021
31
0
0
LINE
5
152
100
AcDbEntity
8
0
100
AcDbLine
10
2
20
-6.9282032302755061
30
0
11
3.3397459666005402
21
-1.9282032136868088
31
0
0
LINE
5
153
100
AcDbEntity
8
0
100
AcDbLine
10
3.0000000447034836
20
-6.9282032302755061
30
0
11
4.7369352119371424
21
-2.7348707925772242
31
0
0
LINE
5
154
100
AcDbEntity
8
0
100
AcDbLine
10
1.7770429294077095
20
-1.0259762034629021
30
0
11
6.5000000596046492
21
2.5980762113533187
31
0
0
LINE
5
155
100
AcDbEntity
8
0
100
AcDbLine
10
3.3397459666005402
20
-1.9282032136868088
30
0
11
7.0000000596046483
21
1.732050807568879
31
0
0
LINE
5
156
100
AcDbEntity
8
0
100
AcDbLine
10
4.7369352119371424
20
-2.7348707925772242
30
0
11
7.5000000596046483
21
0.86602540378443993
31
0
0
LINE
5
157
100
AcDbEntity
8
0
100
AcDbLine
10
-1.0000000596046439
20
-6.9282032302755026
30
0
11
-1.7770429848018654
21
-1.025976235444731
31
0
0
LINE
5
158
100
AcDbEntity
8
0
100
AcDbLine
10
-2.0000000596046439
20
-6.9282032302755026
30
0
11
-3.3397460182196781
21
-1.9282032434891301
31
0
0
LINE
5
159
100
AcDbEntity
8
0
100
AcDbLine
10
-3.0000000596046439
20
-6.9282032302755026
30
0
11
-4.7369352239624876
21
-2.7348707995200567
31
0
0
LINE
5
160
100
AcDbEntity
8
0
100
AcDbLine
10
-1.7770429848018654
20
-1.025976235444731
30
0
11
-6.5000000596046457
21
2.5980762113533196
31
0
0
LINE
5
161
100
AcDbEntity
8
0
100
AcDbLine
10
-3.3397460182196781
20
-1.9282032434891301
30
0
11
-7.0000000596046466
21
1.7320508075688812
31
0
0
LINE
5
162
100
AcDbEntity
8
0
100
AcDbLine
10
-4.7369352239624876
20
-2.7348707995200567
30
0
11
-7.5000000596046466
21
0.86602540378444282
31
0
0
LINE
5
163
100
AcDbEntity
8
0
100
AcDbLine
10
-6.0000000596046457
20
-3.4641016151377491
30
0
11
6.0000000596046501
21
3.4641016151377575
31
0
0
LINE
5
164
100
AcDbEntity
8
0
100
AcDbLine
10
-3.0000000447034836
20
6.9282032302755114
30
0
11
-4.7369352119371442
21
2.7348707925772295
31
0
0
LINE
5
165
100
AcDbEntity
8
0
100
AcDbLine
10
-2.0000000298023224
20
6.9282032302755114
30
0
11
-3.3397459924101103
21
1.9282032285879758
31
0
0
LINE
5
166
100
AcDbEntity
8
0
100
AcDbLine
10
-1.0000000149011612
20
6.9282032302755114
30
0
11
-1.7770429432562485
21
1.0259762114583646
31
0
0
LINE
5
167
100
AcDbEntity
8
0
100
AcDbLine
10
1.0000000596046528
20
6.9282032302755114
30
0
11
1.7770429848018732
21
1.0259762354447415
31
0
0
LINE
5
168
100
AcDbEntity
8
0
100
AcDbLine
10
2.0000000596046528
20
6.9282032302755114
30
0
11
3.3397460182196848
21
1.9282032434891394
31
0
0
LINE
5
169
100
AcDbEntity
8
0
100
AcDbLine
10
3.0000000596046528
20
6.9282032302755114
30
0
11
4.7369352239624964
21
2.7348707995200683
31
0
0
LINE
5
170
100
AcDbEntity
8
0
100
AcDbLine
10
-4.7369352119371442
20
2.7348707925772295
30
0
11
-7.5000000596046466
21
-0.86602540378443416
31
0
0
LINE
5
171
100
AcDbEntity
8
0
100
AcDbLine
10
-3.3397459924101103
20
1.9282032285879758
30
0
11
-7.0000000596046466
21
-1.7320508075688725
31
0
0
LINE
5
172
100
AcDbEntity
8
0
100
AcDbLine
10
-1.7770429432562485
20
1.0259762114583646
30
0
11
-6.5000000596046457
21
-2.5980762113533107
31
0
0
LINE
5
173
100
AcDbEntity
8
0
100
AcDbLine
10
1.7770429848018732
20
1.0259762354447415
30
0
11
6.5000000596046457
21
-2.5980762113533142
31
0
0
LINE
5
174
100
AcDbEntity
8
0
100
AcDbLine
10
3.3397460182196848
20
1.9282032434891394
30
0
11
7.0000000596046466
21
-1.7320508075688756
31
0
0
LINE
5
175
100
AcDbEntity
8
0
100
AcDbLine
10
4.7369352239624964
20
2.7348707995200683
30
0
11
7.5000000596046466
21
-0.86602540378443738
31
0
0
LINE
5
176
100
AcDbEntity
8
0
100
AcDbLine
10
-4.5000000596046439
20
-6.0621778264910642
30
0
11
0
21
-5.4697415795006821
31
0
0
LINE
5
177
100
AcDbEntity
8
0
100
AcDbLine
10
-5.0000000596046448
20
-5.1961524227066258
30
0
11
0
21
-3.8564064445799948
31
0
0
LINE
5
178
100
AcDbEntity
8
0
100
AcDbLine
10
-5.5000000596046448
20
-4.3301270189221874
30
0
11
0
21
-2.0519524011811123
31
0
0
LINE
5
179
100
AcDbEntity
8
0
100
AcDbLine
10
-5.5000000596046448
20
4.3301270189221963
30
0
11
1.7653337456800108e-08
21
2.0519523938688695
31
0
0
LINE
5
180
100
AcDbEntity
8
0
100
AcDbLine
10
-5.0000000596046448
20
5.1961524227066347
30
0
11
3.3177399428577798e-08
21
3.8564064356901473
31
0
0
LINE
5
181
100
AcDbEntity
8
0
100
AcDbLine
10
-4.5000000596046448
20
6.0621778264910731
30
0
11
4.7057229048570801e-08
21
5.4697415733054902
31
0
0
LINE
5
182
100
AcDbEntity
8
0
100
AcDbLine
10
4.7057229048570801e-08
20
5.4697415733054902
30
0
11
4.5000000596046519
21
6.0621778264910731
31
0
0
LINE
5
183
100
AcDbEntity
8
0
100
AcDbLine
10
3.3177399428577798e-08
20
3.8564064356901473
30
0
11
5.000000059604651
21
5.1961524227066347
31
0
0
LINE
5
184
100
AcDbEntity
8
0
100
AcDbLine
10
1.7653337456800108e-08
20
2.0519523938688695
30
0
11
5.5000000596046501
21
4.3301270189221963
31
0
0
LINE
5
185
100
AcDbEntity
8
0
100
AcDbLine
10
0
20
-2.0519524011811123
30
0
11
5.5000000596046448
21
-4.330127018922191
31
0
0
LINE
5
186
100
AcDbEntity
8
0
100
AcDbLine
10
0
20
-3.8564064445799948
30
0
11
5.0000000596046448
21
-5.1961524227066294
31
0
0
LINE
5
187
100
AcDbEntity
8
0
100
AcDbLine
10
0
20
-5.4697415795006821
30
0
11
4.5000000596046448
21
-6.0621778264910677
31
0
0
ENDSEC
0
SECTION
2
OBJECTS
0
DICTIONARY
5
C
100
AcDbDictionary
3
ACAD_GROUP
350
D
3
ACAD_MLINESTYLE
350
17
0
DICTIONARY
5
D
100
AcDbDictionary
0
DICTIONARY
5
1A
330
C
100
AcDbDictionary
0
DICTIONARY
5
17
100
AcDbDictionary
0
ENDSEC
0
EOF
