0
SECTION
2
HEADER
9
$INSUNITS
70
4
9
$ACADVER
1
AC1014
9
$HANDSEED
5
FFFF
0
ENDSEC
0
SECTION
2
TABLES
0
TABLE
2
VPORT
5
8
100
AcDbSymbolTable
0
ENDTAB
0
TABLE
2
LTYPE
5
5
100
AcDbSymbolTable
0
LTYPE
5
14
100
AcDbSymbolTableRecord
100
AcDbLinetypeTableRecord
2
BYBLOCK
70
0
0
LTYPE
5
15
100
AcDbSymbolTableRecord
100
AcDbLinetypeTableRecord
2
BYLAYER
70
0
0
ENDTAB
0
TABLE
2
LAYER
5
2
100
AcDbSymbolTable
70
2
0
LAYER
5
50
100
AcDbSymbolTableRecord
100
AcDbLayerTableRecord
2
0
70
0
6
CONTINUOUS
0
ENDTAB
0
TABLE
2
STYLE
5
3
100
AcDbSymbolTable
70
1
0
STYLE
5
11
100
AcDbSymbolTableRecord
100
AcDbTextStyleTableRecord
2
STANDARD
70
0
0
ENDTAB
0
TABLE
2
VIEW
5
6
100
AcDbSymbolTable
70
0
0
ENDTAB
0
TABLE
2
UCS
5
7
100
AcDbSymbolTable
70
0
0
ENDTAB
0
TABLE
2
APPID
5
9
100
AcDbSymbolTable
70
2
0
APPID
5
12
100
AcDbSymbolTableRecord
100
AcDbRegAppTableRecord
2
ACAD
70
0
0
ENDTAB
0
TABLE
2
DIMSTYLE
5
A
100
AcDbSymbolTable
70
1
0
ENDTAB
0
TABLE
2
BLOCK_RECORD
5
1
100
AcDbSymbolTable
70
1
0
BLOCK_RECORD
5
1F
100
AcDbSymbolTableRecord
100
AcDbBlockTableRecord
2
*MODEL_SPACE
0
BLOCK_RECORD
5
1B
100
AcDbSymbolTableRecord
100
AcDbBlockTableRecord
2
*PAPER_SPACE
0
ENDTAB
0
ENDSEC
0
SECTION
2
BLOCKS
0
BLOCK
5
20
100
AcDbEntity
100
AcDbBlockBegin
2
*MODEL_SPACE
0
ENDBLK
5
21
100
AcDbEntity
100
AcDbBlockEnd
0
BLOCK
5
1C
100
AcDbEntity
100
AcDbBlockBegin
2
*PAPER_SPACE
0
ENDBLK
5
1D
100
AcDbEntity
100
AcDbBlockEnd
0
ENDSEC
0
SECTION
2
ENTITIES
0
LINE
5
100
100
AcDbEntity
8
0
100
AcDbLine
10
0
20
-10
30
0
11
-5
21
-10
31
0
0
LINE
5
101
100
AcDbEntity
8
0
100
AcDbLine
10
-5
20
-10
30
0
11
-10
21
-10
31
0
0
LINE
5
102
100
AcDbEntity
8
0
100
AcDbLine
10
-10
20
-10
30
0
11
-15
21
-10
31
0
0
LINE
5
103
100
AcDbEntity
8
0
100
AcDbLine
10
-15
20
-10
30
0
11
-20
21
-10
31
0
0
LINE
5
104
100
AcDbEntity
8
0
100
AcDbLine
10
-20
20
-10
30
0
11
-22.5
21
-5.6698729810778081
31
0
0
LINE
5
105
100
AcDbEntity
8
0
100
AcDbLine
10
-22.5
20
-5.6698729810778081
30
0
11
-25
21
-1.3397459621556151
31
0
0
LINE
5
106
100
AcDbEntity
8
0
100
AcDbLine
10
-25
20
-1.3397459621556151
30
0
11
-27.5
21
2.9903810567665778
31
0
0
LINE
5
107
100
AcDbEntity
8
0
100
AcDbLine
10
-27.5
20
2.9903810567665778
30
0
11
-30
21
7.3205080756887719
31
0
0
LINE
5
108
100
AcDbEntity
8
0
100
AcDbLine
10
-30
20
7.3205080756887719
30
0
11
-32.5
21
11.650635094610966
31
0
0
LINE
5
109
100
AcDbEntity
8
0
100
AcDbLine
10
-32.5
20
11.650635094610966
30
0
11
-35
21
15.98076211353316
31
0
0
LINE
5
110
100
AcDbEntity
8
0
100
AcDbLine
10
-35
20
15.98076211353316
30
0
11
-37.5
21
20.310889132455351
31
0
0
LINE
5
111
100
AcDbEntity
8
0
100
AcDbLine
10
-37.5
20
20.310889132455351
30
0
11
-40
21
24.641016151377542
31
0
0
LINE
5
112
100
AcDbEntity
8
0
100
AcDbLine
10
-40
20
24.641016151377542
30
0
11
-37.5
21
28.971143170299737
31
0
0
LINE
5
113
100
AcDbEntity
8
0
100
AcDbLine
10
-37.5
20
28.971143170299737
30
0
11
-35
21
33.301270189221924
31
0
0
LINE
5
114
100
AcDbEntity
8
0
100
AcDbLine
10
-35
20
33.301270189221924
30
0
11
-32.5
21
37.631397208144122
31
0
0
LINE
5
115
100
AcDbEntity
8
0
100
AcDbLine
10
-32.5
20
37.631397208144122
30
0
11
-30
21
41.96152422706632
31
0
0
LINE
5
116
100
AcDbEntity
8
0
100
AcDbLine
10
-30
20
41.96152422706632
30
0
11
-27.500000000000004
21
46.291651245988504
31
0
0
LINE
5
117
100
AcDbEntity
8
0
100
AcDbLine
10
-27.500000000000004
20
46.291651245988504
30
0
11
-25.000000000000004
21
50.621778264910702
31
0
0
LINE
5
118
100
AcDbEntity
8
0
100
AcDbLine
10
-25.000000000000004
20
50.621778264910702
30
0
11
-22.500000000000004
21
54.9519052838329
31
0
0
LINE
5
119
100
AcDbEntity
8
0
100
AcDbLine
10
-22.500000000000004
20
54.9519052838329
30
0
11
-20.000000000000004
21
59.282032302755098
31
0
0
LINE
5
120
100
AcDbEntity
8
0
100
AcDbLine
10
-20.000000000000004
20
59.282032302755098
30
0
11
-15.000000000000004
21
59.282032302755098
31
0
0
LINE
5
121
100
AcDbEntity
8
0
100
AcDbLine
10
-15.000000000000004
20
59.282032302755098
30
0
11
-10
21
59.282032302755098
31
0
0
LINE
5
122
100
AcDbEntity
8
0
100
AcDbLine
10
-10
20
59.282032302755098
30
0
11
-5
21
59.282032302755098
31
0
0
LINE
5
123
100
AcDbEntity
8
0
100
AcDbLine
10
-5
20
59.282032302755098
30
0
11
0
21
59.282032302755098
31
0
0
LINE
5
124
100
AcDbEntity
8
0
100
AcDbLine
10
0
20
59.282032302755098
30
0
11
5
21
59.282032302755098
31
0
0
LINE
5
125
100
AcDbEntity
8
0
100
AcDbLine
10
5
20
59.282032302755098
30
0
11
10
21
59.282032302755098
31
0
0
LINE
5
126
100
AcDbEntity
8
0
100
AcDbLine
10
10
20
59.282032302755098
30
0
11
15
21
59.282032302755098
31
0
0
LINE
5
127
100
AcDbEntity
8
0
100
AcDbLine
10
15
20
59.282032302755098
30
0
11
20
21
59.282032302755098
31
0
0
LINE
5
128
100
AcDbEntity
8
0
100
AcDbLine
10
20
20
59.282032302755098
30
0
11
22.5
21
54.9519052838329
31
0
0
LINE
5
129
100
AcDbEntity
8
0
100
AcDbLine
10
22.5
20
54.9519052838329
30
0
11
25
21
50.621778264910702
31
0
0
LINE
5
130
100
AcDbEntity
8
0
100
AcDbLine
10
25
20
50.621778264910702
30
0
11
27.5
21
46.291651245988504
31
0
0
LINE
5
131
100
AcDbEntity
8
0
100
AcDbLine
10
27.5
20
46.291651245988504
30
0
11
29.999999999999996
21
41.961524227066313
31
0
0
LINE
5
132
100
AcDbEntity
8
0
100
AcDbLine
10
29.999999999999996
20
41.961524227066313
30
0
11
32.499999999999993
21
37.631397208144115
31
0
0
LINE
5
133
100
AcDbEntity
8
0
100
AcDbLine
10
32.499999999999993
20
37.631397208144115
30
0
11
34.999999999999986
21
33.301270189221917
31
0
0
LINE
5
134
100
AcDbEntity
8
0
100
AcDbLine
10
34.999999999999986
20
33.301270189221917
30
0
11
37.499999999999986
21
28.971143170299722
31
0
0
LINE
5
135
100
AcDbEntity
8
0
100
AcDbLine
10
37.499999999999986
20
28.971143170299722
30
0
11
39.999999999999979
21
24.641016151377528
31
0
0
LINE
5
136
100
AcDbEntity
8
0
100
AcDbLine
10
39.999999999999979
20
24.641016151377528
30
0
11
37.499999999999986
21
20.31088913245533
31
0
0
LINE
5
137
100
AcDbEntity
8
0
100
AcDbLine
10
37.499999999999986
20
20.31088913245533
30
0
11
34.999999999999986
21
15.980762113533133
31
0
0
LINE
5
138
100
AcDbEntity
8
0
100
AcDbLine
10
34.999999999999986
20
15.980762113533133
30
0
11
32.499999999999993
21
11.650635094610937
31
0
0
LINE
5
139
100
AcDbEntity
8
0
100
AcDbLine
10
32.499999999999993
20
11.650635094610937
30
0
11
29.999999999999996
21
7.3205080756887417
31
0
0
LINE
5
140
100
AcDbEntity
8
0
100
AcDbLine
10
29.999999999999996
20
7.3205080756887417
30
0
11
27.5
21
2.9903810567665472
31
0
0
LINE
5
141
100
AcDbEntity
8
0
100
AcDbLine
10
27.5
20
2.9903810567665472
30
0
11
25.000000000000004
21
-1.3397459621556496
31
0
0
LINE
5
142
100
AcDbEntity
8
0
100
AcDbLine
10
25.000000000000004
20
-1.3397459621556496
30
0
11
22.500000000000007
21
-5.6698729810778437
31
0
0
LINE
5
143
100
AcDbEntity
8
0
100
AcDbLine
10
22.500000000000007
20
-5.6698729810778437
30
0
11
20.000000000000014
21
-10.000000000000039
31
0
0
LINE
5
144
100
AcDbEntity
8
0
100
AcDbLine
10
20.000000000000014
20
-10.000000000000039
30
0
11
15
21
-10.000000000000039
31
0
0
LINE
5
145
100
AcDbEntity
8
0
100
AcDbLine
10
15
20
-10.000000000000039
30
0
11
10
21
-10.000000000000039
31
0
0
LINE
5
146
100
AcDbEntity
8
0
100
AcDbLine
10
10
20
-10.000000000000039
30
0
11
5
21
-10
31
0
0
LINE
5
147
100
AcDbEntity
8
0
100
AcDbLine
10
5
20
-10
30
0
11
0
21
-10
31
0
0
LINE
5
148
100
AcDbEntity
8
0
100
AcDbLine
10
-30
20
7.3205080756887719
30
0
11
-22.500000000003801
21
11.65063509460877
31
0
0
LINE
5
149
100
AcDbEntity
8
0
100
AcDbLine
10
-22.500000000003801
20
11.65063509460877
30
0
11
-15.000000000007601
21
15.980762113528769
31
0
0
LINE
5
150
100
AcDbEntity
8
0
100
AcDbLine
10
-15.000000000007601
20
15.980762113528769
30
0
11
-7.5000000000113989
21
20.310889132448764
31
0
0
LINE
5
151
100
AcDbEntity
8
0
100
AcDbLine
10
-7.5000000000113989
20
20.310889132448764
30
0
11
-1.5195622538044518e-11
21
24.641016151368763
31
0
0
LINE
5
152
100
AcDbEntity
8
0
100
AcDbLine
10
-1.5195622538044518e-11
20
24.641016151368763
30
0
11
-1.5195622538044518e-11
21
33.301270189208765
31
0
0
LINE
5
153
100
AcDbEntity
8
0
100
AcDbLine
10
-1.5195622538044518e-11
20
33.301270189208765
30
0
11
-1.5195622538044518e-11
21
41.961524227048763
31
0
0
LINE
5
154
100
AcDbEntity
8
0
100
AcDbLine
10
-1.5195622538044518e-11
20
41.961524227048763
30
0
11
-1.5195622538044518e-11
21
50.621778264888761
31
0
0
LINE
5
155
100
AcDbEntity
8
0
100
AcDbLine
10
-1.5195622538044518e-11
20
50.621778264888761
30
0
11
0
21
59.282032302755098
31
0
0
LINE
5
156
100
AcDbEntity
8
0
100
AcDbLine
10
-1.5195622538044518e-11
20
24.641016151368763
30
0
11
7.4999999999810063
21
20.310889132448764
31
0
0
LINE
5
157
100
AcDbEntity
8
0
100
AcDbLine
10
7.4999999999810063
20
20.310889132448764
30
0
11
14.999999999977209
21
15.980762113528769
31
0
0
LINE
5
158
100
AcDbEntity
8
0
100
AcDbLine
10
14.999999999977209
20
15.980762113528769
30
0
11
22.499999999973411
21
11.65063509460877
31
0
0
LINE
5
159
100
AcDbEntity
8
0
100
AcDbLine
10
22.499999999973411
20
11.65063509460877
30
0
11
29.999999999999996
21
7.3205080756887417
31
0
0
LINE
5
160
100
AcDbEntity
8
0
100
AcDbLine
10
-1.5195622538044518e-11
20
24.641016151368763
30
0
11
7.4999999999810063
21
28.971143170288762
31
0
0
LINE
5
161
100
AcDbEntity
8
0
100
AcDbLine
10
7.4999999999810063
20
28.971143170288762
30
0
11
14.999999999977209
21
33.301270189208758
31
0
0
LINE
5
162
100
AcDbEntity
8
0
100
AcDbLine
10
14.999999999977209
20
33.301270189208758
30
0
11
22.499999999973411
21
37.63139720812876
31
0
0
LINE
5
163
100
AcDbEntity
8
0
100
AcDbLine
10
22.499999999973411
20
37.63139720812876
30
0
11
29.999999999999996
21
41.961524227066313
31
0
0
LINE
5
164
100
AcDbEntity
8
0
100
AcDbLine
10
-1.5195622538044518e-11
20
24.641016151368763
30
0
11
-1.5195622538044518e-11
21
15.980762113528764
31
0
0
LINE
5
165
100
AcDbEntity
8
0
100
AcDbLine
10
-1.5195622538044518e-11
20
15.980762113528764
30
0
11
-1.5195622538044518e-11
21
7.320508075688763
31
0
0
LINE
5
166
100
AcDbEntity
8
0
100
AcDbLine
10
-1.5195622538044518e-11
20
7.320508075688763
30
0
11
-1.5195622538044518e-11
21
-1.3397459621512375
31
0
0
LINE
5
167
100
AcDbEntity
8
0
100
AcDbLine
10
-1.5195622538044518e-11
20
-1.3397459621512375
30
0
11
0
21
-10
31
0
0
LINE
5
168
100
AcDbEntity
8
0
100
AcDbLine
10
-1.5195622538044518e-11
20
24.641016151368763
30
0
11
-7.5000000000113989
21
28.971143170288762
31
0
0
LINE
5
169
100
AcDbEntity
8
0
100
AcDbLine
10
-7.5000000000113989
20
28.971143170288762
30
0
11
-15.000000000007603
21
33.301270189208758
31
0
0
LINE
5
170
100
AcDbEntity
8
0
100
AcDbLine
10
-15.000000000007603
20
33.301270189208758
30
0
11
-22.500000000003805
21
37.63139720812876
31
0
0
LINE
5
171
100
AcDbEntity
8
0
100
AcDbLine
10
-22.500000000003805
20
37.63139720812876
30
0
11
-30
21
41.96152422706632
31
0
0
LINE
5
172
100
AcDbEntity
8
0
100
AcDbLine
10
-15
20
-10
30
0
11
-22.500000000003801
21
11.65063509460877
31
0
0
LINE
5
173
100
AcDbEntity
8
0
100
AcDbLine
10
-10
20
-10
30
0
11
-15.000000000007601
21
15.980762113528769
31
0
0
LINE
5
174
100
AcDbEntity
8
0
100
AcDbLine
10
-5
20
-10
30
0
11
-7.5000000000113989
21
20.310889132448764
31
0
0
LINE
5
175
100
AcDbEntity
8
0
100
AcDbLine
10
5
20
-10
30
0
11
7.4999999999810063
21
20.310889132448764
31
0
0
LINE
5
176
100
AcDbEntity
8
0
100
AcDbLine
10
10
20
-10.000000000000039
30
0
11
14.999999999977209
21
15.980762113528769
31
0
0
LINE
5
177
100
AcDbEntity
8
0
100
AcDbLine
10
15
20
-10.000000000000039
30
0
11
22.499999999973411
21
11.65063509460877
31
0
0
LINE
5
178
100
AcDbEntity
8
0
100
AcDbLine
10
-22.500000000003801
20
11.65063509460877
30
0
11
-37.5
21
28.971143170299737
31
0
0
LINE
5
179
100
AcDbEntity
8
0
100
AcDbLine
10
-15.000000000007601
20
15.980762113528769
30
0
11
-35
21
33.301270189221924
31
0
0
LINE
5
180
100
AcDbEntity
8
0
100
AcDbLine
10
-7.5000000000113989
20
20.310889132448764
30
0
11
-32.5
21
37.631397208144122
31
0
0
LINE
5
181
100
AcDbEntity
8
0
100
AcDbLine
10
-27.500000000000004
20
46.291651245988504
30
0
11
-1.5195622538044518e-11
21
33.301270189208765
31
0
0
LINE
5
182
100
AcDbEntity
8
0
100
AcDbLine
10
-25.000000000000004
20
50.621778264910702
30
0
11
-1.5195622538044518e-11
21
41.961524227048763
31
0
0
LINE
5
183
100
AcDbEntity
8
0
100
AcDbLine
10
-22.500000000000004
20
54.9519052838329
30
0
11
-1.5195622538044518e-11
21
50.621778264888761
31
0
0
LINE
5
184
100
AcDbEntity
8
0
100
AcDbLine
10
-1.5195622538044518e-11
20
50.621778264888761
30
0
11
22.5
21
54.9519052838329
31
0
0
LINE
5
185
100
AcDbEntity
8
0
100
AcDbLine
10
-1.5195622538044518e-11
20
41.961524227048763
30
0
11
25
21
50.621778264910702
31
0
0
LINE
5
186
100
AcDbEntity
8
0
100
AcDbLine
10
-1.5195622538044518e-11
20
33.301270189208765
30
0
11
27.5
21
46.291651245988504
31
0
0
LINE
5
187
100
AcDbEntity
8
0
100
AcDbLine
10
7.4999999999810063
20
20.310889132448764
30
0
11
32.499999999999993
21
37.631397208144115
31
0
0
LINE
5
188
100
AcDbEntity
8
0
100
AcDbLine
10
14.999999999977209
20
15.980762113528769
30
0
11
34.999999999999986
21
33.301270189221917
31
0
0
LINE
5
189
100
AcDbEntity
8
0
100
AcDbLine
10
22.499999999973411
20
11.65063509460877
30
0
11
37.499999999999986
21
28.971143170299722
31
0
0
LINE
5
190
100
AcDbEntity
8
0
100
AcDbLine
10
-37.5
20
20.310889132455351
30
0
11
-22.500000000003805
21
37.63139720812876
31
0
0
LINE
5
191
100
AcDbEntity
8
0
100
AcDbLine
10
-35
20
15.98076211353316
30
0
11
-15.000000000007603
21
33.301270189208758
31
0
0
LINE
5
192
100
AcDbEntity
8
0
100
AcDbLine
10
-32.5
20
11.650635094610966
30
0
11
-7.5000000000113989
21
28.971143170288762
31
0
0
LINE
5
193
100
AcDbEntity
8
0
100
AcDbLine
10
-7.5000000000113989
20
28.971143170288762
30
0
11
-5
21
59.282032302755098
31
0
0
LINE
5
194
100
AcDbEntity
8
0
100
AcDbLine
10
-15.000000000007603
20
33.301270189208758
30
0
11
-10
21
59.282032302755098
31
0
0
LINE
5
195
100
AcDbEntity
8
0
100
AcDbLine
10
-22.500000000003805
20
37.63139720812876
30
0
11
-15.000000000000004
21
59.282032302755098
31
0
0
LINE
5
196
100
AcDbEntity
8
0
100
AcDbLine
10
5
20
59.282032302755098
30
0
11
7.4999999999810063
21
28.971143170288762
31
0
0
LINE
5
197
100
AcDbEntity
8
0
100
AcDbLine
10
10
20
59.282032302755098
30
0
11
14.999999999977209
21
33.301270189208758
31
0
0
LINE
5
198
100
AcDbEntity
8
0
100
AcDbLine
10
15
20
59.282032302755098
30
0
11
22.499999999973411
21
37.63139720812876
31
0
0
LINE
5
199
100
AcDbEntity
8
0
100
AcDbLine
10
22.499999999973411
20
37.63139720812876
30
0
11
37.499999999999986
21
20.31088913245533
31
0
0
LINE
5
200
100
AcDbEntity
8
0
100
AcDbLine
10
14.999999999977209
20
33.301270189208758
30
0
11
34.999999999999986
21
15.980762113533133
31
0
0
LINE
5
201
100
AcDbEntity
8
0
100
AcDbLine
10
7.4999999999810063
20
28.971143170288762
30
0
11
32.499999999999993
21
11.650635094610937
31
0
0
LINE
5
202
100
AcDbEntity
8
0
100
AcDbLine
10
-27.5
20
2.9903810567665778
30
0
11
-1.5195622538044518e-11
21
15.980762113528764
31
0
0
LINE
5
203
100
AcDbEntity
8
0
100
AcDbLine
10
-25
20
-1.3397459621556151
30
0
11
-1.5195622538044518e-11
21
7.320508075688763
31
0
0
LINE
5
204
100
AcDbEntity
8
0
100
AcDbLine
10
-1.5195622538044518e-11
20
-1.3397459621512375
30
0
11
-22.5
21
-5.6698729810778081
31
0
0
LINE
5
205
100
AcDbEntity
8
0
100
AcDbLine
10
-1.5195622538044518e-11
20
-1.3397459621512375
30
0
11
22.500000000000007
21
-5.6698729810778437
31
0
0
LINE
5
206
100
AcDbEntity
8
0
100
AcDbLine
10
-1.5195622538044518e-11
20
7.320508075688763
30
0
11
25.000000000000004
21
-1.3397459621556496
31
0
0
LINE
5
207
100
AcDbEntity
8
0
100
AcDbLine
10
-1.5195622538044518e-11
20
15.980762113528764
30
0
11
27.5
21
2.9903810567665472
31
0
0
ENDSEC
0
SECTION
2
OBJECTS
0
DICTIONARY
5
C
100
AcDbDictionary
3
ACAD_GROUP
350
D
3
ACAD_MLINESTYLE
350
17
0
DICTIONARY
5
D
100
AcDbDictionary
0
DICTIONARY
5
1A
330
C
100
AcDbDictionary
0
DICTIONARY
5
17
100
AcDbDictionary
0
ENDSEC
0
EOF
